<?xml version="1.0" encoding="utf-8"?>
<!-- Generator: Adobe Illustrator 27.5.0, SVG Export Plug-In . SVG Version: 6.00 Build 0)  -->
<svg version="1.1" xmlns="http://www.w3.org/2000/svg" xmlns:xlink="http://www.w3.org/1999/xlink" x="0px" y="0px"
	 viewBox="0 0 750 500" style="enable-background:new 0 0 750 500;" xml:space="preserve">
<g id="BACKGROUND">
	<rect id="XMLID_903_" style="fill:#FFFFFF;" width="750" height="500"/>
</g>
<g id="OBJECTS">
	<g id="XMLID_592_">
		<g id="XMLID_591_">
			<path id="XMLID_897_" style="fill:#E7F7F6;" d="M707.731,405.824c-0.61,5.25-1.01,8.22-1.01,8.22H50.871
				c0,0-1.08-4.69-2.59-12.89c-5.94-32.37-18.49-119.34,2.89-187.53c1.49-4.76,3.14-9.43,4.98-13.98
				c27.47-68.12,59.04-111.71,143.4-113.63c84.35-1.93,101.22,42.37,136.01,43.33c34.8,0.96,136.02-27.93,215.1-19.26
				c79.08,8.67,139.18,56.82,156.06,117.49c2.73,9.84,4.58,21.39,5.76,33.84C717.451,313.944,710.461,382.464,707.731,405.824z"/>
			<g id="XMLID_927_">
				<path id="XMLID_933_" style="fill:#FFFFFF;" d="M182.517,130.364H54.997c0.2-3.47,10.98-6.27,24.25-6.27
					c3.81,0,7.41,0.23,10.62,0.64c-0.03-0.36-0.06-0.73-0.06-1.1c0-8.55,7.16-15.48,16-15.48c7.87,0,14.41,5.51,15.73,12.77
					c0.76-0.16,1.55-0.25,2.36-0.25c0.93,0,1.83,0.12,2.69,0.32c0.44-9.21,8.72-16.55,18.88-16.55c10.46,0,18.93,7.76,18.93,17.33
					c0,0.79-0.08,1.56-0.19,2.32C174.247,124.134,182.367,126.914,182.517,130.364z"/>
				<path id="XMLID_929_" style="fill:#FFFFFF;" d="M719.784,231.527h-127.52c0.2-3.47,10.98-6.27,24.25-6.27
					c3.81,0,7.41,0.23,10.62,0.64c-0.03-0.36-0.06-0.73-0.06-1.1c0-8.55,7.16-15.48,16-15.48c7.87,0,14.41,5.51,15.73,12.77
					c0.76-0.16,1.55-0.25,2.36-0.25c0.93,0,1.83,0.12,2.69,0.32c0.44-9.21,8.72-16.55,18.88-16.55c10.46,0,18.93,7.76,18.93,17.33
					c0,0.79-0.08,1.56-0.19,2.32C711.514,225.297,719.634,228.077,719.784,231.527z"/>
				<path id="XMLID_935_" style="fill:#FFFFFF;" d="M389.82,179.117c0,0.37-0.12,0.73-0.35,1.08H235.13
					c1.25-1.85,7.5-3.26,15.01-3.26c0.43,0,0.85,0,1.27,0.01c-0.66-1.47-1.03-3.08-1.03-4.78c0-6.99,6.22-12.67,13.9-12.67
					c1.67,0,3.26,0.29,4.75,0.78c2.66-8.84,11.17-15.3,21.27-15.3c9.83,0,18.16,6.12,21.05,14.59c0.61-0.04,1.24-0.07,1.87-0.07
					c5.26,0,10.02,1.51,13.51,3.96c2.98-6.06,9.83-10.3,17.81-10.3c10.72,0,19.41,7.64,19.41,17.07c0,1.21-0.15,2.4-0.42,3.54
					c2.12-0.23,4.4-0.37,6.79-0.37C381.09,173.397,389.82,175.957,389.82,179.117z"/>
				<path id="XMLID_928_" style="fill:#FFFFFF;" d="M656.711,156.44c0,0.37-0.12,0.73-0.35,1.08h-154.34
					c1.25-1.85,7.5-3.26,15.01-3.26c0.43,0,0.85,0,1.27,0.01c-0.66-1.47-1.03-3.08-1.03-4.78c0-6.99,6.22-12.67,13.9-12.67
					c1.67,0,3.26,0.29,4.75,0.78c2.66-8.84,11.17-15.3,21.27-15.3c9.83,0,18.16,6.12,21.05,14.59c0.61-0.04,1.24-0.07,1.87-0.07
					c5.26,0,10.02,1.51,13.51,3.96c2.98-6.06,9.83-10.3,17.81-10.3c10.72,0,19.41,7.64,19.41,17.07c0,1.21-0.15,2.4-0.42,3.54
					c2.12-0.23,4.4-0.37,6.79-0.37C647.982,150.72,656.711,153.28,656.711,156.44z"/>
			</g>
			<g id="XMLID_883_">
				
					<linearGradient id="XMLID_00000039833908963527776480000003299548882113813176_" gradientUnits="userSpaceOnUse" x1="378.1778" y1="446.3438" x2="374.8383" y2="122.4339">
					<stop  offset="0" style="stop-color:#E7F7F6"/>
					<stop  offset="1" style="stop-color:#C5E4EA"/>
				</linearGradient>
				<path id="XMLID_912_" style="fill:url(#XMLID_00000039833908963527776480000003299548882113813176_);" d="M712.481,261.414
					h-102.61v-30.01l18.94,6.07l2.13-6.63l-102.02-32.7v-30.63l16.04,11.91l4.16-5.59l-76-56.43l-0.02,0.03l-0.02-0.03l-56.83,42.2
					h-1.22v0.91l-17.95,13.32l4.16,5.59l13.79-10.24v65.038h-192.83v-20.598h-8v-47.66l12.77-4.85l-2.46-6.51l-107.93,40.91
					l2.46,6.51l13.47-5.1v16.7h-81.34c-21.38,68.19-8.83,155.16-2.89,187.53h171.06v2.76h195.69v3.87h113.89v-3.87h75.16v1.91
					h103.65C710.461,382.464,717.451,313.944,712.481,261.414z"/>
				<g id="XMLID_880_">
					<rect id="XMLID_392_" x="196.788" y="225.921" style="fill:#E7F7F6;" width="13.148" height="20.375"/>
					<rect id="XMLID_882_" x="178.424" y="225.921" style="fill:#E7F7F6;" width="13.148" height="20.375"/>
				</g>
				<g id="XMLID_884_">
					<rect id="XMLID_894_" x="142.423" y="225.921" style="fill:#E7F7F6;" width="13.148" height="20.375"/>
					<rect id="XMLID_889_" x="124.059" y="225.921" style="fill:#E7F7F6;" width="13.148" height="20.375"/>
				</g>
				<g id="XMLID_910_">
					<rect id="XMLID_914_" x="84.694" y="225.921" style="fill:#E7F7F6;" width="13.148" height="20.375"/>
					<rect id="XMLID_913_" x="66.33" y="225.921" style="fill:#E7F7F6;" width="13.148" height="20.375"/>
				</g>
				<g id="XMLID_915_">
					<rect id="XMLID_917_" x="142.98" y="263.826" style="fill:#E7F7F6;" width="13.148" height="20.375"/>
					<rect id="XMLID_916_" x="124.616" y="263.826" style="fill:#E7F7F6;" width="13.148" height="20.375"/>
				</g>
				<g id="XMLID_918_">
					<rect id="XMLID_920_" x="447.996" y="170.01" style="fill:#E7F7F6;" width="13.148" height="20.375"/>
					<rect id="XMLID_919_" x="429.632" y="170.01" style="fill:#E7F7F6;" width="13.148" height="20.375"/>
				</g>
				<g id="XMLID_924_">
					<rect id="XMLID_926_" x="695.182" y="277.388" style="fill:#E7F7F6;" width="13.148" height="20.375"/>
					<rect id="XMLID_925_" x="676.819" y="277.388" style="fill:#E7F7F6;" width="13.148" height="20.375"/>
				</g>
				<g id="XMLID_921_">
					<rect id="XMLID_923_" x="502.022" y="170.01" style="fill:#E7F7F6;" width="13.148" height="20.375"/>
					<rect id="XMLID_922_" x="483.658" y="170.01" style="fill:#E7F7F6;" width="13.148" height="20.375"/>
				</g>
			</g>
		</g>
		<g id="XMLID_391_">
			<g id="XMLID_891_">
				<g id="XMLID_890_">
					<g id="XMLID_794_">
						<path id="XMLID_795_" style="fill:#6C646D;" d="M620.396,319.126l3.604-2.007c0,0,6.858,8.914,8.213,26.428l-11.817,1.04
							V319.126z"/>
						<path id="XMLID_780_" style="fill:#5D515D;" d="M602.237,315.199c1.533-1.379,5.308-2.744,10.955-2.731
							c5.647,0.013,9.832,3.044,10.808,4.651c0.976,1.608,2.257,32.075,2.257,32.075l-27.948,1.506
							C598.308,350.701,597.688,319.291,602.237,315.199z"/>
						<path id="XMLID_796_" style="fill:#6C646D;" d="M603.044,316.679l-0.807-1.48c0,0-13.123,13.808-11.257,33.221l7.328,0.728
							l5.984-17.001C606.087,327.048,605.633,321.426,603.044,316.679z"/>
						<g id="XMLID_793_">
							<path id="XMLID_781_" style="fill:#EF745D;" d="M609.875,303.978c0.518,0.291-0.179,8.781-1.053,8.783
								c0,0,3.018,3.416,4.37,3.444c1.352,0.028,2.18-3.594,2.18-3.594c-1.201-0.398-1.033-4.02-1.023-7.271L609.875,303.978z"/>
							<g id="XMLID_792_">
								<path id="XMLID_783_" style="fill:#DB5846;" d="M620.35,303.773c0.243,0.775-0.512,1.702-1.687,2.071
									c-1.175,0.369-2.325,0.04-2.569-0.735c-0.243-0.775,0.512-1.702,1.688-2.071
									C618.957,302.668,620.107,302.998,620.35,303.773z"/>
								<path id="XMLID_778_" style="fill:#EF745D;" d="M607.789,301.515c0,3.959,4.231,7.474,7.215,7.474
									c2.984,0,3.592-3.515,3.592-7.474s-2.419-7.168-5.403-7.168C610.208,294.347,607.789,297.556,607.789,301.515z"/>
								<path id="XMLID_782_" style="fill:#2C1B14;" d="M610.534,299.011c0,0,0.834,0.873,3.519,1.41
									c2.685,0.537,6.878-1.135,8.222-3.082c0,0-2.251,0.769-3.679-0.659c-1.124-1.123-2.47-4.187-6.096-4.184
									c-2.231,0.002-3.184,4.028-3.184,4.028s-2.915-0.265-3.049,1.144c-0.134,1.41,1.208,6.31,1.208,6.31l1.745,0.462
									L610.534,299.011z"/>
								<path id="XMLID_784_" style="fill:#2C1B14;" d="M619.02,299.011c0,0,0.22,3.103-0.494,4.572l-1.522-4.572H619.02z"/>
								<path id="XMLID_779_" style="fill:#EF745D;" d="M609.995,305.337c-0.326,0.744-1.505,0.946-2.633,0.451
									c-1.128-0.495-1.778-1.499-1.452-2.243s1.505-0.946,2.633-0.451C609.671,303.589,610.321,304.593,609.995,305.337z"/>
								<g id="XMLID_786_">
									<path id="XMLID_785_" style="fill:#2C1B14;" d="M613.409,303.853c0,0.325-0.162,0.588-0.362,0.588
										c-0.2,0-0.362-0.263-0.362-0.588c0-0.325,0.162-0.588,0.362-0.588C613.247,303.265,613.409,303.529,613.409,303.853z"/>
									<path id="XMLID_787_" style="fill:#2C1B14;" d="M617.593,303.583c0,0.325-0.162,0.588-0.362,0.588
										c-0.2,0-0.362-0.263-0.362-0.588c0-0.325,0.162-0.588,0.362-0.588C617.431,302.995,617.593,303.259,617.593,303.583z"/>
									<path id="XMLID_788_" style="fill:#2C1B14;" d="M617.009,301.734c-0.45-0.005-0.816,0.342-0.814,0.142
										c0.002-0.2,0.365-0.66,0.814-0.655c0.45,0.005,0.816,0.472,0.814,0.672C617.821,302.093,617.459,301.738,617.009,301.734z"
										/>
									<path id="XMLID_789_" style="fill:#2C1B14;" d="M612.783,301.734c-0.45-0.005-0.816,0.342-0.814,0.142
										c0.002-0.2,0.365-0.66,0.814-0.655c0.45,0.005,0.816,0.472,0.814,0.672C613.596,302.093,613.233,301.738,612.783,301.734z"
										/>
									
										<path id="XMLID_790_" style="fill:none;stroke:#B52A2A;stroke-width:0.5;stroke-linecap:round;stroke-linejoin:round;stroke-miterlimit:10;" d="
										M615.874,303.583c0,0,0.213,1.596,0,1.88"/>
									
										<path id="XMLID_791_" style="fill:none;stroke:#B52A2A;stroke-width:0.5;stroke-linecap:round;stroke-linejoin:round;stroke-miterlimit:10;" d="
										M615.721,306.588c0,0-1.332,0.384-2.312-0.725"/>
								</g>
							</g>
						</g>
					</g>
					<g id="XMLID_752_">
						<g id="XMLID_393_">
							<g id="XMLID_394_">
								<rect id="XMLID_395_" x="593.47" y="236.889" style="fill:#5F969B;" width="4.115" height="138.918"/>
								<rect id="XMLID_396_" x="593.47" y="261.415" style="fill:#42747F;" width="4.115" height="40.252"/>
							</g>
							<g id="XMLID_397_">
								<g id="XMLID_398_">
									<path id="XMLID_399_" style="fill:#73A7A8;" d="M674.159,270.799H516.938c0,0,35.195-28.63,78.61-28.63
										C638.964,242.17,674.159,270.799,674.159,270.799z"/>
									<path id="XMLID_400_" style="fill:#8BBCB8;" d="M595.548,242.17c0,0-33.478,9.907-48.366,28.63h26.894
										C574.076,270.799,577.399,259.651,595.548,242.17z"/>
									<path id="XMLID_401_" style="fill:#8BBCB8;" d="M595.548,242.17c0,0,33.478,9.907,48.366,28.63H617.02
										C617.02,270.799,613.697,259.651,595.548,242.17z"/>
								</g>
								<polygon id="XMLID_402_" style="fill:#679DA0;" points="544.03,283.747 520.091,283.747 516.938,270.799 547.182,270.799 
																	"/>
								<polygon id="XMLID_403_" style="fill:#7FB2B1;" points="571.255,283.454 549.984,283.454 547.182,270.507 574.056,270.507 
																	"/>
								<polygon id="XMLID_404_" style="fill:#679DA0;" points="612.522,283.747 578.533,283.747 574.056,270.799 616.998,270.799 
																	"/>
								<polygon id="XMLID_405_" style="fill:#7FB2B1;" points="641.108,283.454 619.804,283.454 616.998,270.507 643.914,270.507 
																	"/>
								<polygon id="XMLID_406_" style="fill:#679DA0;" points="671.006,283.747 647.067,283.747 643.914,270.799 674.159,270.799 
																	"/>
							</g>
						</g>
						<g id="XMLID_751_">
							<g id="XMLID_407_">
								<rect id="XMLID_408_" x="518.582" y="356.549" style="fill:#8BBCB8;" width="153.933" height="4.668"/>
								<rect id="XMLID_409_" x="522.181" y="361.217" style="fill:#8BBCB8;" width="146.734" height="44.604"/>
								<rect id="XMLID_410_" x="522.181" y="361.217" style="fill:#74A6AA;" width="146.734" height="4.668"/>
							</g>
							<g id="XMLID_750_">
								<rect id="XMLID_731_" x="524.528" y="311.546" style="fill:#A1C9C1;" width="64.705" height="45.003"/>
								<g id="XMLID_732_">
									<g id="XMLID_733_">
										<rect id="XMLID_749_" x="528.923" y="315.995" style="fill:#CAE5E1;" width="55.92" height="17.53"/>
										<rect id="XMLID_748_" x="528.923" y="336.272" style="fill:#CAE5E1;" width="55.92" height="17.53"/>
									</g>
									<polygon id="XMLID_740_" style="fill:#E1F4EE;" points="541.5,315.995 528.923,322.257 528.923,315.995 									"/>
									<polygon id="XMLID_739_" style="fill:#E1F4EE;" points="552.79,315.995 528.923,327.891 528.923,324.863 546.713,315.995 
																			"/>
									<polygon id="XMLID_742_" style="fill:#E1F4EE;" points="554.034,336.272 560.09,336.272 528.923,351.812 528.923,348.794 
																			"/>
									<polygon id="XMLID_744_" style="fill:#E1F4EE;" points="584.843,320.916 584.843,323.933 565.605,333.525 559.549,333.525 
																			"/>
									<polygon id="XMLID_743_" style="fill:#E1F4EE;" points="584.843,337.829 584.843,340.868 558.889,353.802 552.801,353.802 
																			"/>
									<polygon id="XMLID_746_" style="fill:#E1F4EE;" points="584.843,344.588 584.843,353.802 566.362,353.802 									"/>
								</g>
								<g id="XMLID_735_">
									<polygon id="XMLID_738_" style="fill:#80AFAE;" points="637.068,356.549 658.639,356.549 662.308,325.192 640.736,325.192 
																			"/>
									<polygon id="XMLID_737_" style="fill:#80AFAE;" points="637.068,356.549 658.639,356.549 662.308,325.192 640.736,325.192 
																			"/>
									<polygon id="XMLID_734_" style="fill:#A1C9C1;" points="666.023,356.549 644.451,356.549 640.782,325.192 662.354,325.192 
																			"/>
								</g>
								<g id="XMLID_745_">
									<rect id="XMLID_736_" x="591.686" y="340.87" style="fill:#A1C9C1;" width="41.851" height="15.679"/>
									<rect id="XMLID_741_" x="605.029" y="322.295" style="fill:#A1C9C1;" width="27.025" height="15.534"/>
									<rect id="XMLID_747_" x="615.462" y="325.758" style="fill:#8BBCB8;" width="5.778" height="15.534"/>
								</g>
							</g>
						</g>
					</g>
					<g id="XMLID_777_">
						<g id="XMLID_767_">
							<path id="XMLID_769_" style="fill:#EF745D;" d="M683.477,350.708c0.048,0.547,0.393,5.945-2.251,5.758
								s-1.756-5.766-1.756-5.766L683.477,350.708z"/>
							<path id="XMLID_763_" style="fill:#C8B4AD;" d="M684.807,346.693c0,0,0.5,4.486-1.282,4.563s-3.976,0.35-3.976,0.35
								l-0.412-4.689L684.807,346.693z"/>
							<path id="XMLID_762_" style="fill:#DBCCC6;" d="M666.988,322.598c-0.133-0.395,1.377-3.705,1.377-3.705
								s2.11,0.686,5.531,2.209c2.939,1.309,9.341,8.787,10.732,12.295c1.391,3.507,3.644,13.786,0.244,15.117
								c-3.4,1.331-5.679,0.092-8.352-4.141S666.988,322.598,666.988,322.598z"/>
						</g>
						<g id="XMLID_766_">
							<path id="XMLID_754_" style="fill:#EF745D;" d="M664.047,309.951c0,3.959-4.231,7.474-7.215,7.474
								c-2.984,0-3.592-3.515-3.592-7.474s2.419-7.168,5.403-7.168C661.628,302.783,664.047,305.992,664.047,309.951z"/>
							<path id="XMLID_757_" style="fill:#EF745D;" d="M658.016,314.832c0,0,0.678,5.533,0,6.6
								c-0.678,1.067,5.229,1.268,5.229,1.268l1.667-3.113c0,0-1.691,0.042-2.539-5.717
								C661.524,308.111,658.016,314.832,658.016,314.832z"/>
							<path id="XMLID_764_" style="fill:#2E1A13;" d="M658.968,316.205l3.789-0.305c0,0,2.466-3.585,3-5.262
								c0.533-1.678,2.11-5.535-0.534-5.567c0,0,0.982-2.212-0.31-3.051c-1.292-0.839-6.936-1.068-8.461-3.279
								c-1.525-2.212-1.518-3.889-2.628-2.669c-1.109,1.22,0,4.042,0,4.042s-2.33-3.432-2.864-2.288
								c-0.534,1.144,1.678,4.423,1.678,4.423s-3.356-1.068-3.432,0.076c-0.076,1.144,1.449,4.728,6.025,5.339L658.968,316.205z"/>
							<path id="XMLID_765_" style="fill:#EF745D;" d="M658.644,312.468c0-0.927-0.542-1.678-1.211-1.678
								c-0.669,0-1.211,0.751-1.211,1.678c0,0.926,0.542,1.677,1.211,1.677C658.102,314.146,658.644,313.395,658.644,312.468z"/>
						</g>
						<g id="XMLID_776_">
							<polygon id="XMLID_775_" style="fill:#EF745D;" points="664.521,389.246 666.737,395.341 663.343,397.349 659.95,391.047 
															"/>
							<polygon id="XMLID_774_" style="fill:#EF745D;" points="671.03,391.601 671.03,397.892 674.632,397.892 675.809,391.047 
															"/>
							<path id="XMLID_760_" style="fill:#E99943;" d="M662.209,346.785c0,0-6.281,26.285-6.184,31.061
								c0.097,4.776,3.896,15.827,3.896,15.827l6.139-2.842c0,0-2.246-9.572-2.08-12.051c0.166-2.479,6.705-15.295,6.705-15.295
								l-0.315,30.949l5.797-0.184c0,0,5.925-30.267,5.639-38.518c-0.302-8.712-1.651-12.183-1.651-12.183L662.209,346.785z"/>
							<path id="XMLID_773_" style="fill:#2E1A13;" d="M666.454,394.583c0,0,3.199,1.29,3.53,2.05s-5.466,4.511-7.63,4.511
								c-2.164,0-8.655,0.5-7.858-1.436c0.797-1.936,4.669-1.371,6.377-2.28C662.582,396.519,666.454,394.583,666.454,394.583z"/>
							<path id="XMLID_772_" style="fill:#2E1A13;" d="M671.017,396.764c0,0,5.326,0.111,6.632,0.614
								c1.306,0.502,3.316,1.475,3.416,2.612c0.1,1.137-9.148,1.675-11.424,0.688C667.364,399.692,671.017,396.764,671.017,396.764z
								"/>
						</g>
						<g id="XMLID_770_">
							<path id="XMLID_756_" style="fill:#B7928B;" d="M660.152,345.656c0,0-0.553,6.297,0.994,6.548
								c1.547,0.252,20.627-3.652,20.975-5.919c0.349-2.267-1.75-5.415-1.75-5.415L660.152,345.656z"/>
							<path id="XMLID_755_" style="fill:#C8B4AD;" d="M653.824,323.337c0.933-0.784,10.481-5.185,15.236-4.325
								c5.208,0.942,14.081,21.597,13.87,24.768c-0.211,3.171-21.556,6.239-24.547,3.701
								C655.393,344.943,653.824,323.337,653.824,323.337z"/>
						</g>
						<g id="XMLID_771_">
							<path id="XMLID_768_" style="fill:#EF745D;" d="M637.661,331.345c0,0-1.333-7.017-2.023-7.203c-0.69-0.186,0,4.036,0,4.036
								s-0.933-0.969-1.305-0.534c-0.372,0.435-0.126,1.133-0.126,1.133s-0.87-0.443-1.056,0.255
								c-0.186,0.698,0.395,1.162,0.395,1.162s-0.243-0.153-0.57,0.592c-0.326,0.745,1.402,3.232,2.662,3.14
								C636.899,333.834,637.661,331.345,637.661,331.345z"/>
							<g id="XMLID_761_">
								<path id="XMLID_759_" style="fill:#C8B4AD;" d="M640.859,332.881c0,0-2.581-2.809-3.265-2.278
									c-0.683,0.531-3.492,2.885-0.835,5.922C639.417,339.562,640.859,332.881,640.859,332.881z"/>
								<path id="XMLID_758_" style="fill:#DBCCC6;" d="M656.557,322.6c-1.677-0.316-2.686-0.531-4.925,4.73
									c-2.239,5.261-2.617,8.967-3.289,9.191c-0.672,0.224-6.114-5.833-8.8-5.05c-2.686,0.784-5.037,5.485-1.455,8.731
									c3.582,3.246,8.843,7.979,11.977,6.34c3.134-1.639,8.188-6.696,9.526-10.58C660.405,333.601,661.903,323.606,656.557,322.6z
									"/>
							</g>
						</g>
					</g>
				</g>
				<g id="XMLID_888_">
					<g id="XMLID_823_">
						<g id="XMLID_807_">
							<polygon id="XMLID_803_" style="fill:#EF745D;" points="418.681,396.249 418.393,391.812 414.068,392.239 414.88,398.087 
															"/>
							<path id="XMLID_804_" style="fill:#5D515D;" d="M418.681,396.249c-1.472-0.109-9.008,1.515-8.713,3.21
								c0.294,1.695,2.06,1.856,5.004,1.775c2.944-0.081,4.886,0.364,4.828-1.163C419.741,398.544,418.681,396.249,418.681,396.249z
								"/>
						</g>
						<g id="XMLID_806_">
							<path id="XMLID_805_" style="fill:#EF745D;" d="M405.417,397.417c0-0.244,0-6.153,0-6.153h-4.63l0.67,6.823L405.417,397.417z
								"/>
							<path id="XMLID_802_" style="fill:#5D515D;" d="M405.459,396.249c-2.014-0.109-12.324,1.515-11.921,3.21
								c0.403,1.695,2.819,1.856,6.847,1.775c4.027-0.081,6.686,0.364,6.605-1.163C406.909,398.544,405.459,396.249,405.459,396.249
								z"/>
						</g>
						<g id="XMLID_816_">
							<path id="XMLID_811_" style="fill:#EF745D;" d="M401.342,326.04l-5.189-2.255c0,0-2.289,11.906-2.137,14.958
								c0.153,3.051,4.731,15.059,4.731,15.059L401.342,326.04z"/>
							<path id="XMLID_814_" style="fill:#E5CAAC;" d="M405.078,322.945l-3.024-6.173c0,0-2.744-0.023-4.216,2.113
								c-1.357,1.969-5.051,11.349-5.051,11.349l7.45,4.325L405.078,322.945z"/>
							<path id="XMLID_800_" style="fill:#5D515D;" d="M399.703,338.743c0,0-2.039,9.196-1.853,16.995
								c0.185,7.8,1.853,37.402,1.853,37.402h6.449l1.149-39.338l6.042,39.599h5.68c0,0-0.788-29.524-0.973-37.662
								c-0.185-8.138-0.185-15.048-0.185-15.048L399.703,338.743z"/>
							<path id="XMLID_798_" style="fill:#F1E1C7;" d="M400.81,316.962c1.622-0.753,16.449,0.631,17.891,2.061
								c1.442,1.43,0.08,26.924,0.08,26.924s-20.24,0.407-20.944,0.827C395.971,347.888,400.81,316.962,400.81,316.962z"/>
							<path id="XMLID_808_" style="fill:#EF745D;" d="M416.777,329.575l6.471-3.535c0,0,4.51,10.292,3.606,12.886
								c-1.508,4.328-8.883,12.886-8.883,12.886l-1.789-5.008c0,0,5.161-6.904,4.115-9.13
								C419.25,335.447,416.777,329.575,416.777,329.575z"/>
							<path id="XMLID_812_" style="fill:#F1E1C7;" d="M415.362,323.814l2.277-5.302c0,0,2.876,0.444,3.939,2.24
								c1.062,1.795,4.421,8.223,4.421,8.223l-8.214,5.585L415.362,323.814z"/>
						</g>
						<g id="XMLID_813_">
							<path id="XMLID_810_" style="fill:#DB5846;" d="M402.583,306.936c-0.247,0.786,0.45,1.705,1.557,2.052
								c1.106,0.347,2.203-0.009,2.449-0.796c0.247-0.786-0.45-1.705-1.556-2.052C403.926,305.793,402.829,306.149,402.583,306.936z
								"/>
							<path id="XMLID_797_" style="fill:#EF745D;" d="M415.362,305.31c0,3.959-4.231,7.474-7.215,7.474
								c-2.984,0-3.592-3.515-3.592-7.474c0-3.959,2.419-7.168,5.403-7.168S415.362,301.352,415.362,305.31z"/>
							<path id="XMLID_801_" style="fill:#EF745D;" d="M413.549,306.83c-0.328,4.386-0.629,8.741,0.912,10.968
								c0,0-4.847,4.047-5.994,2.667s-1.564-3.551-1.564-3.551c2.048-1.278,2.263-4.523,2.349-7.905L413.549,306.83z"/>
							<path id="XMLID_809_" style="fill:#291D12;" d="M408.798,300.329c0.235-0.095,0.238,2.466,3.048,4.477l1.191,3.477
								l2.705-1.099c0,0,3.332-9.679-4.417-9.041c0,0-3.772-2.057-6.132,0c-2.359,2.057-0.543,5.84-0.543,5.84
								S406.219,301.372,408.798,300.329z"/>
							<path id="XMLID_799_" style="fill:#EF745D;" d="M412.833,309.066c0.326,0.757,1.454,0.998,2.518,0.539
								s1.663-1.445,1.337-2.201c-0.326-0.757-1.454-0.998-2.518-0.539C413.105,307.324,412.507,308.31,412.833,309.066z"/>
							<g id="XMLID_815_">
								<path id="XMLID_822_" style="fill:#2C1B14;" d="M409.242,306.899c0,0.325,0.162,0.588,0.362,0.588
									c0.2,0,0.362-0.263,0.362-0.588c0-0.325-0.162-0.588-0.362-0.588C409.404,306.312,409.242,306.575,409.242,306.899z"/>
								<path id="XMLID_821_" style="fill:#2C1B14;" d="M405.058,306.629c0,0.325,0.162,0.588,0.362,0.588s0.362-0.263,0.362-0.588
									c0-0.325-0.162-0.588-0.362-0.588S405.058,306.305,405.058,306.629z"/>
								<path id="XMLID_820_" style="fill:#2C1B14;" d="M405.642,304.78c0.45-0.005,0.816,0.342,0.814,0.142
									c-0.002-0.2-0.365-0.66-0.814-0.655c-0.45,0.005-0.816,0.472-0.814,0.672C404.83,305.139,405.192,304.785,405.642,304.78z"
									/>
								<path id="XMLID_819_" style="fill:#2C1B14;" d="M409.867,304.78c0.45-0.005,0.816,0.342,0.814,0.142
									c-0.002-0.2-0.365-0.66-0.814-0.655c-0.45,0.005-0.816,0.472-0.814,0.672C409.055,305.139,409.418,304.785,409.867,304.78z"
									/>
								
									<path id="XMLID_818_" style="fill:none;stroke:#B52A2A;stroke-width:0.5;stroke-linecap:round;stroke-linejoin:round;stroke-miterlimit:10;" d="
									M406.777,306.629c0,0-0.213,1.596,0,1.88"/>
								
									<path id="XMLID_817_" style="fill:none;stroke:#B52A2A;stroke-width:0.5;stroke-linecap:round;stroke-linejoin:round;stroke-miterlimit:10;" d="
									M406.777,310.085c0,0,1.367-0.247,2.441,0"/>
							</g>
						</g>
					</g>
					<g id="XMLID_418_">
						<g id="XMLID_419_">
							<g id="XMLID_420_">
								<g id="XMLID_421_">
									<g id="XMLID_422_">
										<polygon id="XMLID_423_" style="fill:none;stroke:#548D93;stroke-width:0.5;stroke-miterlimit:10;" points="
											282.633,270.352 289.765,267.289 297.51,270.352 										"/>
										
											<path id="XMLID_424_" style="fill:none;stroke:#548D93;stroke-width:0.5;stroke-linecap:round;stroke-linejoin:round;stroke-miterlimit:10;" d="
											M287.512,260.717l1.129-1.426c0.628-0.608,1.635-0.577,2.224,0.069l0,0c0.592,0.649,0.645,1.625,0.128,2.334l-1.249,1.713
											v3.883"/>
									</g>
									<g id="XMLID_425_">
										<path id="XMLID_426_" style="fill:#6FA5A5;" d="M300.447,270.352l-2.798,17.224h-15.701l-2.798-17.224l5.179-1.528
											c0,3.483,3.774,6.294,5.469,6.294c1.742,0,5.469-2.811,5.469-6.294L300.447,270.352z"/>
										<path id="XMLID_427_" style="fill:#6FA5A5;" d="M308.602,318.038c-12.778,4.007-25.324,4.169-37.608,0l10.953-30.462
											h15.701L308.602,318.038z"/>
									</g>
								</g>
								<g id="XMLID_428_">
									<g id="XMLID_429_">
										<polygon id="XMLID_430_" style="fill:none;stroke:#548D93;stroke-width:0.5;stroke-miterlimit:10;" points="
											328.69,270.356 335.823,267.293 343.568,270.356 										"/>
										
											<path id="XMLID_431_" style="fill:none;stroke:#548D93;stroke-width:0.5;stroke-linecap:round;stroke-linejoin:round;stroke-miterlimit:10;" d="
											M333.569,260.72l1.129-1.426c0.628-0.608,1.635-0.577,2.224,0.069h0c0.592,0.649,0.645,1.625,0.128,2.334l-1.249,1.713
											v3.883"/>
									</g>
									<g id="XMLID_432_">
										<g id="XMLID_433_">
											<path id="XMLID_434_" style="fill:#A1C9C1;" d="M346.778,270.352l-2.798,14.201h-15.701l-2.798-14.201l5.179-1.528
												c0,3.483,3.774,6.294,5.47,6.294c1.742,0,5.469-2.811,5.469-6.294L346.778,270.352z"/>
											<path id="XMLID_435_" style="fill:#6FA5A5;" d="M354.933,318.038c-12.778,4.007-25.324,4.169-37.608,0l10.953-30.462
												h15.701L354.933,318.038z"/>
										</g>
										<rect id="XMLID_436_" x="328.278" y="284.553" style="fill:#8DB7B2;" width="15.701" height="3.023"/>
										<path id="XMLID_437_" style="fill:#6FA5A5;" d="M325.48,270.352c-2.417,0.31-4.245,1.371-5.537,3.113
											c0,0,3.343,4.295,6.98,4.208L325.48,270.352z"/>
										<path id="XMLID_438_" style="fill:#6FA5A5;" d="M346.75,270.352c2.417,0.31,4.245,1.371,5.537,3.113
											c0,0-3.343,4.295-6.98,4.208L346.75,270.352z"/>
									</g>
								</g>
								<g id="XMLID_439_">
									<g id="XMLID_440_">
										<polygon id="XMLID_441_" style="fill:none;stroke:#548D93;stroke-width:0.5;stroke-miterlimit:10;" points="
											466.071,270.352 473.204,267.289 480.948,270.352 										"/>
										
											<path id="XMLID_442_" style="fill:none;stroke:#548D93;stroke-width:0.5;stroke-linecap:round;stroke-linejoin:round;stroke-miterlimit:10;" d="
											M470.95,260.717l1.129-1.426c0.628-0.608,1.635-0.577,2.224,0.069l0,0c0.592,0.649,0.645,1.625,0.128,2.334l-1.249,1.713
											v3.883"/>
									</g>
									<g id="XMLID_443_">
										<g id="XMLID_444_">
											<g id="XMLID_445_">
												<path id="XMLID_446_" style="fill:#A1C9C1;" d="M484.158,270.352l-2.798,14.201h-15.701l-2.798-14.201l5.179-1.528
													c0,3.483,3.774,6.294,5.469,6.294c1.742,0,5.469-2.811,5.469-6.294L484.158,270.352z"/>
												<path id="XMLID_447_" style="fill:#A1C9C1;" d="M492.314,318.038c-12.778,4.007-25.324,4.169-37.608,0l10.953-30.462
													h15.701L492.314,318.038z"/>
											</g>
											<rect id="XMLID_448_" x="465.659" y="284.553" style="fill:#8DB7B2;" width="15.701" height="3.023"/>
										</g>
										<g id="XMLID_449_">
											<polygon id="XMLID_450_" style="fill:#6FA5A5;" points="464.417,272.758 462.524,270.352 453.936,303.355 
												457.252,305.326 464.417,286.065 											"/>
											<path id="XMLID_451_" style="fill:#6FA5A5;" d="M466.773,269.198c0,0,2.758,20.79,0,24.389
												c-2.758,3.598-4.71,3.988-4.71,3.988l0.46-27.223L466.773,269.198z"/>
										</g>
										<g id="XMLID_452_">
											<polygon id="XMLID_453_" style="fill:#6FA5A5;" points="482.264,272.758 484.158,270.352 492.745,303.355 
												489.429,305.326 482.264,286.065 											"/>
											<path id="XMLID_454_" style="fill:#6FA5A5;" d="M479.908,269.198c0,0-2.758,20.79,0,24.389
												c2.758,3.598,4.71,3.988,4.71,3.988l-0.46-27.223L479.908,269.198z"/>
										</g>
									</g>
								</g>
							</g>
							<g id="XMLID_455_">
								<g id="XMLID_456_">
									<g id="XMLID_457_">
										<g id="XMLID_458_">
											<rect id="XMLID_459_" x="266.72" y="328.974" style="fill:#73A7A8;" width="3.048" height="68.629"/>
											<rect id="XMLID_460_" x="261.098" y="397.603" style="fill:#457D87;" width="14.291" height="3.55"/>
										</g>
										<g id="XMLID_461_">
											<rect id="XMLID_462_" x="383.079" y="328.974" style="fill:#73A7A8;" width="3.048" height="68.629"/>
											<rect id="XMLID_463_" x="377.458" y="397.603" style="fill:#457D87;" width="14.291" height="3.55"/>
										</g>
										<g id="XMLID_464_">
											<g id="XMLID_465_">
												<path id="XMLID_466_" style="fill:none;stroke:#548D93;stroke-width:0.5;stroke-miterlimit:10;" d="M288.558,332.984
													c1.61,0.981,1.696,2.043,0,3.198v1.801"/>
												<g id="XMLID_467_">
													<path id="XMLID_468_" style="fill:#6FA5A5;" d="M283.089,339.681c0,0,2.521,2.117,5.469,2.117s5.47-2.117,5.47-2.117
														l1.344,2.658l-6.814,5.875l-6.328-4.947L283.089,339.681z"/>
													<polygon id="XMLID_469_" style="fill:none;stroke:#548D93;stroke-width:0.5;stroke-miterlimit:10;" points="
														281.362,340.969 288.494,337.906 296.239,340.969 													"/>
													<path id="XMLID_470_" style="fill:#A1C9C1;" d="M299.206,341.209l1.528,32.832h-24.353l1.528-32.832l5.179-1.528
														c0,3.483,3.774,6.294,5.47,6.294c1.742,0,5.469-2.811,5.469-6.294L299.206,341.209z"/>
													<polygon id="XMLID_471_" style="fill:#6FA5A5;" points="299.206,341.209 306.539,355.337 300.022,358.738 
																											"/>
													<polygon id="XMLID_472_" style="fill:#6FA5A5;" points="277.925,341.209 270.592,355.337 277.109,358.738 
																											"/>
												</g>
											</g>
											<g id="XMLID_473_">
												<g id="XMLID_474_">
													<path id="XMLID_475_" style="fill:#588B93;" d="M361.749,339.437c0,0,2.521,2.117,5.469,2.117
														c2.948,0,5.469-2.117,5.469-2.117l1.344,2.658l-6.814,5.875l-6.328-4.948L361.749,339.437z"/>
													<polygon id="XMLID_476_" style="fill:none;stroke:#A1C9C1;stroke-width:0.5;stroke-miterlimit:10;" points="
														359.78,340.969 366.912,337.906 374.657,340.969 													"/>
													<path id="XMLID_477_" style="fill:#6FA5A5;" d="M377.867,340.965l1.528,32.832h-24.353l1.528-32.832l5.179-1.528
														c0,3.483,3.774,6.294,5.47,6.294c1.742,0,5.469-2.811,5.469-6.294L377.867,340.965z"/>
													<polygon id="XMLID_478_" style="fill:#A1C9C1;" points="377.867,341.951 385.2,356.079 378.683,359.48 													
														"/>
													<polygon id="XMLID_479_" style="fill:#A1C9C1;" points="356.586,340.965 349.253,355.093 355.77,358.494 													
														"/>
												</g>
												<path id="XMLID_480_" style="fill:none;stroke:#A1C9C1;stroke-width:0.5;stroke-miterlimit:10;" d="M366.927,332.907
													c1.61,0.981,1.696,2.043,0,3.198v1.801"/>
											</g>
											<g id="XMLID_481_">
												<g id="XMLID_482_">
													<polygon id="XMLID_483_" style="fill:none;stroke:#548D93;stroke-width:0.5;stroke-miterlimit:10;" points="
														321.252,340.969 328.384,337.906 336.129,340.969 													"/>
													<g id="XMLID_484_">
														<path id="XMLID_485_" style="fill:#6FA5A5;" d="M328.69,345.732v-2.573l-4.225-4.989l-1.245,1.267
															C323.221,339.437,322.079,345.61,328.69,345.732z"/>
														<path id="XMLID_486_" style="fill:#6FA5A5;" d="M328.69,345.732v-2.573l4.225-4.989l1.245,1.267
															C334.16,339.437,335.302,345.61,328.69,345.732z"/>
														<path id="XMLID_487_" style="fill:#6FA5A5;" d="M337.018,371.891h-16.326c-1.282,0-2.321-1.039-2.321-2.321v-3.373
															h20.968v3.373C339.339,370.851,338.3,371.891,337.018,371.891z"/>
														<g id="XMLID_488_">
															<polygon id="XMLID_489_" style="fill:#62979B;" points="347.594,365.148 349.202,369.824 343.272,371.594 
																340.671,367.51 															"/>
															<path id="XMLID_490_" style="fill:#6FA5A5;" d="M339.339,340.961l9.086,23.571c0.409,1.061-0.262,2.204-1.512,2.572
																l-4.366,1.287c-1.583,0.466-3.237-0.525-3.236-1.939L339.339,340.961z"/>
														</g>
														<g id="XMLID_491_">
															<polygon id="XMLID_492_" style="fill:#62979B;" points="309.818,365.148 308.209,369.824 314.139,371.594 
																316.74,367.51 															"/>
															<path id="XMLID_493_" style="fill:#6FA5A5;" d="M318.073,340.961l-9.086,23.571
																c-0.409,1.061,0.262,2.204,1.512,2.572l4.366,1.287c1.583,0.466,3.238-0.525,3.236-1.939L318.073,340.961z"/>
														</g>
														<g id="XMLID_494_">
															<path id="XMLID_495_" style="fill:#A1C9C1;" d="M339.339,340.965l1.267,23.022c0.142,2.579-1.911,4.748-4.494,4.748
																h-14.843c-2.583,0-4.636-2.169-4.494-4.748l1.267-23.022l5.179-1.528c0,3.483,3.774,6.294,5.469,6.294
																c1.742,0,5.469-2.811,5.469-6.294L339.339,340.965z"/>
														</g>
														
															<polyline id="XMLID_496_" style="fill:none;stroke:#456870;stroke-width:0.25;stroke-linecap:round;stroke-linejoin:round;stroke-miterlimit:10;" points="
															328.69,343.342 328.69,345.732 328.69,368.734 328.69,371.594 														"/>
													</g>
												</g>
												<path id="XMLID_497_" style="fill:none;stroke:#548D93;stroke-width:0.5;stroke-miterlimit:10;" d="M328.483,332.907
													c1.61,0.981,1.696,2.043,0,3.198v1.801"/>
											</g>
										</g>
									</g>
									<g id="XMLID_498_">
										<rect id="XMLID_499_" x="267.787" y="333.323" style="fill:#73A7A8;" width="117.413" height="2.473"/>
										
											<path id="XMLID_500_" style="fill:none;stroke:#A1C9C1;stroke-width:0.5;stroke-linecap:round;stroke-linejoin:round;stroke-miterlimit:10;" d="
											M365.031,334.936c0,0-0.093-2.178,1.896-2.029"/>
										
											<path id="XMLID_501_" style="fill:none;stroke:#548D93;stroke-width:0.5;stroke-linecap:round;stroke-linejoin:round;stroke-miterlimit:10;" d="
											M326.587,334.936c0,0-0.093-2.178,1.896-2.029"/>
										
											<path id="XMLID_502_" style="fill:none;stroke:#548D93;stroke-width:0.5;stroke-linecap:round;stroke-linejoin:round;stroke-miterlimit:10;" d="
											M286.662,335.021c0,0-0.093-2.178,1.896-2.029"/>
									</g>
								</g>
								<g id="XMLID_503_">
									<g id="XMLID_504_">
										<g id="XMLID_505_">
											<polygon id="XMLID_506_" style="fill:none;stroke:#548D93;stroke-width:0.5;stroke-miterlimit:10;" points="
												475.259,338.162 482.856,334.9 491.106,338.162 											"/>
											<g id="XMLID_507_">
												<path id="XMLID_508_" style="fill:#6FA5A5;" d="M483.183,343.236v-2.741l-4.5-5.314l-1.326,1.35
													C477.356,336.531,476.14,343.107,483.183,343.236z"/>
												<path id="XMLID_509_" style="fill:#6FA5A5;" d="M483.183,343.236v-2.741l4.5-5.314l1.326,1.35
													C489.009,336.531,490.226,343.107,483.183,343.236z"/>
												<path id="XMLID_510_" style="fill:#6FA5A5;" d="M492.205,371.102h-17.694c-1.282,0-2.321-1.039-2.321-2.321v-3.744
													h22.336v3.744C494.526,370.062,493.487,371.102,492.205,371.102z"/>
												<g id="XMLID_511_">
													<polygon id="XMLID_512_" style="fill:#62979B;" points="503.319,363.919 505.033,368.901 498.716,370.786 
														495.945,366.436 													"/>
													<path id="XMLID_513_" style="fill:#7DB2AA;" d="M494.525,338.154l9.679,25.109c0.436,1.131-0.28,2.348-1.61,2.74
														l-4.651,1.371c-1.686,0.497-3.449-0.56-3.447-2.066L494.525,338.154z"/>
												</g>
												<g id="XMLID_514_">
													<polygon id="XMLID_515_" style="fill:#62979B;" points="463.078,363.919 461.365,368.901 467.682,370.786 
														470.453,366.436 													"/>
													<path id="XMLID_516_" style="fill:#7DB2AA;" d="M471.872,338.154l-9.679,25.109c-0.436,1.131,0.279,2.348,1.61,2.74
														l4.651,1.371c1.686,0.497,3.449-0.56,3.447-2.066L471.872,338.154z"/>
												</g>
												<g id="XMLID_517_">
													<path id="XMLID_518_" style="fill:#A1C9C1;" d="M495.874,362.682c0.148,2.75-2.031,5.056-4.782,5.056h-15.817
														c-2.75,0-4.941-2.305-4.782-5.056l0.639-11.64l0.708-12.884l5.512-1.632c0,3.72,4.028,6.71,5.832,6.71
														c1.849,0,5.82-2.99,5.82-6.71l5.523,1.632l0.708,12.884L495.874,362.682z"/>
												</g>
												<g id="XMLID_519_">
													
														<rect id="XMLID_520_" x="487.374" y="361.567" transform="matrix(0.8802 0.4746 -0.4746 0.8802 230.5885 -189.4459)" style="fill:#62979B;" width="6.336" height="0.903"/>
													
														<rect id="XMLID_521_" x="473.304" y="361.567" transform="matrix(-0.8802 0.4746 -0.4746 -0.8802 1067.6782 454.5247)" style="fill:#62979B;" width="6.336" height="0.903"/>
												</g>
												<path id="XMLID_522_" style="fill:#8ABCB4;" d="M495.235,351.042h-24.102l0.708-12.884l5.512-1.632
													c0,3.72,4.028,6.71,5.832,6.71c1.849,0,5.82-2.99,5.82-6.71l5.523,1.632L495.235,351.042z"/>
												
													<polyline id="XMLID_523_" style="fill:none;stroke:#456870;stroke-width:0.25;stroke-linecap:round;stroke-linejoin:round;stroke-miterlimit:10;" points="
													483.183,340.69 483.183,343.236 483.183,367.74 483.183,370.786 												"/>
											</g>
										</g>
										<path id="XMLID_524_" style="fill:none;stroke:#548D93;stroke-width:0.5;stroke-miterlimit:10;" d="M482.961,329.575
											c1.715,1.046,1.806,2.176,0,3.407v1.918"/>
									</g>
									<g id="XMLID_525_">
										<rect id="XMLID_526_" x="481.661" y="328.385" style="fill:#457C89;" width="3.076" height="69.266"/>
										<rect id="XMLID_527_" x="475.987" y="397.651" style="fill:#2D5B70;" width="14.424" height="3.583"/>
									</g>
								</g>
								<g id="XMLID_528_">
									<g id="XMLID_529_">
										<g id="XMLID_530_">
											<polygon id="XMLID_531_" style="fill:none;stroke:#548D93;stroke-width:0.5;stroke-miterlimit:10;" points="
												426.298,338.743 433.826,335.51 442,338.743 											"/>
											<g id="XMLID_532_">
												<path id="XMLID_533_" style="fill:#6FA5A5;" d="M443.067,371.379h-17.488c-1.282,0-2.321-1.039-2.321-2.321v-3.688
													h22.131v3.688C445.388,370.34,444.349,371.379,443.067,371.379z"/>
												<g id="XMLID_534_">
													<polygon id="XMLID_535_" style="fill:#62979B;" points="454.1,364.263 455.798,369.198 449.539,371.066 
														446.794,366.756 													"/>
													<path id="XMLID_536_" style="fill:#7DB2AA;" d="M445.387,338.734l9.59,24.878c0.432,1.12-0.277,2.326-1.595,2.715
														l-4.608,1.358c-1.671,0.492-3.417-0.554-3.415-2.047L445.387,338.734z"/>
												</g>
												<g id="XMLID_537_">
													<polygon id="XMLID_538_" style="fill:#62979B;" points="414.23,364.263 412.532,369.198 418.791,371.066 
														421.536,366.756 													"/>
													<path id="XMLID_539_" style="fill:#7DB2AA;" d="M422.943,338.734l-9.59,24.878c-0.432,1.12,0.277,2.326,1.595,2.715
														l4.608,1.358c1.671,0.492,3.417-0.554,3.415-2.047L422.943,338.734z"/>
												</g>
												<g id="XMLID_540_">
													<path id="XMLID_541_" style="fill:#A1C9C1;" d="M446.724,363.037c0.147,2.725-2.013,5.009-4.738,5.009h-15.672
														c-2.725,0-4.896-2.284-4.738-5.009l0.633-11.533l0.701-12.766l5.461-1.617c0,3.686,3.991,6.648,5.778,6.648
														c1.832,0,5.767-2.962,5.767-6.648l5.473,1.617l0.701,12.766L446.724,363.037z"/>
												</g>
												<path id="XMLID_542_" style="fill:#7DB2AA;" d="M440.692,365.726h-12.743c-1.18,0-2.032-1.13-1.708-2.264l1.246-4.358
													c0.218-0.762,0.915-1.288,1.708-1.288h10.252c0.793,0,1.49,0.526,1.708,1.288l1.246,4.358
													C442.724,364.596,441.872,365.726,440.692,365.726z"/>
												<g id="XMLID_543_">
													<g id="XMLID_544_">
														<path id="XMLID_545_" style="fill:#6FA5A5;" d="M434.149,343.77c0,0,7.874-7.867,9.23-6.85
															c1.356,1.017,1.452,1.653,1.452,1.653S439.49,342.457,434.149,343.77z"/>
														<path id="XMLID_546_" style="fill:#7FB2AF;" d="M434.149,343.77c0,0,4.705-8.709,6.031-8.26
															c1.326,0.449,1.651,1.77,1.651,1.77C440.577,339.022,437.348,341.401,434.149,343.77z"/>
													</g>
													<g id="XMLID_547_">
														<path id="XMLID_548_" style="fill:#6FA5A5;" d="M434.165,343.77c0,0-7.874-7.867-9.23-6.85
															c-1.356,1.017-1.452,1.653-1.452,1.653S428.824,342.457,434.165,343.77z"/>
														<path id="XMLID_549_" style="fill:#7FB2AF;" d="M434.165,343.77c0,0-4.705-8.709-6.031-8.26
															c-1.326,0.449-1.651,1.77-1.651,1.77C427.737,339.022,430.967,341.401,434.165,343.77z"/>
													</g>
												</g>
												
													<polyline id="XMLID_550_" style="fill:none;stroke:#456870;stroke-width:0.25;stroke-linecap:round;stroke-linejoin:round;stroke-miterlimit:10;" points="
													434.149,341.247 434.149,343.77 434.149,368.048 434.149,371.066 												"/>
											</g>
										</g>
										<path id="XMLID_551_" style="fill:none;stroke:#548D93;stroke-width:0.5;stroke-miterlimit:10;" d="M433.93,330.234
											c1.7,1.036,1.79,2.156,0,3.375v1.9"/>
									</g>
									<g id="XMLID_552_">
										<rect id="XMLID_553_" x="432.641" y="329.055" style="fill:#457C89;" width="3.048" height="68.628"/>
										<rect id="XMLID_554_" x="427.02" y="397.684" style="fill:#2D5B70;" width="14.291" height="3.55"/>
									</g>
								</g>
							</g>
						</g>
						<g id="XMLID_555_">
							<g id="XMLID_556_">
								<rect id="XMLID_557_" x="253.439" y="263.089" style="fill:#73A7A8;" width="4.356" height="138.064"/>
								<rect id="XMLID_558_" x="253.439" y="263.089" style="fill:#5F969B;" width="4.356" height="5.735"/>
								<rect id="XMLID_559_" x="507.572" y="263.089" style="fill:#73A7A8;" width="4.356" height="138.064"/>
								<rect id="XMLID_560_" x="507.572" y="263.089" style="fill:#5F969B;" width="4.356" height="5.735"/>
							</g>
							<g id="XMLID_561_">
								<g id="XMLID_562_">
									<path id="XMLID_563_" style="fill:#86B7B5;" d="M264.829,254.257c0,2.898-4.059,10.655-9.066,10.655
										c-5.007,0-9.066-7.757-9.066-10.655S264.829,251.359,264.829,254.257z"/>
									<path id="XMLID_564_" style="fill:#86B7B5;" d="M282.96,254.257c0,2.898-4.059,10.655-9.066,10.655
										s-9.066-7.757-9.066-10.655S282.96,251.359,282.96,254.257z"/>
									<path id="XMLID_565_" style="fill:#86B7B5;" d="M301.092,254.257c0,2.898-4.059,10.655-9.066,10.655
										c-5.007,0-9.066-7.757-9.066-10.655S301.092,251.359,301.092,254.257z"/>
									<path id="XMLID_566_" style="fill:#86B7B5;" d="M319.223,254.257c0,2.898-4.059,10.655-9.066,10.655
										c-5.007,0-9.066-7.757-9.066-10.655S319.223,251.359,319.223,254.257z"/>
									<path id="XMLID_567_" style="fill:#86B7B5;" d="M337.355,254.257c0,2.898-4.059,10.655-9.066,10.655
										c-5.007,0-9.066-7.757-9.066-10.655S337.355,251.359,337.355,254.257z"/>
									<path id="XMLID_568_" style="fill:#86B7B5;" d="M355.486,254.257c0,2.898-4.059,10.655-9.066,10.655
										c-5.007,0-9.066-7.757-9.066-10.655S355.486,251.359,355.486,254.257z"/>
									<path id="XMLID_569_" style="fill:#86B7B5;" d="M373.618,254.257c0,2.898-4.059,10.655-9.066,10.655
										c-5.007,0-9.066-7.757-9.066-10.655S373.618,251.359,373.618,254.257z"/>
									<path id="XMLID_570_" style="fill:#86B7B5;" d="M391.749,254.257c0,2.898-4.059,10.655-9.066,10.655
										c-5.007,0-9.066-7.757-9.066-10.655S391.749,251.359,391.749,254.257z"/>
									<path id="XMLID_571_" style="fill:#86B7B5;" d="M409.881,254.257c0,2.898-4.059,10.655-9.066,10.655
										c-5.007,0-9.066-7.757-9.066-10.655S409.881,251.359,409.881,254.257z"/>
									<path id="XMLID_572_" style="fill:#86B7B5;" d="M428.012,254.257c0,2.898-4.059,10.655-9.066,10.655
										c-5.007,0-9.066-7.757-9.066-10.655S428.012,251.359,428.012,254.257z"/>
									<path id="XMLID_573_" style="fill:#86B7B5;" d="M446.143,254.257c0,2.898-4.059,10.655-9.066,10.655
										s-9.066-7.757-9.066-10.655S446.143,251.359,446.143,254.257z"/>
									<path id="XMLID_574_" style="fill:#86B7B5;" d="M464.275,254.257c0,2.898-4.059,10.655-9.066,10.655
										c-5.007,0-9.066-7.757-9.066-10.655S464.275,251.359,464.275,254.257z"/>
									<path id="XMLID_575_" style="fill:#86B7B5;" d="M482.406,254.257c0,2.898-4.059,10.655-9.066,10.655
										c-5.007,0-9.066-7.757-9.066-10.655S482.406,251.359,482.406,254.257z"/>
									<path id="XMLID_576_" style="fill:#86B7B5;" d="M500.538,254.257c0,2.898-4.059,10.655-9.066,10.655
										c-5.007,0-9.066-7.757-9.066-10.655S500.538,251.359,500.538,254.257z"/>
									<path id="XMLID_577_" style="fill:#86B7B5;" d="M518.669,254.257c0,2.898-4.059,10.655-9.066,10.655
										c-5.007,0-9.066-7.757-9.066-10.655S518.669,251.359,518.669,254.257z"/>
								</g>
								<g id="XMLID_578_">
									<path id="XMLID_579_" style="fill:#8BBCB8;" d="M246.697,246.748c51.434-14.912,139.042-56.363,139.042-56.363
										s87.978,43.486,132.93,56.363H246.697z"/>
									<rect id="XMLID_580_" x="246.697" y="243.778" style="fill:#8BBCB8;" width="271.972" height="10.639"/>
									<polygon id="XMLID_581_" style="fill:#A1C9C1;" points="518.669,245.853 246.697,249.097 246.697,243.778 518.669,243.778 
																			"/>
								</g>
							</g>
						</g>
					</g>
				</g>
				<g id="XMLID_887_">
					<g id="XMLID_875_">
						<g id="XMLID_870_">
							<path id="XMLID_872_" style="fill:#EF745D;" d="M184.296,335.66c0.145,0.338-0.283,13.794-0.283,13.794l3.17,0.823
								l2.598-11.839L184.296,335.66z"/>
							<path id="XMLID_871_" style="fill:#EF745D;" d="M186.694,348.745c0,0,2.635,2.551,2.635,4.87c0,2.319-0.155,2.988-0.541,2.73
								c-0.386-0.257-1.605-3.086-1.605-3.086s0.294,4.327,1.226,5.641c0.931,1.314-0.418,1.696-1.132,1.001
								c-0.714-0.696-1.871-3.252-1.871-3.252s0.345,1.049,0.621,1.842c0.309,0.888,0.537,1.535,0.21,1.617
								c-0.32,0.08-1.156-0.406-1.751-1.507c-0.555-1.026-0.88-2.624-0.954-3.795c-0.155-2.428,0.512-6.362,0.512-6.362
								L186.694,348.745z"/>
						</g>
						<g id="XMLID_869_">
							<path id="XMLID_866_" style="fill:#E99944;" d="M195.025,321.106l-3.046-6.561c0,0-3.327,1.341-5.41,6.785
								c-2.083,5.443-4.018,22.092-4.018,22.092l7.956,2.487L195.025,321.106z"/>
							<polygon id="XMLID_865_" style="fill:#F4C06E;" points="191.419,345.027 182.551,341.054 181.82,346.866 191.419,349.318 
															"/>
						</g>
						<g id="XMLID_874_">
							<g id="XMLID_873_">
								<g id="XMLID_849_">
									<polygon id="XMLID_851_" style="fill:#EF745D;" points="210.145,395.142 209.853,390.632 205.456,391.065 206.281,397.01 
																			"/>
									<path id="XMLID_850_" style="fill:#5D515D;" d="M210.145,395.142c-1.496-0.111-9.157,1.54-8.857,3.263
										c0.299,1.722,2.095,1.886,5.087,1.804c2.992-0.082,4.967,0.37,4.907-1.182
										C211.222,397.475,210.145,395.142,210.145,395.142z"/>
								</g>
								<g id="XMLID_846_">
									<path id="XMLID_848_" style="fill:#EF745D;" d="M196.662,396.329c0-0.248,0-6.255,0-6.255h-4.706l0.681,6.936
										L196.662,396.329z"/>
									<path id="XMLID_847_" style="fill:#5D515D;" d="M196.705,395.142c-2.047-0.111-12.528,1.54-12.118,3.263
										c0.409,1.722,2.866,1.886,6.96,1.804c4.094-0.082,6.796,0.37,6.714-1.182C198.179,397.475,196.705,395.142,196.705,395.142
										z"/>
								</g>
							</g>
							<g id="XMLID_839_">
								<path id="XMLID_843_" style="fill:#F1E1C7;" d="M190.853,336.685c0,0-2.072,9.348-1.884,17.276
									c0.188,7.928,1.884,38.02,1.884,38.02h6.555l1.168-39.988l6.141,40.253h5.774c0,0-0.801-30.012-0.989-38.284
									c-0.188-8.272-0.188-15.297-0.188-15.297L190.853,336.685z"/>
								<path id="XMLID_842_" style="fill:#E99944;" d="M191.979,314.545c1.649-0.765,16.721,0.642,18.186,2.096
									c1.466,1.454-1.132,27.394-1.132,27.394s-18.836,0.565-19.552,0.992C187.583,346.159,191.979,314.545,191.979,314.545z"/>
							</g>
						</g>
						<g id="XMLID_853_">
							<path id="XMLID_841_" style="fill:#F2B864;" d="M208.188,299.602c-0.364,3.77-3.788,6.525-7.647,6.152
								s-6.693-3.731-6.329-7.501c0.364-3.77,3.788-6.525,7.647-6.152C205.718,292.473,208.552,295.832,208.188,299.602z"/>
							<path id="XMLID_824_" style="fill:#E99944;" d="M217.876,303.301c-0.539,3.105-8.32,4.347-17.378,2.773
								c-9.058-1.574-15.964-5.367-15.424-8.472c0.54-3.105,8.32-4.347,17.378-2.773S218.416,300.196,217.876,303.301z"/>
							<g id="XMLID_825_">
								<g id="XMLID_826_">
									<path id="XMLID_838_" style="fill:#DB5846;" d="M193.438,304.353c-0.251,0.799,0.458,1.733,1.582,2.086
										c1.124,0.353,2.239-0.009,2.49-0.809c0.251-0.799-0.458-1.733-1.582-2.086S193.689,303.554,193.438,304.353z"/>
									<path id="XMLID_837_" style="fill:#EF745D;" d="M206.429,302.701c0,4.024-4.301,7.597-7.334,7.597
										c-3.033,0-3.651-3.573-3.651-7.597s2.459-7.286,5.492-7.286S206.429,298.677,206.429,302.701z"/>
									<path id="XMLID_836_" style="fill:#EF745D;" d="M204.585,304.246c-0.333,4.459-0.639,8.886,0.927,11.149
										c0,0-4.927,4.114-6.093,2.711c-1.166-1.403-1.59-3.61-1.59-3.61c2.082-1.299,2.3-4.598,2.388-8.036L204.585,304.246z"/>
									<path id="XMLID_835_" style="fill:#291D12;" d="M199.756,297.637c0.238-0.097,0.242,2.506,3.098,4.551l1.21,3.534
										l2.75-1.117c0,0,3.387-9.839-4.489-9.19c0,0-3.835-2.091-6.233,0c-2.398,2.091-0.552,5.936-0.552,5.936
										S197.135,298.698,199.756,297.637z"/>
									<path id="XMLID_834_" style="fill:#EF745D;" d="M203.858,306.519c0.332,0.769,1.478,1.014,2.56,0.548
										c1.082-0.467,1.691-1.469,1.359-2.238c-0.332-0.769-1.478-1.014-2.56-0.548
										C204.134,304.748,203.526,305.75,203.858,306.519z"/>
									<g id="XMLID_827_">
										<ellipse id="XMLID_833_" style="fill:#2C1B14;" cx="200.575" cy="304.316" rx="0.368" ry="0.597"/>
										<path id="XMLID_832_" style="fill:#2C1B14;" d="M195.954,304.042c0,0.33,0.165,0.597,0.368,0.597
											c0.203,0,0.368-0.267,0.368-0.597c0-0.33-0.165-0.597-0.368-0.597C196.119,303.444,195.954,303.712,195.954,304.042z"/>
										<path id="XMLID_831_" style="fill:#2C1B14;" d="M196.548,302.162c0.457-0.005,0.83,0.348,0.828,0.145
											c-0.002-0.203-0.371-0.671-0.828-0.666c-0.457,0.005-0.83,0.48-0.828,0.683
											C195.722,302.527,196.091,302.167,196.548,302.162z"/>
										<path id="XMLID_830_" style="fill:#2C1B14;" d="M200.843,302.162c0.457-0.005,0.83,0.348,0.828,0.145
											c-0.002-0.203-0.371-0.671-0.828-0.666c-0.457,0.005-0.83,0.48-0.828,0.683
											C200.017,302.527,200.386,302.167,200.843,302.162z"/>
										
											<path id="XMLID_829_" style="fill:none;stroke:#B52A2A;stroke-width:0.5;stroke-linecap:round;stroke-linejoin:round;stroke-miterlimit:10;" d="
											M197.701,304.042c0,0-0.216,1.623,0,1.911"/>
									</g>
								</g>
								<path id="XMLID_845_" style="fill:#291D12;" d="M203.285,303.444c0,0-0.168,4.211-2.085,4.787c0,0,0.362-1.41-1.411-1.658
									c-1.773-0.247-2.937-0.046-3.241,0.183c-0.304,0.228-0.428,1.217-0.428,1.217s-0.581-2.38-0.624-3.458
									c0,0-2.11,7.043,2.206,7.415c4.316,0.372,5.891-1.755,6.066-2.464c0.175-0.709,1.086-6.061,1.086-6.061L203.285,303.444z"/>
							</g>
							<path id="XMLID_840_" style="fill:#E99944;" d="M193.388,300.004c0,0,7.31-0.697,15.933,3.402
								c0.515-0.599,0.551-7.487-7.091-8.641c-1.835-0.277-3.467-0.45-4.669-0.182C193.315,295.53,192.815,299.326,193.388,300.004z
								"/>
						</g>
						<g id="XMLID_867_">
							<path id="XMLID_844_" style="fill:#F1E1C7;" d="M193.142,324.911c1.181-0.666,12.315-0.475,13.018,0.671
								c0.703,1.146,3.699,7.535,3.698,8.362c-0.001,0.826-0.5,11.31-0.5,11.31l-20.179,1.516c0,0-0.767-9.322,0.897-17.076
								C190.076,329.693,192.657,325.185,193.142,324.911z"/>
							<path id="XMLID_828_" style="fill:#F1E1C7;" d="M203.514,326.396c0,0,0.644-7.295,2.342-11.001
								c1.025,0.09,1.963,0.256,2.726,0.575c0,0-2.037,8.991-1.81,11.899L203.514,326.396z"/>
							<polygon id="XMLID_852_" style="fill:#F1E1C7;" points="196.063,325.185 197.387,314.29 194.066,314.29 192.663,326.396 
															"/>
							<path id="XMLID_855_" style="fill:none;stroke:#BCA68E;stroke-width:0.5;stroke-miterlimit:10;" d="M194.72,328.234
								l8.31,0.272c0,0-0.264,5.636-0.514,6.179c-0.25,0.543-4.093,1.954-4.514,1.86c-0.421-0.094-3.341-0.929-3.544-1.53
								C194.255,334.413,194.72,328.234,194.72,328.234z"/>
						</g>
						<g id="XMLID_868_">
							<path id="XMLID_863_" style="fill:#EF745D;" d="M218.195,336.835c-0.145,0.338,0.283,13.794,0.283,13.794l-3.17,0.823
								l-2.598-11.839L218.195,336.835z"/>
							<path id="XMLID_864_" style="fill:#EF745D;" d="M215.797,349.919c0,0-2.635,2.551-2.635,4.87c0,2.319,0.155,2.988,0.541,2.73
								c0.386-0.257,1.605-3.086,1.605-3.086s-0.294,4.327-1.226,5.641c-0.931,1.314,0.418,1.696,1.131,1.001
								c0.714-0.696,1.871-3.252,1.871-3.252s-0.345,1.049-0.621,1.842c-0.309,0.888-0.537,1.535-0.21,1.617
								c0.32,0.08,1.156-0.406,1.751-1.507c0.555-1.026,0.88-2.624,0.954-3.795c0.154-2.428-0.512-6.362-0.512-6.362
								L215.797,349.919z"/>
						</g>
						<g id="XMLID_860_">
							<path id="XMLID_854_" style="fill:#E99944;" d="M208.582,320.343l1.584-3.702c0,0,3.298,2.799,4.57,6.06
								c1.272,3.261,5.41,19.686,5.41,19.686l-8.484,4.27l-3.079-19.137V320.343z"/>
							<g id="XMLID_857_">
								<path id="XMLID_856_" style="fill:#F4C06E;" d="M209.858,344.259c0.47,0.268,1.803,3.504,1.803,3.504l9.096-4.497
									l-1.109-5.708L209.858,344.259z"/>
							</g>
						</g>
					</g>
					<g id="XMLID_753_">
						<g id="XMLID_411_">
							<rect id="XMLID_412_" x="63.224" y="365.89" style="fill:#8BBCB8;" width="153.933" height="2.712"/>
							<path id="XMLID_413_" style="fill:#8BBCB8;" d="M66.822,368.6v32.633h146.737V368.6H66.822z M208.023,401.188H72.359"/>
							<rect id="XMLID_416_" x="66.824" y="368.602" style="fill:#74A6AA;" width="146.734" height="2.712"/>
						</g>
						<g id="XMLID_665_">
							<g id="XMLID_664_">
								<g id="XMLID_659_">
									<g id="XMLID_658_">
										<path id="XMLID_649_" style="fill:#B4D8D3;" d="M218.006,316.875c0.446-1.888-0.668-3.868-2.228-5.021
											c-1.56-1.153-3.494-1.652-5.375-2.128c-0.373,1.93,0.255,4.027,1.628,5.434c1.373,1.408,3.453,2.088,5.392,1.763"/>
										<path id="XMLID_650_" style="fill:#B4D8D3;" d="M219.57,320.109c-0.95-3.069-0.009-6.641,2.328-8.845
											c0.611,1.126,1.2,2.284,1.464,3.538c0.264,1.253,0.174,2.628-0.505,3.715s-2.02,1.801-3.268,1.51"/>
										<path id="XMLID_651_" style="fill:#B4D8D3;" d="M221.215,324.569c-1.394-1.358-3.282-2.199-5.224-2.327
											c-1.942-0.128-3.923,0.458-5.484,1.621c1.551,1.069,3.201,2.09,5.053,2.434c1.852,0.343,3.964-0.125,5.133-1.601"/>
										<path id="XMLID_652_" style="fill:#B4D8D3;" d="M222.833,328.625c-0.495-3.259,1.458-6.732,4.5-8.002
											c0.221,1.829,0.356,3.743-0.315,5.458c-0.672,1.715-2.378,3.159-4.207,2.942"/>
										<path id="XMLID_653_" style="fill:#B4D8D3;" d="M223.678,332.375c-2.334-1.402-5.312-1.678-7.865-0.728
											c-0.224,0.083-0.469,0.2-0.546,0.427c-0.088,0.261,0.09,0.532,0.268,0.743c1.102,1.312,2.657,2.344,4.369,2.419
											c1.712,0.075,3.52-1.017,3.896-2.689"/>
										<path id="XMLID_654_" style="fill:#B4D8D3;" d="M225.077,336.512c0.071-3.254,2.39-6.337,5.497-7.308
											c0.011,1.776-0.129,3.628-1.023,5.163c-0.894,1.535-2.736,2.645-4.449,2.179"/>
										<path id="XMLID_655_" style="fill:#B4D8D3;" d="M226.209,339.774c-2.863-1.648-6.66-1.514-9.4,0.331
											c1.246,1.076,2.866,1.711,4.511,1.768c1.645,0.057,3.305-0.463,4.623-1.45"/>
										<path id="XMLID_656_" style="fill:#B4D8D3;" d="M226.917,344.295c0.016-1.484,0.573-2.957,1.543-4.08
											c0.971-1.123,2.347-1.888,3.813-2.118c0.072,1.443-0.394,2.907-1.287,4.043c-0.893,1.136-2.205,1.934-3.624,2.205"/>
										<path id="XMLID_657_" style="fill:#B4D8D3;" d="M227.67,348.156c-1.332-1.122-3.177-1.507-4.909-1.32
											c-1.731,0.188-3.367,0.899-4.878,1.763c0.706,0.872,1.761,1.416,2.856,1.659c1.096,0.244,2.235,0.209,3.35,0.081
											c0.721-0.082,1.456-0.21,2.081-0.578c0.625-0.368,1.125-1.024,1.122-1.75"/>
									</g>
									
										<path id="XMLID_618_" style="fill:none;stroke:#6FA5A5;stroke-width:0.5;stroke-linecap:round;stroke-linejoin:round;stroke-miterlimit:10;" d="
										M217.161,315.149c0,0,11.261,22.684,12.461,48.14"/>
								</g>
								<g id="XMLID_661_">
									<g id="XMLID_660_">
										<path id="XMLID_638_" style="fill:#B4D8D3;" d="M238.601,302.573c-1.053-2.042-1.056-4.592-0.008-6.637
											c1.048-2.045,3.12-3.531,5.393-3.869c-0.826,1.468-0.804,3.246-1.225,4.877c-0.598,2.315-2.153,4.367-4.22,5.569"/>
										<path id="XMLID_639_" style="fill:#B4D8D3;" d="M238.441,306.208c-0.02-0.768,0.432-1.491,1.036-1.966
											c0.603-0.476,1.344-0.74,2.081-0.957c1.848-0.544,3.77-0.84,5.696-0.877c-0.206,1.991-1.532,3.828-3.356,4.651
											c-1.825,0.823-4.079,0.6-5.708-0.563"/>
										<path id="XMLID_640_" style="fill:#B4D8D3;" d="M237.312,310.015c0.635-1.693-0.086-3.654-1.322-4.974
											c-1.236-1.32-2.905-2.132-4.535-2.914c-0.417,1.822-0.27,3.86,0.824,5.376c1.094,1.516,3.276,2.301,4.939,1.448"/>
										<path id="XMLID_641_" style="fill:#B4D8D3;" d="M237.171,312.876c0.747-1.819,2.614-2.983,4.535-3.403
											c1.921-0.42,3.916-0.213,5.871-0.004c-0.969,1.75-2.589,3.13-4.471,3.808c-1.882,0.678-4.01,0.648-5.873-0.083"/>
										<path id="XMLID_642_" style="fill:#B4D8D3;" d="M236.142,317.941c0.328-1.728-0.797-3.474-2.291-4.403
											c-1.494-0.929-3.289-1.211-5.034-1.441c-0.087,1.843,0.845,3.702,2.373,4.736s3.601,1.207,5.279,0.441"/>
										<path id="XMLID_643_" style="fill:#B4D8D3;" d="M235.723,322.222c0.595-1.761,1.887-3.277,3.533-4.141
											c1.646-0.865,3.627-1.07,5.415-0.56c-0.601,1.623-1.799,3.018-3.313,3.858c-1.514,0.84-3.331,1.117-5.026,0.767"/>
										<path id="XMLID_644_" style="fill:#B4D8D3;" d="M234.961,327.298c0.079-1.534-1.083-2.914-2.471-3.574
											c-1.387-0.66-2.967-0.749-4.501-0.828c0.156,1.565,1.061,3.038,2.386,3.885c1.325,0.847,3.042,1.048,4.528,0.532"/>
										<path id="XMLID_645_" style="fill:#B4D8D3;" d="M234.874,330.118c0.906-2.52,3.655-4.239,6.317-3.952
											c-0.274,1.003-0.553,2.017-1.063,2.923c-0.51,0.906-1.283,1.707-2.269,2.035c-0.986,0.328-2.194,0.093-2.834-0.726"/>
										<path id="XMLID_646_" style="fill:#B4D8D3;" d="M234.419,334.889c-0.711-1.24-1.929-2.127-3.241-2.696
											c-1.312-0.569-2.727-0.851-4.129-1.129c0.147,1.678,1.141,3.26,2.589,4.121c1.448,0.86,3.313,0.977,4.857,0.304"/>
										<path id="XMLID_647_" style="fill:#B4D8D3;" d="M233.731,340.348c1.592-2.79,4.883-4.514,8.084-4.233
											c-0.396,1.083-0.865,2.154-1.574,3.063c-0.709,0.909-1.683,1.65-2.808,1.898c-1.126,0.248-2.404-0.063-3.16-0.933"/>
										<path id="XMLID_648_" style="fill:#B4D8D3;" d="M233.693,346.898c-0.462-1.588-1.951-2.709-3.536-3.183
											s-3.273-0.41-4.926-0.341c0.767,1.406,2.034,2.534,3.52,3.133c1.486,0.599,3.18,0.666,4.708,0.186"/>
									</g>
									
										<path id="XMLID_617_" style="fill:none;stroke:#6FA5A5;stroke-width:0.5;stroke-linecap:round;stroke-linejoin:round;stroke-miterlimit:10;" d="
										M239.021,301.55c0,0-7.6,38.483-4.6,61.739"/>
								</g>
								<g id="XMLID_663_">
									<g id="XMLID_662_">
										<path id="XMLID_596_" style="fill:#B4D8D3;" d="M257.05,314.127c-1.328-1.389-1.321-3.692-0.381-5.368
											c0.939-1.677,2.62-2.813,4.366-3.616c0.28,1.881,0.557,3.827,0.051,5.66c-0.506,1.833-2.015,3.532-3.914,3.628"/>
										<path id="XMLID_628_" style="fill:#B4D8D3;" d="M254.542,317.453c0.563-2.788-1.125-5.86-3.78-6.88
											c-0.401,1.094-0.67,2.254-0.6,3.417c0.07,1.163,0.505,2.331,1.346,3.136c0.841,0.805,2.116,1.19,3.222,0.823"/>
										<path id="XMLID_629_" style="fill:#B4D8D3;" d="M252.915,321.014c0.971-1.099,2.39-1.791,3.855-1.88
											c1.464-0.088,2.956,0.428,4.053,1.402c-0.953,1.19-2.417,1.957-3.938,2.063c-1.521,0.106-3.077-0.452-4.185-1.499"/>
										<path id="XMLID_630_" style="fill:#B4D8D3;" d="M250.548,325.97c0.479-2.744-0.992-5.716-3.465-6.999
											c-0.235-0.122-0.525-0.229-0.754-0.096c-0.178,0.104-0.255,0.319-0.305,0.519c-0.339,1.354-0.073,2.848,0.713,4.002
											s2.078,1.949,3.463,2.129"/>
										<path id="XMLID_631_" style="fill:#B4D8D3;" d="M248.94,328.915c0.942-1.454,2.768-2.156,4.5-2.119
											c1.732,0.036,3.388,0.708,4.924,1.507c-1.512,0.867-3.06,1.747-4.771,2.077c-1.712,0.329-3.648,0.013-4.861-1.238"/>
										<path id="XMLID_632_" style="fill:#B4D8D3;" d="M246.324,334.239c0.002-3.18-2.145-6.251-5.132-7.342
											c0.037,1.631,0.236,3.304,1.005,4.742c0.769,1.439,2.207,2.607,3.837,2.67"/>
										<path id="XMLID_633_" style="fill:#B4D8D3;" d="M245.609,336.105c0.998-1.193,2.7-1.605,4.243-1.418
											c1.544,0.187,2.973,0.886,4.356,1.598c0.285,0.147,0.615,0.382,0.558,0.697c-0.027,0.147-0.137,0.264-0.246,0.366
											c-1.191,1.12-2.909,1.655-4.525,1.41c-1.617-0.245-3.098-1.266-3.903-2.689"/>
										<path id="XMLID_634_" style="fill:#B4D8D3;" d="M242.763,342.381c0.002-1.568-0.568-3.13-1.579-4.329
											c-1.011-1.199-2.454-2.025-4-2.289c-0.033,1.192-0.036,2.398,0.245,3.557c0.28,1.159,0.872,2.28,1.833,2.985
											c0.961,0.706,2.324,0.921,3.369,0.347"/>
										<path id="XMLID_635_" style="fill:#B4D8D3;" d="M241.768,345.406c1.262-1.05,2.942-1.584,4.579-1.456
											c1.637,0.129,3.213,0.918,4.295,2.153c-1.184,1.162-2.841,1.829-4.5,1.812c-1.659-0.017-3.301-0.718-4.462-1.904"/>
										<path id="XMLID_636_" style="fill:#B4D8D3;" d="M239.818,350.762c-0.152-2.929-2.246-5.662-5.035-6.571
											c-0.214,1.617-0.165,3.343,0.626,4.77c0.792,1.426,2.488,2.442,4.067,2.033"/>
										<path id="XMLID_637_" style="fill:#B4D8D3;" d="M239.065,352.698c0.982-1.377,2.582-2.215,4.229-2.599
											c1.647-0.384,3.359-0.358,5.049-0.307c-0.837,1.633-2.345,2.91-4.093,3.467c-1.749,0.557-3.717,0.386-5.344-0.462"/>
									</g>
									
										<path id="XMLID_615_" style="fill:none;stroke:#6FA5A5;stroke-width:0.5;stroke-linecap:round;stroke-linejoin:round;stroke-miterlimit:10;" d="
										M257.02,313.949c0,0-20.199,32.409-20.999,56.925"/>
								</g>
							</g>
							<g id="XMLID_585_">
								<g id="XMLID_584_">
									<polygon id="XMLID_583_" style="fill:#B4D8D3;" points="249.565,365.73 217.158,365.73 222.205,354.301 244.518,354.301 
																			"/>
									<polygon id="XMLID_612_" style="fill:#A1C9C1;" points="249.571,365.726 249.127,368.819 248.543,372.928 247.862,377.719 
										247.721,378.681 246.132,389.82 245.342,395.389 244.52,401.153 222.2,401.153 221.378,395.389 220.589,389.82 
										218.999,378.681 218.869,377.719 218.188,372.928 217.604,368.819 217.161,365.726 									"/>
								</g>
								<polygon id="XMLID_593_" style="fill:#B4D8D3;" points="217.604,368.819 249.127,368.819 248.543,372.928 218.188,372.928 
																	"/>
								<polygon id="XMLID_590_" style="fill:#B4D8D3;" points="218.869,377.719 247.862,377.719 247.721,378.681 218.999,378.681 
																	"/>
								<polygon id="XMLID_595_" style="fill:#B4D8D3;" points="246.132,389.82 245.342,395.389 221.378,395.389 220.589,389.82 
																	"/>
							</g>
						</g>
						<g id="XMLID_730_">
							<g id="XMLID_729_">
								<g id="XMLID_675_">
									<g id="XMLID_674_">
										<path id="XMLID_668_" style="fill:#72AAAA;" d="M195.412,348.853c0.118,0.243,2.87-7.117,11.148-9.311
											c0,0-4.636,7.195-3.974,12.605l-8.385,4.331l-6.737-2.063c0,0,0.331-10.747-6.292-15.839
											C181.173,338.576,190.445,338.613,195.412,348.853z"/>
										
											<path id="XMLID_671_" style="fill:none;stroke:#CCE1E2;stroke-width:0.5;stroke-linecap:round;stroke-linejoin:round;stroke-miterlimit:10;" d="
											M184.377,340.186c4.062,3.292,6.357,8.647,5.94,13.859"/>
										
											<path id="XMLID_672_" style="fill:none;stroke:#CCE1E2;stroke-width:0.5;stroke-linecap:round;stroke-linejoin:round;stroke-miterlimit:10;" d="
											M203.919,342.303c-3.985,3.032-6.536,7.872-6.785,12.874"/>
									</g>
									<g id="XMLID_673_">
										<path id="XMLID_667_" style="fill:#A1C9C1;" d="M185.748,359.77c0,0,0.366-6.964-9.551-15.435
											c0,0,9.913,0.508,13.667,8.471c0,0,0.339-10.634,10.164-14.871c0,0-4.394,11.59-1.941,14.871c0,0,4.111-7.88,14.121-9.654
											c0,0-10.725,9.048-6.971,16.062L185.748,359.77z"/>
										
											<path id="XMLID_669_" style="fill:none;stroke:#CCE1E2;stroke-width:0.5;stroke-linecap:round;stroke-linejoin:round;stroke-miterlimit:10;" d="
											M208.591,345.32c0,0-9.183,6.016-9.635,13.78"/>
										
											<path id="XMLID_670_" style="fill:none;stroke:#CCE1E2;stroke-width:0.5;stroke-linecap:round;stroke-linejoin:round;stroke-miterlimit:10;" d="
											M197.78,340.597c0,0-6.054,9.448-4.595,18.504"/>
										
											<path id="XMLID_666_" style="fill:none;stroke:#CCE1E2;stroke-width:0.5;stroke-linecap:round;stroke-linejoin:round;stroke-miterlimit:10;" d="
											M179.552,346.146c4.245,2.604,7.628,6.589,9.508,11.201"/>
									</g>
								</g>
								<g id="XMLID_586_">
									<path id="XMLID_600_" style="fill:#B4D8D3;" d="M211.176,355.839v1.127c0,0.2-0.007,0.399-0.021,0.592
										c-0.307,4.495-4.046,8.055-8.626,8.055h-15.305c-4.574,0-8.32-3.56-8.626-8.055c-0.014-0.193-0.021-0.392-0.021-0.592
										v-1.127H211.176z"/>
									<rect id="XMLID_587_" x="176.197" y="354.121" style="fill:#B4D8D3;" width="37.361" height="1.718"/>
									<path id="XMLID_598_" style="fill:#95C5C6;" d="M211.176,355.839v1.127c0,0.2-0.007,0.399-0.021,0.592h-32.558
										c-0.014-0.193-0.021-0.392-0.021-0.592v-1.127H211.176z"/>
								</g>
							</g>
							<g id="XMLID_692_">
								<g id="XMLID_691_">
									<g id="XMLID_686_">
										<path id="XMLID_680_" style="fill:#72AAAA;" d="M160.24,339.47c0.24-1.5,0.727-2.983,0.643-4.5
											c-0.085-1.533-0.752-2.996-0.784-4.532c-0.043-2.057,1.039-4.219,0.178-6.088c-0.394-0.855-1.173-1.565-1.248-2.503
											c-0.06-0.749,0.35-1.444,0.568-2.163c0.509-1.67-0.107-3.624-1.481-4.7c3.069,0.645,5.289,3.996,4.686,7.073
											c-0.061,0.313-0.147,0.636-0.07,0.946c0.103,0.409,0.462,0.693,0.788,0.962c0.969,0.803,1.856,1.853,1.961,3.106
											c0.141,1.689-1.168,3.347-0.696,4.975c0.166,0.574,0.538,1.061,0.832,1.58c0.809,1.432,1.026,3.188,0.588,4.773
											c-0.395,1.431-1.303,2.833-0.979,4.282c0.109,0.485,0.351,0.93,0.502,1.403c0.434,1.362,0.072,2.878-0.647,4.114
											c-0.719,1.236-1.763,2.244-2.794,3.235c1.187-1.141,0.018-5.096-0.532-6.296
											C160.826,343.106,159.859,341.859,160.24,339.47z"/>
										
											<path id="XMLID_685_" style="fill:none;stroke:#AFD3CC;stroke-width:0.5;stroke-linecap:round;stroke-linejoin:round;stroke-miterlimit:10;" d="
											M161.285,319.742c0.599,1.702-0.59,3.638-0.033,5.354c0.373,1.149,1.468,1.971,1.767,3.141
											c0.43,1.681-0.915,3.324-0.924,5.059c-0.009,1.806,1.422,3.371,1.463,5.177c0.031,1.367-0.745,2.659-0.699,4.025
											c0.027,0.81,0.341,1.578,0.524,2.368c0.308,1.328,0.239,2.742-0.197,4.034"/>
									</g>
									<g id="XMLID_688_">
										<path id="XMLID_678_" style="fill:#8ABCB8;" d="M157.606,346.696c-0.149-1.429-0.124-2.906-0.64-4.247
											c-0.385-0.999-1.056-1.881-1.331-2.916c-0.589-2.218,0.72-4.806-0.466-6.77c-0.503-0.833-1.403-1.42-1.719-2.341
											c-0.206-0.6-0.132-1.254-0.16-1.887c-0.082-1.83-1.103-3.593-2.649-4.575c1.314-0.002,2.661,0.148,3.832,0.744
											c1.171,0.595,2.143,1.703,2.295,3.008c0.059,0.508-0.004,1.031,0.121,1.527c0.414,1.643,2.562,2.183,3.423,3.643
											c1.093,1.854-0.264,4.444,0.829,6.298c0.247,0.419,0.606,0.768,0.829,1.2c0.86,1.669-0.592,3.725-0.104,5.538
											c0.117,0.435,0.341,0.832,0.509,1.25c1.075,2.681-0.294,5.661-1.633,8.22c0.521-0.997-1.077-3.516-1.543-4.38
											C158.436,349.595,157.776,348.327,157.606,346.696z"/>
										
											<path id="XMLID_683_" style="fill:none;stroke:#AFD3CC;stroke-width:0.5;stroke-linecap:round;stroke-linejoin:round;stroke-miterlimit:10;" d="
											M153.828,325.842c0.71,0.816,1.21,1.814,1.438,2.872c0.124,0.575,0.173,1.18,0.444,1.702
											c0.474,0.913,1.521,1.385,2.12,2.222c1.27,1.773,0.099,4.31,0.735,6.396c0.413,1.353,1.588,2.515,1.477,3.926
											c-0.055,0.704-0.437,1.366-0.405,2.072c0.032,0.716,0.48,1.335,0.815,1.969c0.881,1.667,1.018,3.71,0.368,5.48
											c-0.15,0.038-0.277-0.191-0.166-0.299"/>
									</g>
									<g id="XMLID_687_">
										<path id="XMLID_679_" style="fill:#8ABCB8;" d="M168.752,348.02c0.7-1.881,0.897-3.947,0.567-5.927
											c-0.101-0.603-0.249-1.221-0.118-1.819c0.211-0.958,1.076-1.617,1.558-2.472c1.455-2.581-0.883-6.076,0.485-8.704
											c0.299-0.574,0.755-1.052,1.063-1.621c0.648-1.196,0.575-2.632,0.723-3.984c0.148-1.352,0.688-2.853,1.956-3.346
											c-2.749,0.729-5.111,2.789-6.207,5.413c-0.724,1.733-0.964,3.751-2.258,5.112c-0.549,0.578-1.273,1.015-1.643,1.72
											c-0.978,1.861,1.056,4.157,0.397,6.153c-0.382,1.156-1.574,1.879-2.032,3.007c-0.728,1.793,0.637,3.791,0.418,5.714
											c-0.184,1.613-1.464,3.213-0.804,4.695c0.277,0.621,0.849,1.059,1.206,1.638c0.564,0.915,0.528,2.06,0.741,3.113
											c0.213,1.053,0.908,2.2,1.982,2.222C165.683,354.882,167.385,351.694,168.752,348.02z"/>
										
											<path id="XMLID_684_" style="fill:none;stroke:#AFD3CC;stroke-width:0.5;stroke-linecap:round;stroke-linejoin:round;stroke-miterlimit:10;" d="
											M171.531,324.782c-1.497,1.491-2.396,3.566-2.459,5.677c-0.036,1.186,0.172,2.428-0.287,3.522
											c-0.391,0.931-1.232,1.65-1.479,2.629c-0.29,1.153,0.296,2.476-0.284,3.514c-0.32,0.572-0.925,0.914-1.38,1.387
											c-1.141,1.186-1.203,3.016-1.136,4.66c0.067,1.644,0.157,3.433-0.796,4.775"/>
									</g>
									<g id="XMLID_690_">
										<path id="XMLID_677_" style="fill:#AFD3CC;" d="M164.297,350.034c0.289-0.622,0.715-1.177,0.948-1.822
											c0.402-1.113,0.181-2.339,0.136-3.521c-0.045-1.182,0.179-2.523,1.151-3.199c0.686-0.477,1.593-0.508,2.327-0.908
											c2.116-1.153,1.788-4.583,3.719-6.026c1.407-1.052,3.413-0.615,5.082-1.162c0.991-0.325,1.83-0.987,2.754-1.471
											c0.924-0.484,2.055-0.784,2.997-0.337c-2.702,0.6-2.938,4.687-5.33,6.08c-0.683,0.398-1.521,0.556-2.078,1.117
											c-0.733,0.738-0.751,1.932-1.327,2.798c-1.007,1.514-3.595,1.917-3.756,3.728c-0.066,0.744,0.356,1.47,0.277,2.214
											c-0.129,1.217-1.439,1.866-2.432,2.581c-2.466,1.774-3.554,5.243-2.542,8.107c-0.042-0.12-1.465-0.556-1.715-1.053
											c-0.267-0.531-0.186-1.257-0.266-1.841C163.993,353.501,163.473,351.809,164.297,350.034z"/>
										
											<path id="XMLID_681_" style="fill:none;stroke:#72AAAA;stroke-width:0.5;stroke-linecap:round;stroke-linejoin:round;stroke-miterlimit:10;" d="
											M178.714,334.096c-0.788,1.073-1.923,1.888-3.192,2.292c-0.596,0.19-1.247,0.306-1.715,0.72
											c-0.731,0.648-0.761,1.778-1.278,2.606c-0.536,0.858-1.524,1.296-2.417,1.772c-0.893,0.476-1.818,1.142-2.008,2.136
											c-0.17,0.888,0.302,1.78,0.269,2.684c-0.031,0.854-0.504,1.617-0.871,2.388c-0.368,0.771-0.637,1.693-0.263,2.461"/>
									</g>
									<g id="XMLID_689_">
										<path id="XMLID_676_" style="fill:#AFD3CC;" d="M159.173,347.539c-0.41-0.806-0.943-1.566-1.154-2.446
											c-0.438-1.826,0.57-3.922-0.371-5.548c-0.784-1.354-2.613-1.775-3.513-3.054c-0.372-0.529-0.555-1.163-0.818-1.754
											c-1.133-2.55-3.941-4.253-6.726-4.079c0.518,2.079,2.715,3.464,3.084,5.575c0.195,1.115-0.147,2.339,0.368,3.346
											c0.606,1.185,2.232,1.7,2.564,2.989c0.197,0.763-0.137,1.586,0.046,2.353c0.282,1.179,1.63,1.767,2.226,2.822
											c0.855,1.514-0.034,3.565,0.801,5.09c0.473,0.864,1.401,1.369,2.047,2.113c0.928,1.071,1.201,2.669,0.68,3.988
											c0.812-0.529,1.621-1.137,2.064-1.998c0.722-1.402-0.348-2.591-0.39-3.96C160.021,351.018,160.1,349.363,159.173,347.539z
											"/>
										
											<path id="XMLID_682_" style="fill:none;stroke:#72AAAA;stroke-width:0.5;stroke-linecap:round;stroke-linejoin:round;stroke-miterlimit:10;" d="
											M150.04,333.481c0.718,0.587,1.462,1.207,1.83,2.059c0.492,1.137,0.259,2.566,1.035,3.531
											c0.592,0.736,1.634,1.001,2.208,1.751c1.088,1.421-0.094,3.554,0.516,5.237c0.366,1.011,1.309,1.676,2.006,2.495
											c1.001,1.178,1.508,2.762,1.378,4.303"/>
									</g>
								</g>
								<g id="XMLID_588_">
									<path id="XMLID_616_" style="fill:#B4D8D3;" d="M173.331,349.913v8.118c0,4.187-3.395,7.582-7.582,7.582h-6.166
										c-4.187,0-7.573-3.395-7.573-7.582v-8.118H173.331z"/>
									<rect id="XMLID_589_" x="151.213" y="347.684" style="fill:#B4D8D3;" width="22.913" height="2.234"/>
									<rect id="XMLID_599_" x="152.01" y="349.913" style="fill:#95C5C6;" width="21.321" height="2.234"/>
								</g>
							</g>
							<g id="XMLID_727_">
								<g id="XMLID_715_">
									<path id="XMLID_702_" style="fill:#72AAAA;" d="M103.281,350.529c-3.186-3.711-5.637-8.049-7.171-12.693
										c-0.49-1.484-0.888-3.1-0.42-4.592c0.467-1.492,2.117-2.711,3.585-2.173c0.838,0.307,1.404,1.075,1.911,1.81
										c2.452,3.551,4.754,7.371,5.401,11.638c-0.738-4.618-0.855-9.418,0.452-13.908c0.303-1.041,0.697-2.088,1.417-2.898
										c0.72-0.811,1.829-1.349,2.893-1.135c0.878,0.176,1.601,0.834,2.047,1.61c0.446,0.776,0.652,1.664,0.816,2.544
										c0.841,4.509,0.7,9.315-1.184,13.497c0.645-2.324,1.303-4.678,2.522-6.758c1.171-1.998,2.849-3.696,4.832-4.891
										c0.855-0.516,1.984-0.928,2.805-0.36c0.545,0.377,0.763,1.073,0.87,1.727c0.447,2.716-0.389,5.493-1.602,7.963
										c-1.734,3.532-4.264,6.671-7.347,9.116L103.281,350.529z"/>
									<g id="XMLID_714_">
										
											<path id="XMLID_705_" style="fill:none;stroke:#AFD3CC;stroke-width:0.5;stroke-linecap:round;stroke-linejoin:round;stroke-miterlimit:10;" d="
											M120.918,335.74c-2.491,5.116-5.13,10.159-7.914,15.122"/>
										
											<path id="XMLID_707_" style="fill:none;stroke:#AFD3CC;stroke-width:0.5;stroke-linecap:round;stroke-linejoin:round;stroke-miterlimit:10;" d="
											M116.394,337.625c0.394,1.367,0.836,2.721,1.324,4.057"/>
										
											<path id="XMLID_708_" style="fill:none;stroke:#AFD3CC;stroke-width:0.5;stroke-linecap:round;stroke-linejoin:round;stroke-miterlimit:10;" d="
											M116.757,343.762c1.348-0.01,2.695-0.188,4-0.528"/>
									</g>
									<g id="XMLID_713_">
										
											<path id="XMLID_703_" style="fill:none;stroke:#AFD3CC;stroke-width:0.5;stroke-linecap:round;stroke-linejoin:round;stroke-miterlimit:10;" d="
											M110.929,330.907c0.003,6.838,0.006,13.676,0.009,20.515"/>
										
											<path id="XMLID_706_" style="fill:none;stroke:#AFD3CC;stroke-width:0.5;stroke-linecap:round;stroke-linejoin:round;stroke-miterlimit:10;" d="
											M107.84,335.203c0.945,1.361,1.889,2.723,2.834,4.084c0.032,0.046,0.073,0.098,0.13,0.098c0.057,0,0.09-0.096,0.036-0.11"
											/>
										
											<path id="XMLID_709_" style="fill:none;stroke:#AFD3CC;stroke-width:0.5;stroke-linecap:round;stroke-linejoin:round;stroke-miterlimit:10;" d="
											M111.223,336.457c0.561-0.387,1.162-0.717,1.79-0.983"/>
									</g>
									<g id="XMLID_712_">
										
											<path id="XMLID_704_" style="fill:none;stroke:#AFD3CC;stroke-width:0.5;stroke-linecap:round;stroke-linejoin:round;stroke-miterlimit:10;" d="
											M99.481,335.715c2.744,5.171,5.396,10.392,7.954,15.658"/>
										
											<path id="XMLID_710_" style="fill:none;stroke:#AFD3CC;stroke-width:0.5;stroke-linecap:round;stroke-linejoin:round;stroke-miterlimit:10;" d="
											M104.312,339.45c-0.062,1.485-0.104,2.859-0.604,4.047"/>
										
											<path id="XMLID_711_" style="fill:none;stroke:#AFD3CC;stroke-width:0.5;stroke-linecap:round;stroke-linejoin:round;stroke-miterlimit:10;" d="
											M102.391,341.285c-1.118-0.212-2.962-0.471-4.08-0.683"/>
									</g>
								</g>
								<g id="XMLID_597_">
									<path id="XMLID_613_" style="fill:#B4D8D3;" d="M120.968,349.963v8.118c0,4.187-3.395,7.582-7.582,7.582h-6.166
										c-4.187,0-7.573-3.395-7.573-7.582v-8.118H120.968z"/>
									<rect id="XMLID_611_" x="98.849" y="347.733" style="fill:#B4D8D3;" width="22.913" height="2.234"/>
									<rect id="XMLID_610_" x="99.647" y="349.963" style="fill:#95C5C6;" width="21.321" height="2.234"/>
								</g>
							</g>
							<g id="XMLID_728_">
								<g id="XMLID_701_">
									<path id="XMLID_693_" style="fill:#AFD3CC;" d="M136.779,330.625c-0.962-1.775-1.704-3.684-3.301-4.918
										c-1.598-1.234-3.464-2.062-5.311-2.878c0.904,1.636,1.272,3.563,1.034,5.417c-0.103,0.799-0.213,1.598-0.379,2.387
										c-0.701,3.327,4.379,8.466,5.481,7.232C135.654,338.622,138.233,333.305,136.779,330.625z"/>
									
										<path id="XMLID_694_" style="fill:none;stroke:#72AAAA;stroke-width:0.5;stroke-linecap:round;stroke-linejoin:round;stroke-miterlimit:10;" d="
										M132.145,328.898c0,0,5.142,16.651,4.201,28.449"/>
									<path id="XMLID_695_" style="fill:#AFD3CC;" d="M135.678,337.899c0.594-1.294,1.626-2.337,2.728-3.237
										c0.7-0.572,1.437-1.099,2.201-1.582c0.906-0.575,1.914-1.16,2.315-2.156c0.228,1.838,0.22,3.706-0.023,5.542
										c-0.076,0.576-0.177,1.152-0.385,1.694c-0.69,1.795-2.449,2.949-4.219,3.7c-1.01,0.429-2.763,0.443-2.763,0.443
										S135.193,338.955,135.678,337.899z"/>
									<path id="XMLID_696_" style="fill:#AFD3CC;" d="M132.304,339.89c-1.184-0.624-2.436-1.09-3.743-1.376
										c-1.918-0.42-3.956-0.791-5.81-0.143c0.787,0.678,1.449,1.501,1.942,2.416c0.687,1.276,1.069,2.755,2.078,3.795
										c1.088,1.122,2.751,1.359,4.313,1.424c3.218,0.135,4.331-1.858,4.331-1.858S134.479,341.036,132.304,339.89z"/>
									<path id="XMLID_697_" style="fill:#AFD3CC;" d="M137.046,346.242c0.23-0.658,0.502-1.305,0.884-1.888
										c0.873-1.333,2.278-2.248,3.768-2.811c1.491-0.563,3.079-0.807,4.655-1.048c-0.728,0.755-1.299,1.66-1.666,2.642
										c-0.407,1.09-0.566,2.268-1.055,3.324c-0.852,1.837-2.679,3.048-4.621,3.468c-0.764,0.165-2.149,0.483-2.534-0.232
										C136.05,348.904,136.777,347.012,137.046,346.242z"/>
									
										<path id="XMLID_699_" style="fill:none;stroke:#72AAAA;stroke-width:0.5;stroke-linecap:round;stroke-linejoin:round;stroke-miterlimit:10;" d="
										M142.072,333.481c0,0-2.374,5.116-6.542,8.822"/>
									
										<path id="XMLID_698_" style="fill:none;stroke:#72AAAA;stroke-width:0.5;stroke-linecap:round;stroke-linejoin:round;stroke-miterlimit:10;" d="
										M125.522,339.674c0,0,1.498,0.357,3.562,2.071c2.064,1.714,4.818,2.77,6.332,2.403"/>
									
										<path id="XMLID_700_" style="fill:none;stroke:#72AAAA;stroke-width:0.5;stroke-linecap:round;stroke-linejoin:round;stroke-miterlimit:10;" d="
										M144.268,342.016c-0.053,0.104-3.106,1.042-4.23,3.304c-1.125,2.262-2.193,3.286-3.56,4.378"/>
								</g>
								<polygon id="XMLID_594_" style="fill:#95C5C6;" points="142.481,365.611 130.21,365.611 127.719,350.79 144.972,350.79 
																	"/>
							</g>
							<g id="XMLID_726_">
								<g id="XMLID_725_">
									<g id="XMLID_723_">
										<path id="XMLID_718_" style="fill:#95C1BF;" d="M79.422,340.969c0.022-1.626,0.375-3.255,0.163-4.867
											c-0.427-3.251-3.098-6.184-2.446-9.397c0.172-0.845,0.569-1.631,0.748-2.474c0.545-2.563-0.974-5.066-2.426-7.248
											c4.417,1.104,8.053,4.876,8.995,9.331c0.364,1.723,0.366,3.556,1.138,5.139c0.647,1.328,1.786,2.365,2.443,3.689
											c1.363,2.745,0.395,6.021-0.591,8.923c-0.676,1.991-2.024,6.38-4.875,4.694C80.187,347.349,79.387,343.494,79.422,340.969
											z"/>
										
											<path id="XMLID_721_" style="fill:none;stroke:#72AAAA;stroke-width:0.5;stroke-linecap:round;stroke-linejoin:round;stroke-miterlimit:10;" d="
											M80.229,322.798c1.089,1.839,0.961,4.115,1.065,6.249c0.108,2.213,0.504,4.411,1.175,6.522
											c0.343,1.08,0.762,2.166,0.743,3.299c-0.017,0.976-0.361,1.931-0.321,2.907c0.047,1.15,0.619,2.201,1.052,3.267
											c0.433,1.066,0.727,2.304,0.232,3.343"/>
									</g>
									<g id="XMLID_722_">
										<path id="XMLID_717_" style="fill:#AFD3CC;" d="M83.996,345.528c-0.28-0.695-0.526-1.425-0.503-2.174
											c0.031-1.021,0.555-1.956,0.806-2.946c0.759-2.997-0.969-6.468,0.612-9.125c0.847-1.424,2.451-2.212,3.531-3.469
											c1.086-1.264,1.576-2.919,2.341-4.399c0.766-1.48,2.026-2.92,3.688-3.043c-0.862,1.629-1.749,3.378-1.574,5.213
											c0.217,2.27,2.015,4.125,2.376,6.377c0.57,3.556-2.531,6.734-2.711,10.331c-0.06,1.191,0.204,2.418-0.134,3.562
											c-0.493,1.667-2.645,3.611-4.093,4.5C86.272,351.619,84.657,347.169,83.996,345.528z"/>
										
											<path id="XMLID_719_" style="fill:none;stroke:#72AAAA;stroke-width:0.5;stroke-linecap:round;stroke-linejoin:round;stroke-miterlimit:10;" d="
											M90.701,327.266c-1.331,1.806-0.703,4.325-0.986,6.551c-0.328,2.583-1.948,4.924-1.96,7.527
											c-0.005,1.131,0.297,2.24,0.397,3.366c0.199,2.241-0.403,4.468-1.001,6.637"/>
									</g>
									<g id="XMLID_724_">
										<path id="XMLID_716_" style="fill:#AFD3CC;" d="M81.756,338.995c-0.499-0.905-1.099-1.755-1.541-2.688
											c-0.487-1.029-0.813-2.126-1.219-3.19c-1.643-4.303-12.845-7.498-12.845-7.498s1.14,1.828,1.558,2.381
											c1.499,1.986,1.039,4.805,1.848,7.158c0.687,1.999,2.269,3.588,2.996,5.573c0.372,1.016,0.516,2.123,1.048,3.064
											c0.949,1.678,2.889,2.467,4.455,3.59c1.829,1.311,3.239,3.197,3.977,5.323c-0.228-0.655,1.014-2.808,1.177-3.521
											c0.213-0.93,0.253-1.924,0.277-2.875C83.55,343.764,82.992,341.234,81.756,338.995z"/>
										
											<path id="XMLID_720_" style="fill:none;stroke:#72AAAA;stroke-width:0.5;stroke-linecap:round;stroke-linejoin:round;stroke-miterlimit:10;" d="
											M70.707,330.144c1.405,0.555,2.286,1.955,2.869,3.348c0.583,1.394,0.981,2.892,1.871,4.112
											c1.093,1.497,2.878,2.508,3.541,4.239c0.435,1.135,0.318,2.439,0.845,3.534c0.342,0.711,0.927,1.271,1.391,1.909
											c0.84,1.152,1.287,2.586,1.252,4.011"/>
									</g>
								</g>
								<polygon id="XMLID_614_" style="fill:#95C5C6;" points="90.224,365.614 77.953,365.614 75.462,346.92 92.715,346.92 
																	"/>
							</g>
						</g>
					</g>
					<g id="XMLID_858_">
						<path id="XMLID_885_" style="fill:#EF745D;" d="M122.913,324.879l-1.985-1.85c0,0-3.82,10.62-4.191,13.584
							c-0.371,2.965,1.482,13.466,1.482,13.466l5.435-11.303L122.913,324.879z"/>
						<g id="XMLID_899_">
							<g id="XMLID_898_">
								<polygon id="XMLID_893_" style="fill:#EF745D;" points="133.225,357.558 132.112,395.136 127.987,395.389 126.048,360.242 
																	"/>
								<path id="XMLID_895_" style="fill:#2E1A13;" d="M127.987,395.389c0,0-2.088,5.764-0.965,5.764
									c1.123,0,13.929,0.973,14.042,0.189c0.112-0.783-8.952-6.206-8.952-6.206L127.987,395.389z"/>
							</g>
							<g id="XMLID_900_">
								<path id="XMLID_902_" style="fill:#EF745D;" d="M129.168,362.913c0,0-3.743,13.134-6.067,17.003
									c-2.106,3.505-11.018,12.085-11.018,12.085l-3.293-2.496l8.708-11.348l3.113-17.773L129.168,362.913z"/>
								<path id="XMLID_901_" style="fill:#2E1A13;" d="M108.789,389.505c0,0-5.34,3.012-4.488,3.744
									c0.852,0.732,9.932,9.814,10.528,9.293c0.596-0.521-2.747-10.541-2.747-10.541L108.789,389.505z"/>
							</g>
						</g>
						<g id="XMLID_886_">
							<path id="XMLID_859_" style="fill:#FFD0A4;" d="M120.928,323.029c1.578-1.579,8.984-5.882,16.943,1.17l-4.029,14.092
								l10.936,38.235c0,0-20.358,9.095-39.836-2.676l17.13-35.713L120.928,323.029z"/>
							
								<rect id="XMLID_881_" x="121.684" y="338.007" transform="matrix(0.9993 0.0371 -0.0371 0.9993 12.6511 -4.5183)" style="fill:#F4AF90;" width="12.606" height="0.769"/>
						</g>
						<g id="XMLID_876_">
							<path id="XMLID_896_" style="fill:#EF745D;" d="M127.107,310.657c0,3.959,4.231,7.474,7.215,7.474
								c2.984,0,3.592-3.515,3.592-7.474c0-3.959-2.419-7.168-5.403-7.168C129.527,303.489,127.107,306.698,127.107,310.657z"/>
							<path id="XMLID_862_" style="fill:#5D515D;" d="M136.626,307.934c0,0,0.582,3.162-0.915,4.909
								c-1.498,1.747-2.478,5.477-1.664,7.198c0.814,1.721,1.337,5.782-1.536,7.779c-2.873,1.997-8.606,1.67-9.946,0
								c-1.34-1.67-1.914-4.658,0.499-7.779c2.413-3.121,2.08-3.703,1.664-5.617c-0.416-1.914,0.333-10.317,5.408-11.482
								s6.601,2.08,6.601,2.08s2.001,0.256,2.412,2.312c0.411,2.056-1.236,2.809-1.236,2.809L136.626,307.934z"/>
							<ellipse id="XMLID_861_" style="fill:#EF745D;" cx="134.737" cy="313.475" rx="1.098" ry="1.574"/>
						</g>
						<g id="XMLID_879_">
							<path id="XMLID_877_" style="fill:#EF745D;" d="M134.737,331.497c-0.127-2.242,3.134-7.298,3.134-7.298
								s3.847,10.643,4.517,10.535c0.67-0.107,6.717-5.829,6.717-5.829l2.249,2.476c0,0-6.285,9.49-9.37,9.114
								C138.898,340.119,134.918,334.692,134.737,331.497z"/>
							<path id="XMLID_878_" style="fill:#EF745D;" d="M149.005,330.526c-0.062-0.259,0.24-6.48,1.077-7.401
								c0.837-0.921,4.555-2.519,4.606-1.958c0.052,0.561-3.435,2.786-3.435,2.786s4.722-2.018,4.674-1.553
								c-0.049,0.466-3.66,2.95-3.66,2.95s3.451-2.167,3.661-1.756c0.21,0.411-3.063,3.102-3.063,3.102s2.769-1.915,3.073-1.242
								c0.304,0.673-2.729,2.608-2.729,2.608s-0.539,3.564-2.454,3.945L149.005,330.526z"/>
						</g>
					</g>
				</g>
			</g>
			<rect id="XMLID_417_" x="20.494" y="401.153" style="fill:#2F1B13;" width="709.012" height="12.894"/>
		</g>
	</g>
</g>
</svg>
