<svg width="80" height="79" viewBox="0 0 41 40" fill="none" xmlns="http://www.w3.org/2000/svg">
<path d="M7.25 5.625C7.25 4.17597 8.42465 3 9.875 3H15.5C17.025 3 18.4875 3.6058 19.5659 4.68414C20.6442 5.76247 21.25 7.22501 21.25 8.75V11.875C21.25 12.8364 21.6319 13.7584 22.3117 14.4383C22.9916 15.1181 23.9136 15.5 24.875 15.5H28C29.525 15.5 30.9875 16.1058 32.0659 17.1841C33.1442 18.2625 33.75 19.725 33.75 21.25V34.375C33.75 35.8239 32.5739 37 31.125 37H9.875C8.42614 37 7.25 35.8239 7.25 34.375V5.625ZM13.0126 23.7626C12.6844 24.0908 12.5 24.5359 12.5 25C12.5 25.4641 12.6844 25.9092 13.0126 26.2374C13.3408 26.5656 13.7859 26.75 14.25 26.75H26.75C27.2141 26.75 27.6592 26.5656 27.9874 26.2374C28.3156 25.9092 28.5 25.4641 28.5 25C28.5 24.5359 28.3156 24.0908 27.9874 23.7626C27.6592 23.4344 27.2141 23.25 26.75 23.25H14.25C13.7859 23.25 13.3408 23.4344 13.0126 23.7626ZM14.25 28.25C13.7859 28.25 13.3408 28.4344 13.0126 28.7626C12.6844 29.0908 12.5 29.5359 12.5 30C12.5 30.4641 12.6844 30.9092 13.0126 31.2374C13.3408 31.5656 13.7859 31.75 14.25 31.75H20.5C20.9641 31.75 21.4092 31.5656 21.7374 31.2374C22.0656 30.9092 22.25 30.4641 22.25 30C22.25 29.5359 22.0656 29.0907 21.7374 28.7626C21.4092 28.4344 20.9641 28.25 20.5 28.25H14.25Z" stroke="#0B1215"/>
<path d="M22.1182 3.02661C23.4957 4.61488 24.2528 6.64752 24.2498 8.74994V11.8749C24.2498 12.2199 24.5298 12.4999 24.8748 12.4999H27.9998C30.1023 12.497 32.1349 13.2541 33.7232 14.6316C32.9899 11.8428 31.529 9.29878 29.49 7.25976C27.451 5.22074 24.907 3.75988 22.1182 3.02661Z" fill="#3384FF"/>
</svg>
