<svg width="80" height="80" viewBox="0 0 40 40" fill="none" xmlns="http://www.w3.org/2000/svg">
<path d="M14.3758 35.75H14.375C10.3484 35.75 6.58059 34.6361 3.36632 32.7L3.36559 32.6996C3.25644 32.6341 3.16576 32.5419 3.10208 32.4317C3.03874 32.3221 3.00418 32.1982 3.00163 32.0716C3.00161 32.0709 3.0016 32.0703 3.00159 32.0696L3 31.875C3 31.8743 3 31.8737 3 31.873C3.00054 28.8569 4.19891 25.9644 6.33166 23.8317C8.46489 21.6984 11.3582 20.5 14.375 20.5C17.3918 20.5 20.2851 21.6984 22.4183 23.8317C24.5516 25.9649 25.75 28.8582 25.75 31.875V31.8778V31.88L25.7484 32.07C25.7484 32.0706 25.7484 32.0712 25.7484 32.0718C25.746 32.1983 25.7116 32.3222 25.6484 32.4319C25.5849 32.5421 25.4944 32.6344 25.3854 32.7L25.6433 33.1283L25.3854 32.7C22.0622 34.7013 18.2551 35.7559 14.3758 35.75ZM29.25 31.8835L29.2506 31.8005L29.2483 31.7936C29.237 28.8276 28.3354 25.9377 26.667 23.4956C27.7016 23.1025 28.8118 22.9384 29.9205 23.0179C31.2302 23.1117 32.4935 23.5422 33.588 24.2676C34.6825 24.993 35.5711 25.9888 36.1678 27.1585C36.7645 28.3281 37.049 29.6321 36.9938 30.944L36.9938 30.9445C36.9882 31.0795 36.9462 31.2106 36.8723 31.3238L37.2909 31.5972L36.8723 31.3238C36.7984 31.437 36.6952 31.5281 36.5738 31.5875L36.5733 31.5877C34.2398 32.7312 31.6699 33.2991 29.0784 33.2488C29.1844 32.8857 29.2419 32.5089 29.2483 32.1284H29.2483L29.2483 32.1235L29.25 31.8835ZM8 10.625C8 8.93425 8.67165 7.31274 9.86719 6.11719C11.0627 4.92165 12.6842 4.25 14.375 4.25C16.0658 4.25 17.6873 4.92165 18.8828 6.11719C20.0784 7.31274 20.75 8.93425 20.75 10.625C20.75 12.3158 20.0784 13.9373 18.8828 15.1328C17.6873 16.3284 16.0658 17 14.375 17C12.6842 17 11.0627 16.3284 9.86719 15.1328C8.67165 13.9373 8 12.3158 8 10.625ZM24.25 14.375C24.25 13.702 24.3826 13.0355 24.6401 12.4137C24.8977 11.792 25.2752 11.227 25.7511 10.7511C26.227 10.2752 26.792 9.89767 27.4137 9.64012C28.0355 9.38256 28.702 9.25 29.375 9.25C30.048 9.25 30.7145 9.38256 31.3363 9.64012C31.958 9.89767 32.523 10.2752 32.9989 10.7511C33.4748 11.227 33.8523 11.792 34.1099 12.4137C34.3674 13.0355 34.5 13.702 34.5 14.375C34.5 15.7342 33.96 17.0378 32.9989 17.9989C32.0378 18.96 30.7342 19.5 29.375 19.5C28.0158 19.5 26.7122 18.96 25.7511 17.9989C24.79 17.0378 24.25 15.7342 24.25 14.375Z" stroke="#0B1215"/>
</svg>
