<svg width="80" height="79" viewBox="0 0 41 40" fill="none" xmlns="http://www.w3.org/2000/svg">
<path d="M20.5 12.5C19.5054 12.5 18.5516 12.8951 17.8483 13.5983C17.1451 14.3016 16.75 15.2554 16.75 16.25C16.75 17.2446 17.1451 18.1984 17.8483 18.9016C18.5516 19.6049 19.5054 20 20.5 20C21.4946 20 22.4484 19.6049 23.1516 18.9016C23.8549 18.1984 24.25 17.2446 24.25 16.25C24.25 15.2554 23.8549 14.3016 23.1516 13.5983C22.4484 12.8951 21.4946 12.5 20.5 12.5Z" fill="#3384FF"/>
<path d="M3.5 8.125C3.5 6.67465 4.67597 5.5 6.125 5.5H34.875C36.3239 5.5 37.5 6.67614 37.5 8.125V24.375C37.5 25.8253 36.324 27 34.875 27H6.125C5.78028 27 5.43893 26.9321 5.12046 26.8002C4.80198 26.6683 4.5126 26.4749 4.26884 26.2312C4.02509 25.9874 3.83173 25.698 3.69982 25.3795C3.5679 25.0611 3.5 24.7197 3.5 24.375V8.125ZM33.0008 17.5008L32.6472 17.1472L33.0008 17.5008C33.329 17.1726 33.5133 16.7275 33.5133 16.2633V16.25C33.5133 15.7859 33.329 15.3408 33.0008 15.0126L32.6472 15.3661L33.0008 15.0126C32.6726 14.6844 32.2275 14.5 31.7633 14.5H31.75C31.2859 14.5 30.8407 14.6844 30.5126 15.0126C30.1844 15.3408 30 15.7859 30 16.25V16.2633C30 17.2295 30.7839 18.0133 31.75 18.0133H31.7633C32.2275 18.0133 32.6726 17.829 33.0008 17.5008ZM15.727 11.477C14.4612 12.7429 13.75 14.4598 13.75 16.25C13.75 18.0402 14.4612 19.7571 15.727 21.023C16.9929 22.2888 18.7098 23 20.5 23C22.2902 23 24.0071 22.2888 25.273 21.023C26.5388 19.7571 27.25 18.0402 27.25 16.25C27.25 14.4598 26.5388 12.7429 25.273 11.477C24.0071 10.2112 22.2902 9.5 20.5 9.5C18.7098 9.5 16.9929 10.2112 15.727 11.477ZM8.01256 15.0126C7.68437 15.3408 7.5 15.7859 7.5 16.25V16.2633C7.5 16.7275 7.68437 17.1726 8.01256 17.5008C8.34075 17.829 8.78587 18.0133 9.25 18.0133H9.26333C9.72746 18.0133 10.1726 17.829 10.5008 17.5008C10.829 17.1726 11.0133 16.7275 11.0133 16.2633V16.25C11.0133 15.7859 10.829 15.3408 10.5008 15.0126C10.1726 14.6844 9.72746 14.5 9.26333 14.5H9.25C8.78587 14.5 8.34075 14.6844 8.01256 15.0126Z" stroke="#0B1215"/>
<path d="M4.25 30C3.91848 30 3.60054 30.1317 3.36612 30.3661C3.1317 30.6005 3 30.9185 3 31.25C3 31.5815 3.1317 31.8995 3.36612 32.1339C3.60054 32.3683 3.91848 32.5 4.25 32.5C13.25 32.5 21.9667 33.7033 30.25 35.9583C32.2333 36.4983 34.25 35.0283 34.25 32.925V31.25C34.25 30.9185 34.1183 30.6005 33.8839 30.3661C33.6495 30.1317 33.3315 30 33 30H4.25Z" fill="#3384FF"/>
</svg>
