<svg width="976" height="494" viewBox="0 0 976 494" fill="none" xmlns="http://www.w3.org/2000/svg">
<path d="M945.641 481.887C944.801 489.793 944.251 494.265 944.251 494.265H41.7988C41.7988 494.265 40.3128 487.203 38.235 474.854C30.0615 426.108 12.7927 295.141 42.2116 192.453C44.2619 185.285 46.5323 178.253 49.0641 171.401C86.863 68.8193 130.303 3.17731 246.383 0.285992C362.449 -2.62039 385.662 64.0908 433.533 65.5365C481.418 66.9821 620.697 23.4768 729.512 36.5329C838.326 49.589 921.024 122.098 944.251 213.461C948.007 228.279 950.553 245.672 952.177 264.42C959.015 343.525 949.397 446.709 945.641 481.887Z" fill="#E7F7F6" fill-opacity="0.5"/>
<path d="M222.944 67.0725H47.4763C47.7515 61.847 62.5848 57.6305 80.8444 57.6305C86.087 57.6305 91.0406 57.9769 95.4576 58.5943C95.4163 58.0522 95.375 57.495 95.375 56.9378C95.375 44.0624 105.227 33.6265 117.391 33.6265C128.22 33.6265 137.219 41.924 139.036 52.8568C140.081 52.6159 141.168 52.4804 142.283 52.4804C143.563 52.4804 144.801 52.6611 145.984 52.9623C146.59 39.093 157.983 28.0397 171.963 28.0397C186.356 28.0397 198.011 39.7254 198.011 54.1369C198.011 55.3265 197.901 56.4861 197.75 57.6305C211.565 57.6908 222.738 61.8772 222.944 67.0725Z" fill="white" fill-opacity="0.5"/>
<path d="M962.226 219.413H786.758C787.033 214.188 801.866 209.971 820.126 209.971C825.368 209.971 830.322 210.318 834.739 210.935C834.698 210.393 834.656 209.836 834.656 209.279C834.656 196.403 844.508 185.968 856.672 185.968C867.501 185.968 876.501 194.265 878.317 205.198C879.363 204.957 880.45 204.821 881.564 204.821C882.844 204.821 884.082 205.002 885.266 205.303C885.871 191.434 897.264 180.381 911.245 180.381C925.638 180.381 937.292 192.066 937.292 206.478C937.292 207.667 937.182 208.827 937.031 209.971C950.846 210.032 962.019 214.218 962.226 219.413Z" fill="white" fill-opacity="0.5"/>
<path d="M508.194 140.489C508.194 141.047 508.029 141.589 507.713 142.116H295.34C297.06 139.33 305.66 137.207 315.994 137.207C316.586 137.207 317.164 137.207 317.741 137.222C316.833 135.008 316.324 132.583 316.324 130.023C316.324 119.497 324.883 110.944 335.451 110.944C337.749 110.944 339.936 111.38 341.987 112.118C345.647 98.8062 357.357 89.0781 371.254 89.0781C384.78 89.0781 396.242 98.2942 400.219 111.049C401.058 110.989 401.925 110.944 402.792 110.944C410.03 110.944 416.58 113.218 421.382 116.907C425.483 107.781 434.908 101.396 445.889 101.396C460.639 101.396 472.597 112.901 472.597 127.102C472.597 128.924 472.391 130.716 472.019 132.433C474.936 132.087 478.073 131.876 481.362 131.876C496.182 131.876 508.194 135.731 508.194 140.489Z" fill="white" fill-opacity="0.5"/>
<path d="M875.437 106.34C875.437 106.897 875.272 107.44 874.955 107.967H662.583C664.303 105.181 672.903 103.057 683.237 103.057C683.829 103.057 684.406 103.057 684.984 103.072C684.076 100.859 683.567 98.4343 683.567 95.8743C683.567 85.3481 692.126 76.7946 702.694 76.7946C704.991 76.7946 707.179 77.2313 709.23 77.9692C712.89 64.6571 724.599 54.929 738.497 54.929C752.023 54.929 763.485 64.145 767.462 76.9C768.301 76.8397 769.168 76.7946 770.035 76.7946C777.273 76.7946 783.823 79.0685 788.625 82.7579C792.725 73.6322 802.151 67.2472 813.132 67.2472C827.882 67.2472 839.84 78.7522 839.84 92.9528C839.84 94.775 839.633 96.567 839.262 98.2837C842.179 97.9373 845.316 97.7265 848.605 97.7265C863.426 97.7265 875.437 101.582 875.437 106.34Z" fill="white" fill-opacity="0.5"/>
<path d="M952.177 264.42H810.985V219.228L837.046 228.369L839.977 218.385L699.597 169.142V123.017L721.669 140.952L727.393 132.534L622.816 47.556L622.789 47.6012L622.761 47.556L544.563 111.105H542.884V112.475L518.185 132.534L523.909 140.952L542.884 125.531V223.472H277.55V192.453H266.542V120.682L284.113 113.379L280.728 103.575L132.216 165.182L135.601 174.985L154.136 167.305V192.453H42.2116C12.7927 295.14 30.0615 426.108 38.235 474.854H273.614V479.01H542.884V484.838H699.597V479.01H803.018V481.887H945.641C949.397 446.709 959.015 343.525 952.177 264.42Z" fill="url(#paint0_linear_417_1443)" fill-opacity="0.5"/>
<path d="M260.673 210.971H242.581V241.654H260.673V210.971Z" fill="#E7F7F6" fill-opacity="0.5"/>
<path d="M235.404 210.971H217.312V241.654H235.404V210.971Z" fill="#E7F7F6" fill-opacity="0.5"/>
<path d="M185.866 210.971H167.775V241.654H185.866V210.971Z" fill="#E7F7F6" fill-opacity="0.5"/>
<path d="M160.598 210.971H142.506V241.654H160.598V210.971Z" fill="#E7F7F6" fill-opacity="0.5"/>
<path d="M106.431 210.971H88.3396V241.654H106.431V210.971Z" fill="#E7F7F6" fill-opacity="0.5"/>
<path d="M81.1622 210.971H63.0706V241.654H81.1622V210.971Z" fill="#E7F7F6" fill-opacity="0.5"/>
<path d="M186.633 268.052H168.541V298.735H186.633V268.052Z" fill="#E7F7F6" fill-opacity="0.5"/>
<path d="M161.364 268.052H143.272V298.735H161.364V268.052Z" fill="#E7F7F6" fill-opacity="0.5"/>
<path d="M606.336 126.775H588.244V157.458H606.336V126.775Z" fill="#E7F7F6" fill-opacity="0.5"/>
<path d="M581.067 126.775H562.975V157.458H581.067V126.775Z" fill="#E7F7F6" fill-opacity="0.5"/>
<path d="M946.465 288.475H928.373V319.158H946.465V288.475Z" fill="#E7F7F6" fill-opacity="0.5"/>
<path d="M921.197 288.475H903.106V319.158H921.197V288.475Z" fill="#E7F7F6" fill-opacity="0.5"/>
<path d="M680.676 126.775H662.584V157.458H680.676V126.775Z" fill="#E7F7F6" fill-opacity="0.5"/>
<path d="M655.407 126.775H637.315V157.458H655.407V126.775Z" fill="#E7F7F6" fill-opacity="0.5"/>
<path d="M825.467 351.329L830.426 348.306C830.426 348.306 839.863 361.73 841.728 388.104L825.467 389.67V351.329Z" fill="#6C646D"/>
<path d="M800.48 345.415C802.59 343.338 807.784 341.283 815.555 341.302C823.325 341.322 829.083 345.886 830.426 348.306C831.769 350.728 833.532 396.608 833.532 396.608L795.075 398.876C795.075 398.876 794.221 351.577 800.48 345.415Z" fill="#5D515D"/>
<path d="M801.591 347.644L800.48 345.415C800.48 345.415 782.423 366.208 784.991 395.442L795.074 396.539L803.308 370.937C805.778 363.258 805.153 354.792 801.591 347.644Z" fill="#6C646D"/>
<path d="M810.99 328.517C811.703 328.955 810.744 341.74 809.542 341.743C809.542 341.743 813.694 346.888 815.555 346.93C817.415 346.972 818.554 341.518 818.554 341.518C816.902 340.918 817.133 335.464 817.147 330.568L810.99 328.517Z" fill="#EF745D"/>
<path d="M825.404 328.208C825.738 329.376 824.699 330.772 823.083 331.327C821.466 331.883 819.883 331.387 819.548 330.22C819.213 329.053 820.252 327.657 821.87 327.102C823.487 326.544 825.07 327.041 825.404 328.208Z" fill="#DB5846"/>
<path d="M808.12 324.808C808.12 330.77 813.942 336.063 818.048 336.063C822.154 336.063 822.991 330.77 822.991 324.808C822.991 318.846 819.662 314.014 815.556 314.014C811.449 314.014 808.12 318.846 808.12 324.808Z" fill="#EF745D"/>
<path d="M811.897 321.037C811.897 321.037 813.045 322.352 816.739 323.161C820.434 323.969 826.204 321.452 828.053 318.52C828.053 318.52 824.956 319.678 822.991 317.527C821.444 315.836 819.592 311.222 814.602 311.227C811.533 311.23 810.221 317.292 810.221 317.292C810.221 317.292 806.21 316.893 806.026 319.015C805.841 321.138 807.688 328.517 807.688 328.517L810.089 329.213L811.897 321.037Z" fill="#2C1B14"/>
<path d="M823.574 321.037C823.574 321.037 823.877 325.71 822.894 327.922L820.8 321.037H823.574Z" fill="#2C1B14"/>
<path d="M811.155 330.564C810.707 331.684 809.085 331.988 807.532 331.243C805.98 330.497 805.086 328.986 805.534 327.865C805.983 326.745 807.605 326.441 809.158 327.186C810.71 327.931 811.604 329.443 811.155 330.564Z" fill="#EF745D"/>
<path d="M815.853 328.329C815.853 328.818 815.63 329.214 815.355 329.214C815.08 329.214 814.857 328.818 814.857 328.329C814.857 327.84 815.08 327.444 815.355 327.444C815.63 327.444 815.853 327.841 815.853 328.329Z" fill="#2C1B14"/>
<path d="M821.61 327.922C821.61 328.412 821.387 328.808 821.112 328.808C820.837 328.808 820.614 328.412 820.614 327.922C820.614 327.433 820.837 327.037 821.112 327.037C821.387 327.037 821.61 327.434 821.61 327.922Z" fill="#2C1B14"/>
<path d="M820.807 325.138C820.187 325.13 819.684 325.653 819.687 325.352C819.689 325.051 820.189 324.358 820.807 324.365C821.426 324.373 821.929 325.076 821.927 325.377C821.924 325.679 821.426 325.144 820.807 325.138Z" fill="#2C1B14"/>
<path d="M814.992 325.138C814.372 325.13 813.869 325.653 813.872 325.352C813.874 325.051 814.374 324.358 814.992 324.365C815.611 324.373 816.114 325.076 816.112 325.377C816.11 325.679 815.611 325.144 814.992 325.138Z" fill="#2C1B14"/>
<path d="M819.245 327.922C819.245 327.922 819.538 330.326 819.245 330.754" stroke="#B52A2A" stroke-width="0.5" stroke-miterlimit="10" stroke-linecap="round" stroke-linejoin="round"/>
<path d="M819.034 332.448C819.034 332.448 817.202 333.026 815.853 331.356" stroke="#B52A2A" stroke-width="0.5" stroke-miterlimit="10" stroke-linecap="round" stroke-linejoin="round"/>
<path d="M794.079 227.488H788.417V436.684H794.079V227.488Z" fill="#5F969B" fill-opacity="0.5"/>
<path d="M794.079 264.422H788.417V325.037H794.079V264.422Z" fill="#42747F" fill-opacity="0.5"/>
<path d="M899.445 278.553H683.109C683.109 278.553 731.537 235.439 791.276 235.439C851.017 235.441 899.445 278.553 899.445 278.553Z" fill="#73A7A8" fill-opacity="0.5"/>
<path d="M791.276 235.441C791.276 235.441 745.211 250.36 724.725 278.554H761.731C761.731 278.554 766.303 261.765 791.276 235.441Z" fill="#8BBCB8" fill-opacity="0.5"/>
<path d="M791.276 235.441C791.276 235.441 837.342 250.36 857.828 278.554H820.822C820.822 278.554 816.249 261.765 791.276 235.441Z" fill="#8BBCB8" fill-opacity="0.5"/>
<path d="M720.387 298.051H687.447L683.109 278.553H724.725L720.387 298.051Z" fill="#679DA0" fill-opacity="0.5"/>
<path d="M757.849 297.61H728.58L724.725 278.113H761.703L757.849 297.61Z" fill="#7FB2B1" fill-opacity="0.5"/>
<path d="M814.632 298.051H767.863L761.703 278.553H820.791L814.632 298.051Z" fill="#679DA0" fill-opacity="0.5"/>
<path d="M853.967 297.61H824.653L820.792 278.113H857.828L853.967 297.61Z" fill="#7FB2B1" fill-opacity="0.5"/>
<path d="M895.107 298.051H862.167L857.828 278.553H899.445L895.107 298.051Z" fill="#679DA0" fill-opacity="0.5"/>
<path d="M897.183 407.684H685.371V414.713H897.183V407.684Z" fill="#8BBCB8" fill-opacity="0.5"/>
<path d="M892.229 414.713H690.323V481.882H892.229V414.713Z" fill="#8BBCB8"/>
<path d="M892.229 414.713H690.323V421.743H892.229V414.713Z" fill="#74A6AA" fill-opacity="0.5"/>
<path d="M782.587 339.914H693.552V407.684H782.587V339.914Z" fill="#A1C9C1" fill-opacity="0.5"/>
<path d="M776.546 346.614H699.6V373.012H776.546V346.614Z" fill="#CAE5E1" fill-opacity="0.5"/>
<path d="M776.546 377.149H699.6V403.547H776.546V377.149Z" fill="#CAE5E1" fill-opacity="0.5"/>
<path d="M716.906 346.614L699.6 356.043V346.614H716.906Z" fill="#E1F4EE" fill-opacity="0.5"/>
<path d="M732.441 346.614L699.6 364.528V359.968L724.079 346.614H732.441Z" fill="#E1F4EE" fill-opacity="0.5"/>
<path d="M734.152 377.149H742.486L699.6 400.55V396.006L734.152 377.149Z" fill="#E1F4EE" fill-opacity="0.5"/>
<path d="M776.546 354.024V358.567L750.074 373.012H741.741L776.546 354.024Z" fill="#E1F4EE" fill-opacity="0.5"/>
<path d="M776.546 379.493V384.07L740.833 403.547H732.456L776.546 379.493Z" fill="#E1F4EE" fill-opacity="0.5"/>
<path d="M776.546 389.672V403.547H751.116L776.546 389.672Z" fill="#E1F4EE" fill-opacity="0.5"/>
<path d="M848.408 407.684H878.089L883.138 360.463H853.455L848.408 407.684Z" fill="#80AFAE" fill-opacity="0.5"/>
<path d="M848.408 407.684H878.089L883.138 360.463H853.455L848.408 407.684Z" fill="#80AFAE" fill-opacity="0.5"/>
<path d="M888.25 407.684H858.567L853.518 360.463H883.201L888.25 407.684Z" fill="#A1C9C1" fill-opacity="0.5"/>
<path d="M843.549 384.073H785.962V407.684H843.549V384.073Z" fill="#A1C9C1" fill-opacity="0.5"/>
<path d="M841.508 356.101H804.322V379.493H841.508V356.101Z" fill="#A1C9C1" fill-opacity="0.5"/>
<path d="M826.628 361.316H818.678V384.708H826.628V361.316Z" fill="#8BBCB8" fill-opacity="0.5"/>
<path d="M912.267 398.888C912.333 399.711 912.808 407.84 909.17 407.559C905.532 407.277 906.753 398.876 906.753 398.876L912.267 398.888Z" fill="#EF745D"/>
<path d="M914.097 392.841C914.097 392.841 914.785 399.597 912.333 399.713C909.881 399.829 906.862 400.24 906.862 400.24L906.295 393.179L914.097 392.841Z" fill="#C8B4AD"/>
<path d="M889.578 356.557C889.395 355.962 891.473 350.978 891.473 350.978C891.473 350.978 894.376 352.011 899.084 354.304C903.128 356.275 911.937 367.536 913.851 372.819C915.765 378.1 918.865 393.579 914.187 395.584C909.508 397.588 906.372 395.722 902.694 389.348C899.016 382.973 889.578 356.557 889.578 356.557Z" fill="#DBCCC6"/>
<path d="M885.531 337.512C885.531 343.474 879.709 348.767 875.603 348.767C871.497 348.767 870.661 343.474 870.661 337.512C870.661 331.55 873.989 326.718 878.095 326.718C882.203 326.718 885.531 331.55 885.531 337.512Z" fill="#EF745D"/>
<path d="M877.233 344.862C877.233 344.862 878.165 353.194 877.233 354.801C876.3 356.408 884.428 356.711 884.428 356.711L886.721 352.023C886.721 352.023 884.395 352.086 883.228 343.413C882.06 334.741 877.233 344.862 877.233 344.862Z" fill="#EF745D"/>
<path d="M878.542 346.93L883.756 346.47C883.756 346.47 887.149 341.072 887.884 338.546C888.618 336.02 890.788 330.211 887.149 330.163C887.149 330.163 888.501 326.832 886.723 325.569C884.945 324.305 877.179 323.96 875.08 320.631C872.982 317.3 872.992 314.774 871.464 316.612C869.938 318.449 871.464 322.698 871.464 322.698C871.464 322.698 868.258 317.53 867.523 319.253C866.789 320.976 869.832 325.913 869.832 325.913C869.832 325.913 865.214 324.305 865.11 326.028C865.005 327.751 867.104 333.148 873.4 334.068L878.542 346.93Z" fill="#2E1A13"/>
<path d="M878.097 341.302C878.097 339.906 877.351 338.775 876.43 338.775C875.51 338.775 874.764 339.906 874.764 341.302C874.764 342.697 875.51 343.828 876.43 343.828C877.351 343.829 878.097 342.698 878.097 341.302Z" fill="#EF745D"/>
<path d="M886.183 456.922L889.233 466.1L884.563 469.124L879.894 459.634L886.183 456.922Z" fill="#EF745D"/>
<path d="M895.14 460.468V469.942H900.096L901.716 459.634L895.14 460.468Z" fill="#EF745D"/>
<path d="M883.002 392.98C883.002 392.98 874.36 432.563 874.493 439.755C874.627 446.947 879.854 463.589 879.854 463.589L888.301 459.309C888.301 459.309 885.211 444.894 885.439 441.161C885.668 437.428 894.665 418.129 894.665 418.129L894.232 464.734L902.209 464.457C902.209 464.457 910.362 418.878 909.968 406.453C909.552 393.334 907.696 388.107 907.696 388.107L883.002 392.98Z" fill="#E99943"/>
<path d="M888.843 464.959C888.843 464.959 893.245 466.901 893.701 468.046C894.156 469.19 886.179 474.839 883.202 474.839C880.224 474.839 871.292 475.592 872.389 472.677C873.486 469.761 878.814 470.612 881.164 469.243C883.516 467.874 888.843 464.959 888.843 464.959Z" fill="#2E1A13"/>
<path d="M895.122 468.243C895.122 468.243 902.451 468.41 904.248 469.168C906.045 469.924 908.811 471.389 908.948 473.101C909.086 474.813 896.36 475.624 893.229 474.137C890.096 472.652 895.122 468.243 895.122 468.243Z" fill="#2E1A13"/>
<path d="M880.172 391.28C880.172 391.28 879.411 400.763 881.54 401.141C883.668 401.52 909.922 395.641 910.401 392.227C910.881 388.813 907.993 384.073 907.993 384.073L880.172 391.28Z" fill="#B7928B"/>
<path d="M871.464 357.67C872.748 356.489 885.886 349.862 892.429 351.157C899.595 352.575 911.805 383.68 911.514 388.455C911.224 393.23 881.853 397.85 877.738 394.028C873.623 390.206 871.464 357.67 871.464 357.67Z" fill="#C8B4AD"/>
<path d="M849.224 369.729C849.224 369.729 847.39 359.162 846.44 358.882C845.491 358.602 846.44 364.96 846.44 364.96C846.44 364.96 845.157 363.501 844.645 364.156C844.133 364.811 844.471 365.862 844.471 365.862C844.471 365.862 843.274 365.195 843.018 366.246C842.762 367.297 843.562 367.996 843.562 367.996C843.562 367.996 843.227 367.765 842.777 368.887C842.329 370.009 844.707 373.754 846.44 373.616C848.175 373.477 849.224 369.729 849.224 369.729Z" fill="#EF745D"/>
<path d="M853.624 372.042C853.624 372.042 850.073 367.812 849.132 368.612C848.192 369.411 844.327 372.956 847.983 377.53C851.64 382.103 853.624 372.042 853.624 372.042Z" fill="#C8B4AD"/>
<path d="M875.225 356.56C872.917 356.084 871.529 355.76 868.448 363.683C865.367 371.605 864.847 377.186 863.922 377.524C862.998 377.861 855.51 368.74 851.814 369.919C848.118 371.099 844.883 378.179 849.812 383.067C854.74 387.955 861.979 395.082 866.292 392.614C870.604 390.146 877.559 382.531 879.4 376.682C880.52 373.126 882.581 358.075 875.225 356.56Z" fill="#DBCCC6"/>
<path d="M547.907 467.468L547.51 460.786L541.559 461.429L542.676 470.236L547.907 467.468Z" fill="#EF745D"/>
<path d="M547.907 467.468C545.881 467.304 535.512 469.749 535.918 472.302C536.322 474.854 538.752 475.097 542.803 474.975C546.854 474.853 549.526 475.523 549.446 473.223C549.365 470.924 547.907 467.468 547.907 467.468Z" fill="#5D515D"/>
<path d="M529.655 469.227C529.655 468.859 529.655 459.961 529.655 459.961H523.284L524.206 470.236L529.655 469.227Z" fill="#EF745D"/>
<path d="M529.713 467.468C526.942 467.304 512.755 469.749 513.31 472.302C513.864 474.854 517.189 475.097 522.731 474.975C528.272 474.853 531.931 475.523 531.82 473.223C531.708 470.924 529.713 467.468 529.713 467.468Z" fill="#5D515D"/>
<path d="M524.048 361.74L516.908 358.344C516.908 358.344 513.758 376.274 513.967 380.87C514.178 385.464 520.477 403.547 520.477 403.547L524.048 361.74Z" fill="#EF745D"/>
<path d="M529.189 357.079L525.028 347.784C525.028 347.784 521.252 347.749 519.227 350.965C517.359 353.931 512.276 368.056 512.276 368.056L522.528 374.569L529.189 357.079Z" fill="#E5CAAC"/>
<path d="M521.793 380.87C521.793 380.87 518.987 394.718 519.243 406.462C519.498 418.208 521.793 462.786 521.793 462.786H530.667L532.248 403.547L540.561 463.179H548.377C548.377 463.179 547.293 418.719 547.038 406.464C546.784 394.209 546.784 383.803 546.784 383.803L521.793 380.87Z" fill="#5D515D"/>
<path d="M523.316 348.07C525.548 346.936 545.95 349.02 547.934 351.173C549.918 353.327 548.044 391.718 548.044 391.718C548.044 391.718 520.194 392.331 519.225 392.964C516.658 394.641 523.316 348.07 523.316 348.07Z" fill="#F1E1C7"/>
<path d="M545.287 367.064L554.191 361.74C554.191 361.74 560.397 377.239 559.153 381.145C557.078 387.663 546.93 400.55 546.93 400.55L544.468 393.009C544.468 393.009 551.57 382.612 550.13 379.26C548.69 375.906 545.287 367.064 545.287 367.064Z" fill="#EF745D"/>
<path d="M543.34 358.388L546.473 350.404C546.473 350.404 550.43 351.073 551.893 353.777C553.354 356.48 557.976 366.16 557.976 366.16L546.674 374.571L543.34 358.388Z" fill="#F1E1C7"/>
<path d="M525.756 332.972C525.416 334.155 526.375 335.539 527.898 336.062C529.42 336.584 530.93 336.048 531.268 334.863C531.608 333.679 530.649 332.296 529.127 331.773C527.604 331.25 526.094 331.787 525.756 332.972Z" fill="#DB5846"/>
<path d="M543.34 330.523C543.34 336.485 537.518 341.778 533.412 341.778C529.306 341.778 528.469 336.485 528.469 330.523C528.469 324.561 531.798 319.729 535.904 319.729C540.01 319.729 543.34 324.563 543.34 330.523Z" fill="#EF745D"/>
<path d="M540.845 332.812C540.394 339.417 539.98 345.975 542.1 349.329C542.1 349.329 535.431 355.423 533.853 353.345C532.274 351.267 531.7 347.997 531.7 347.997C534.518 346.073 534.814 341.186 534.933 336.093L540.845 332.812Z" fill="#EF745D"/>
<path d="M534.308 323.022C534.631 322.879 534.635 326.736 538.502 329.764L540.141 335L543.863 333.345C543.863 333.345 548.448 318.77 537.785 319.73C537.785 319.73 532.595 316.633 529.347 319.73C526.101 322.828 528.6 328.525 528.6 328.525C528.6 328.525 530.759 324.593 534.308 323.022Z" fill="#291D12"/>
<path d="M539.86 336.179C540.309 337.319 541.861 337.682 543.325 336.991C544.789 336.3 545.613 334.815 545.164 333.676C544.716 332.536 543.164 332.174 541.7 332.865C540.234 333.556 539.411 335.041 539.86 336.179Z" fill="#EF745D"/>
<path d="M534.919 332.916C534.919 333.405 535.142 333.801 535.417 333.801C535.692 333.801 535.915 333.405 535.915 332.916C535.915 332.426 535.692 332.03 535.417 332.03C535.142 332.032 534.919 332.428 534.919 332.916Z" fill="#2C1B14"/>
<path d="M529.162 332.509C529.162 332.999 529.385 333.395 529.66 333.395C529.935 333.395 530.158 332.999 530.158 332.509C530.158 332.02 529.935 331.624 529.66 331.624C529.385 331.624 529.162 332.021 529.162 332.509Z" fill="#2C1B14"/>
<path d="M529.965 329.725C530.584 329.717 531.088 330.24 531.085 329.939C531.083 329.638 530.583 328.945 529.965 328.952C529.346 328.96 528.842 329.663 528.845 329.964C528.848 330.266 529.346 329.732 529.965 329.725Z" fill="#2C1B14"/>
<path d="M535.779 329.725C536.398 329.717 536.902 330.24 536.899 329.939C536.896 329.638 536.397 328.945 535.779 328.952C535.16 328.96 534.656 329.663 534.659 329.964C534.662 330.266 535.161 329.732 535.779 329.725Z" fill="#2C1B14"/>
<path d="M531.527 332.509C531.527 332.509 531.234 334.913 531.527 335.34" stroke="#B52A2A" stroke-width="0.5" stroke-miterlimit="10" stroke-linecap="round" stroke-linejoin="round"/>
<path d="M531.527 337.714C531.527 337.714 533.408 337.342 534.886 337.714" stroke="#B52A2A" stroke-width="0.5" stroke-miterlimit="10" stroke-linecap="round" stroke-linejoin="round"/>
<path d="M360.704 277.88L370.518 273.267L381.175 277.88H360.704Z" stroke="#548D93" stroke-opacity="0.5" stroke-width="0.5" stroke-miterlimit="10"/>
<path d="M367.418 263.371L368.971 261.223C369.836 260.308 371.221 260.354 372.032 261.327C372.846 262.304 372.919 263.774 372.208 264.842L370.489 267.421V273.269" stroke="#548D93" stroke-opacity="0.5" stroke-width="0.5" stroke-miterlimit="10" stroke-linecap="round" stroke-linejoin="round"/>
<path d="M385.216 277.88L381.366 303.817H359.762L355.912 277.88L363.038 275.579C363.038 280.824 368.231 285.057 370.563 285.057C372.96 285.057 378.089 280.824 378.089 275.579L385.216 277.88Z" fill="#6FA5A5" fill-opacity="0.5"/>
<path d="M396.438 349.69C378.855 355.724 361.592 355.968 344.689 349.69L359.76 303.817H381.365L396.438 349.69Z" fill="#6FA5A5" fill-opacity="0.5"/>
<path d="M424.079 277.886L433.894 273.273L444.551 277.886H424.079Z" stroke="#548D93" stroke-opacity="0.5" stroke-width="0.5" stroke-miterlimit="10"/>
<path d="M430.792 263.375L432.346 261.228C433.21 260.312 434.596 260.359 435.406 261.332C436.221 262.309 436.294 263.779 435.582 264.846L433.864 267.426V273.273" stroke="#548D93" stroke-opacity="0.5" stroke-width="0.5" stroke-miterlimit="10" stroke-linecap="round" stroke-linejoin="round"/>
<path d="M448.968 277.88L445.118 299.265H423.513L419.663 277.88L426.79 275.579C426.79 280.824 431.983 285.057 434.316 285.057C436.713 285.057 441.842 280.824 441.842 275.579L448.968 277.88Z" fill="#A1C9C1" fill-opacity="0.5"/>
<path d="M460.189 349.69C442.607 355.724 425.344 355.968 408.441 349.69L423.512 303.817H445.117L460.189 349.69Z" fill="#6FA5A5" fill-opacity="0.5"/>
<path d="M445.117 299.265H423.512V303.817H445.117V299.265Z" fill="#8DB7B2" fill-opacity="0.5"/>
<path d="M419.662 277.88C416.336 278.347 413.821 279.944 412.043 282.568C412.043 282.568 416.643 289.036 421.647 288.905L419.662 277.88Z" fill="#6FA5A5" fill-opacity="0.5"/>
<path d="M448.93 277.88C452.255 278.347 454.771 279.944 456.549 282.568C456.549 282.568 451.949 289.036 446.944 288.905L448.93 277.88Z" fill="#6FA5A5" fill-opacity="0.5"/>
<path d="M613.116 277.88L622.931 273.267L633.587 277.88H613.116Z" stroke="#548D93" stroke-opacity="0.5" stroke-width="0.5" stroke-miterlimit="10"/>
<path d="M619.83 263.371L621.383 261.223C622.247 260.308 623.633 260.354 624.443 261.327C625.258 262.304 625.331 263.774 624.619 264.842L622.901 267.421V273.269" stroke="#548D93" stroke-opacity="0.5" stroke-width="0.5" stroke-miterlimit="10" stroke-linecap="round" stroke-linejoin="round"/>
<path d="M638.003 277.88L634.153 299.265H612.549L608.699 277.88L615.825 275.579C615.825 280.824 621.018 285.057 623.35 285.057C625.747 285.057 630.876 280.824 630.876 275.579L638.003 277.88Z" fill="#A1C9C1" fill-opacity="0.5"/>
<path d="M649.226 349.69C631.644 355.724 614.38 355.968 597.478 349.69L612.549 303.817H634.154L649.226 349.69Z" fill="#A1C9C1" fill-opacity="0.5"/>
<path d="M634.153 299.265H612.549V303.817H634.153V299.265Z" fill="#8DB7B2" fill-opacity="0.5"/>
<path d="M610.84 281.503L608.235 277.88L596.418 327.579L600.981 330.547L610.84 301.542V281.503Z" fill="#6FA5A5" fill-opacity="0.5"/>
<path d="M614.082 276.142C614.082 276.142 617.877 307.45 614.082 312.869C610.287 318.288 607.601 318.875 607.601 318.875L608.234 277.88L614.082 276.142Z" fill="#6FA5A5" fill-opacity="0.5"/>
<path d="M635.397 281.503L638.004 277.88L649.819 327.579L645.256 330.547L635.397 301.542V281.503Z" fill="#6FA5A5" fill-opacity="0.5"/>
<path d="M632.156 276.142C632.156 276.142 628.361 307.45 632.156 312.869C635.951 318.288 638.637 318.875 638.637 318.875L638.004 277.88L632.156 276.142Z" fill="#6FA5A5" fill-opacity="0.5"/>
<path d="M343.002 366.159H338.808V469.507H343.002V366.159Z" fill="#73A7A8" fill-opacity="0.5"/>
<path d="M350.737 469.507H331.072V474.853H350.737V469.507Z" fill="#457D87" fill-opacity="0.5"/>
<path d="M503.113 366.159H498.918V469.507H503.113V366.159Z" fill="#73A7A8" fill-opacity="0.5"/>
<path d="M510.848 469.507H491.184V474.853H510.848V469.507Z" fill="#457D87" fill-opacity="0.5"/>
<path d="M368.857 372.197C371.073 373.675 371.191 375.274 368.857 377.013V379.725" stroke="#548D93" stroke-opacity="0.5" stroke-width="0.5" stroke-miterlimit="10"/>
<path d="M361.332 382.282C361.332 382.282 364.801 385.47 368.857 385.47C372.914 385.47 376.384 382.282 376.384 382.282L378.233 386.285L368.857 395.132L360.15 387.682L361.332 382.282Z" fill="#6FA5A5" fill-opacity="0.5"/>
<path d="M358.956 384.222L368.769 379.609L379.426 384.222H358.956Z" stroke="#548D93" stroke-opacity="0.5" stroke-width="0.5" stroke-miterlimit="10"/>
<path d="M383.509 384.583L385.611 434.025H352.102L354.204 384.583L361.33 382.282C361.33 387.527 366.523 391.76 368.857 391.76C371.254 391.76 376.383 387.527 376.383 382.282L383.509 384.583Z" fill="#A1C9C1" fill-opacity="0.5"/>
<path d="M383.509 384.583L393.599 405.859L384.632 410.98L383.509 384.583Z" fill="#6FA5A5" fill-opacity="0.5"/>
<path d="M354.226 384.583L344.136 405.859L353.103 410.98L354.226 384.583Z" fill="#6FA5A5" fill-opacity="0.5"/>
<path d="M469.568 381.915C469.568 381.915 473.037 385.103 477.094 385.103C481.15 385.103 484.619 381.915 484.619 381.915L486.468 385.917L477.092 394.765L468.385 387.313L469.568 381.915Z" fill="#588B93" fill-opacity="0.5"/>
<path d="M466.859 384.222L476.673 379.609L487.33 384.222H466.859Z" stroke="#A1C9C1" stroke-opacity="0.5" stroke-width="0.5" stroke-miterlimit="10"/>
<path d="M491.747 384.216L493.849 433.657H460.34L462.442 384.216L469.568 381.915C469.568 387.16 474.761 391.393 477.095 391.393C479.492 391.393 484.621 387.16 484.621 381.915L491.747 384.216Z" fill="#6FA5A5" fill-opacity="0.5"/>
<path d="M491.747 385.701L501.837 406.976L492.87 412.097L491.747 385.701Z" fill="#A1C9C1" fill-opacity="0.5"/>
<path d="M462.464 384.216L452.374 405.491L461.341 410.613L462.464 384.216Z" fill="#A1C9C1" fill-opacity="0.5"/>
<path d="M476.693 372.081C478.909 373.559 479.027 375.158 476.693 376.897V379.609" stroke="#A1C9C1" stroke-opacity="0.5" stroke-width="0.5" stroke-miterlimit="10"/>
<path d="M413.844 384.222L423.658 379.609L434.315 384.222H413.844Z" stroke="#548D93" stroke-opacity="0.5" stroke-width="0.5" stroke-miterlimit="10"/>
<path d="M424.079 391.394V387.52L418.265 380.007L416.552 381.915C416.552 381.915 414.982 391.211 424.079 391.394Z" fill="#6FA5A5" fill-opacity="0.5"/>
<path d="M424.079 391.394V387.52L429.892 380.007L431.606 381.915C431.606 381.915 433.177 391.211 424.079 391.394Z" fill="#6FA5A5" fill-opacity="0.5"/>
<path d="M435.538 430.787H413.074C411.31 430.787 409.88 429.222 409.88 427.292V422.213H438.732V427.292C438.732 429.221 437.302 430.787 435.538 430.787Z" fill="#6FA5A5" fill-opacity="0.5"/>
<path d="M450.091 420.633L452.303 427.674L444.144 430.34L440.565 424.19L450.091 420.633Z" fill="#62979B" fill-opacity="0.5"/>
<path d="M438.732 384.21L451.234 419.705C451.797 421.303 450.874 423.024 449.154 423.578L443.146 425.516C440.968 426.218 438.692 424.726 438.693 422.597L438.732 384.21Z" fill="#6FA5A5" fill-opacity="0.5"/>
<path d="M398.111 420.633L395.897 427.674L404.057 430.34L407.636 424.19L398.111 420.633Z" fill="#62979B" fill-opacity="0.5"/>
<path d="M409.47 384.21L396.968 419.705C396.405 421.303 397.328 423.024 399.048 423.578L405.056 425.516C407.234 426.218 409.511 424.726 409.509 422.597L409.47 384.21Z" fill="#6FA5A5" fill-opacity="0.5"/>
<path d="M438.732 384.216L440.475 418.885C440.671 422.768 437.846 426.035 434.292 426.035H413.868C410.313 426.035 407.488 422.768 407.684 418.885L409.427 384.216L416.554 381.915C416.554 387.16 421.747 391.393 424.079 391.393C426.476 391.393 431.604 387.16 431.604 381.915L438.732 384.216Z" fill="#A1C9C1" fill-opacity="0.5"/>
<path d="M424.079 387.795V391.394V426.033V430.34" stroke="#456870" stroke-opacity="0.5" stroke-width="0.25" stroke-miterlimit="10" stroke-linecap="round" stroke-linejoin="round"/>
<path d="M423.794 372.081C426.01 373.559 426.128 375.158 423.794 376.897V379.609" stroke="#548D93" stroke-opacity="0.5" stroke-width="0.5" stroke-miterlimit="10"/>
<path d="M501.837 372.708H340.276V376.432H501.837V372.708Z" fill="#73A7A8" fill-opacity="0.5"/>
<path d="M474.084 375.137C474.084 375.137 473.956 371.857 476.693 372.081" stroke="#A1C9C1" stroke-opacity="0.5" stroke-width="0.5" stroke-miterlimit="10" stroke-linecap="round" stroke-linejoin="round"/>
<path d="M421.185 375.137C421.185 375.137 421.057 371.857 423.794 372.081" stroke="#548D93" stroke-opacity="0.5" stroke-width="0.5" stroke-miterlimit="10" stroke-linecap="round" stroke-linejoin="round"/>
<path d="M366.248 375.265C366.248 375.265 366.12 371.985 368.857 372.209" stroke="#548D93" stroke-opacity="0.5" stroke-width="0.5" stroke-miterlimit="10" stroke-linecap="round" stroke-linejoin="round"/>
<path d="M625.758 379.995L636.212 375.083L647.564 379.995H625.758Z" stroke="#548D93" stroke-opacity="0.5" stroke-width="0.5" stroke-miterlimit="10"/>
<path d="M636.662 387.636V383.508L630.47 375.506L628.645 377.539C628.645 377.539 626.971 387.441 636.662 387.636Z" fill="#6FA5A5" fill-opacity="0.5"/>
<path d="M636.662 387.636V383.508L642.854 375.506L644.678 377.539C644.678 377.539 646.353 387.441 636.662 387.636Z" fill="#6FA5A5" fill-opacity="0.5"/>
<path d="M649.076 429.599H624.729C622.965 429.599 621.535 428.034 621.535 426.104V420.466H652.27V426.104C652.27 428.033 650.84 429.599 649.076 429.599Z" fill="#6FA5A5" fill-opacity="0.5"/>
<path d="M664.369 418.782L666.727 426.284L658.035 429.123L654.222 422.572L664.369 418.782Z" fill="#62979B" fill-opacity="0.5"/>
<path d="M652.268 379.983L665.587 417.794C666.187 419.497 665.201 421.33 663.371 421.92L656.972 423.985C654.652 424.733 652.226 423.142 652.229 420.874L652.268 379.983Z" fill="#7DB2AA" fill-opacity="0.5"/>
<path d="M608.997 418.782L606.64 426.284L615.332 429.123L619.145 422.572L608.997 418.782Z" fill="#62979B" fill-opacity="0.5"/>
<path d="M621.098 379.983L607.78 417.794C607.18 419.497 608.163 421.33 609.995 421.92L616.395 423.985C618.715 424.733 621.141 423.142 621.138 420.874L621.098 379.983Z" fill="#7DB2AA" fill-opacity="0.5"/>
<path d="M654.124 416.919C654.328 421.06 651.33 424.533 647.544 424.533H625.78C621.996 424.533 618.981 421.062 619.2 416.919L620.079 399.391L621.054 379.989L628.638 377.531C628.638 383.133 634.181 387.636 636.663 387.636C639.207 387.636 644.671 383.133 644.671 377.531L652.271 379.989L653.245 399.391L654.124 416.919Z" fill="#A1C9C1" fill-opacity="0.5"/>
<path d="M650.93 417.579L643.256 413.051L642.666 414.248L650.34 418.776L650.93 417.579Z" fill="#62979B" fill-opacity="0.5"/>
<path d="M623.888 418.769L631.562 414.241L630.972 413.044L623.298 417.572L623.888 418.769Z" fill="#62979B" fill-opacity="0.5"/>
<path d="M653.245 399.391H620.081L621.055 379.989L628.64 377.531C628.64 383.133 634.182 387.636 636.665 387.636C639.209 387.636 644.673 383.133 644.673 377.531L652.273 379.989L653.245 399.391Z" fill="#8ABCB4" fill-opacity="0.5"/>
<path d="M636.662 383.802V387.636V424.536V429.123" stroke="#456870" stroke-opacity="0.5" stroke-width="0.25" stroke-miterlimit="10" stroke-linecap="round" stroke-linejoin="round"/>
<path d="M636.356 367.064C638.716 368.639 638.842 370.34 636.356 372.194V375.082" stroke="#548D93" stroke-opacity="0.5" stroke-width="0.5" stroke-miterlimit="10"/>
<path d="M638.8 365.272H634.568V469.579H638.8V365.272Z" fill="#457C89" fill-opacity="0.5"/>
<path d="M646.608 469.579H626.76V474.975H646.608V469.579Z" fill="#2D5B70" fill-opacity="0.5"/>
<path d="M558.388 380.87L568.746 376.001L579.994 380.87H558.388Z" stroke="#548D93" stroke-opacity="0.5" stroke-width="0.5" stroke-miterlimit="10"/>
<path d="M581.462 430.016H557.399C555.635 430.016 554.205 428.451 554.205 426.521V420.967H584.657V426.521C584.656 428.451 583.226 430.016 581.462 430.016Z" fill="#6FA5A5" fill-opacity="0.5"/>
<path d="M596.644 419.3L598.98 426.732L590.368 429.545L586.591 423.054L596.644 419.3Z" fill="#62979B" fill-opacity="0.5"/>
<path d="M584.654 380.856L597.85 418.32C598.445 420.006 597.469 421.823 595.656 422.408L589.315 424.453C587.016 425.194 584.613 423.619 584.616 421.371L584.654 380.856Z" fill="#7DB2AA" fill-opacity="0.5"/>
<path d="M541.782 419.3L539.446 426.732L548.058 429.545L551.835 423.054L541.782 419.3Z" fill="#62979B" fill-opacity="0.5"/>
<path d="M553.771 380.856L540.575 418.32C539.981 420.006 540.957 421.823 542.77 422.408L549.111 424.453C551.41 425.194 553.813 423.619 553.81 421.371L553.771 380.856Z" fill="#7DB2AA" fill-opacity="0.5"/>
<path d="M586.494 417.454C586.696 421.557 583.724 424.997 579.975 424.997H558.41C554.66 424.997 551.673 421.557 551.89 417.454L552.761 400.086L553.726 380.862L561.24 378.427C561.24 383.978 566.732 388.438 569.191 388.438C571.712 388.438 577.126 383.978 577.126 378.427L584.657 380.862L585.622 400.086L586.494 417.454Z" fill="#A1C9C1" fill-opacity="0.5"/>
<path d="M578.194 421.503H560.66C559.036 421.503 557.864 419.802 558.31 418.094L560.024 411.531C560.324 410.384 561.283 409.592 562.374 409.592H576.481C577.572 409.592 578.531 410.384 578.831 411.531L580.546 418.094C580.99 419.802 579.818 421.503 578.194 421.503Z" fill="#7DB2AA" fill-opacity="0.5"/>
<path d="M569.191 388.44C569.191 388.44 580.026 376.593 581.891 378.125C583.757 379.656 583.889 380.614 583.889 380.614C583.889 380.614 576.54 386.463 569.191 388.44Z" fill="#6FA5A5" fill-opacity="0.5"/>
<path d="M569.191 388.44C569.191 388.44 575.665 375.325 577.49 376.001C579.314 376.677 579.761 378.667 579.761 378.667C578.036 381.29 573.593 384.872 569.191 388.44Z" fill="#7FB2AF" fill-opacity="0.5"/>
<path d="M569.213 388.44C569.213 388.44 558.378 376.593 556.512 378.125C554.646 379.656 554.514 380.614 554.514 380.614C554.514 380.614 561.864 386.463 569.213 388.44Z" fill="#6FA5A5" fill-opacity="0.5"/>
<path d="M569.213 388.44C569.213 388.44 562.739 375.325 560.914 376.001C559.09 376.677 558.643 378.667 558.643 378.667C560.368 381.29 564.813 384.872 569.213 388.44Z" fill="#7FB2AF" fill-opacity="0.5"/>
<path d="M569.191 384.64V388.44V425V429.545" stroke="#456870" stroke-opacity="0.5" stroke-width="0.25" stroke-miterlimit="10" stroke-linecap="round" stroke-linejoin="round"/>
<path d="M568.89 368.056C571.229 369.616 571.353 371.303 568.89 373.138V376" stroke="#548D93" stroke-opacity="0.5" stroke-width="0.5" stroke-miterlimit="10"/>
<path d="M571.31 366.281H567.116V469.627H571.31V366.281Z" fill="#457C89" fill-opacity="0.5"/>
<path d="M579.046 469.629H559.381V474.975H579.046V469.629Z" fill="#2D5B70" fill-opacity="0.5"/>
<path d="M326.527 266.943H320.533V474.853H326.527V266.943Z" fill="#73A7A8" fill-opacity="0.5"/>
<path d="M326.527 266.943H320.533V275.579H326.527V266.943Z" fill="#5F969B" fill-opacity="0.5"/>
<path d="M676.215 266.943H670.221V474.853H676.215V266.943Z" fill="#73A7A8" fill-opacity="0.5"/>
<path d="M676.215 266.943H670.221V275.579H676.215V266.943Z" fill="#5F969B" fill-opacity="0.5"/>
<path d="M336.206 253.643C336.206 258.007 330.621 269.688 323.731 269.688C316.841 269.688 311.256 258.007 311.256 253.643C311.256 249.278 336.206 249.278 336.206 253.643Z" fill="#86B7B5" fill-opacity="0.5"/>
<path d="M361.154 253.643C361.154 258.007 355.569 269.688 348.679 269.688C341.79 269.688 336.204 258.007 336.204 253.643C336.204 249.278 361.154 249.278 361.154 253.643Z" fill="#86B7B5" fill-opacity="0.5"/>
<path d="M386.104 253.643C386.104 258.007 380.519 269.688 373.629 269.688C366.739 269.688 361.154 258.007 361.154 253.643C361.154 249.278 386.104 249.278 386.104 253.643Z" fill="#86B7B5" fill-opacity="0.5"/>
<path d="M411.052 253.643C411.052 258.007 405.467 269.688 398.577 269.688C391.688 269.688 386.103 258.007 386.103 253.643C386.103 249.278 411.052 249.278 411.052 253.643Z" fill="#86B7B5" fill-opacity="0.5"/>
<path d="M436.002 253.643C436.002 258.007 430.417 269.688 423.527 269.688C416.637 269.688 411.052 258.007 411.052 253.643C411.052 249.278 436.002 249.278 436.002 253.643Z" fill="#86B7B5" fill-opacity="0.5"/>
<path d="M460.95 253.643C460.95 258.007 455.365 269.688 448.475 269.688C441.586 269.688 436 258.007 436 253.643C436 249.278 460.95 249.278 460.95 253.643Z" fill="#86B7B5" fill-opacity="0.5"/>
<path d="M485.9 253.643C485.9 258.007 480.315 269.688 473.425 269.688C466.535 269.688 460.95 258.007 460.95 253.643C460.95 249.278 485.9 249.278 485.9 253.643Z" fill="#86B7B5" fill-opacity="0.5"/>
<path d="M510.848 253.643C510.848 258.007 505.263 269.688 498.373 269.688C491.484 269.688 485.898 258.007 485.898 253.643C485.898 249.278 510.848 249.278 510.848 253.643Z" fill="#86B7B5" fill-opacity="0.5"/>
<path d="M535.798 253.643C535.798 258.007 530.213 269.688 523.323 269.688C516.433 269.688 510.848 258.007 510.848 253.643C510.848 249.278 535.798 249.278 535.798 253.643Z" fill="#86B7B5" fill-opacity="0.5"/>
<path d="M560.746 253.643C560.746 258.007 555.161 269.688 548.271 269.688C541.382 269.688 535.797 258.007 535.797 253.643C535.797 249.278 560.746 249.278 560.746 253.643Z" fill="#86B7B5" fill-opacity="0.5"/>
<path d="M585.695 253.643C585.695 258.007 580.109 269.688 573.22 269.688C566.33 269.688 560.745 258.007 560.745 253.643C560.745 249.278 585.695 249.278 585.695 253.643Z" fill="#86B7B5" fill-opacity="0.5"/>
<path d="M610.644 253.643C610.644 258.007 605.059 269.688 598.169 269.688C591.28 269.688 585.695 258.007 585.695 253.643C585.695 249.278 610.644 249.278 610.644 253.643Z" fill="#86B7B5" fill-opacity="0.5"/>
<path d="M635.593 253.643C635.593 258.007 630.007 269.688 623.118 269.688C616.228 269.688 610.643 258.007 610.643 253.643C610.643 249.278 635.593 249.278 635.593 253.643Z" fill="#86B7B5" fill-opacity="0.5"/>
<path d="M660.542 253.643C660.542 258.007 654.957 269.688 648.067 269.688C641.178 269.688 635.593 258.007 635.593 253.643C635.593 249.278 660.542 249.278 660.542 253.643Z" fill="#86B7B5" fill-opacity="0.5"/>
<path d="M685.49 253.643C685.49 258.007 679.905 269.688 673.016 269.688C666.126 269.688 660.541 258.007 660.541 253.643C660.541 249.278 685.49 249.278 685.49 253.643Z" fill="#86B7B5" fill-opacity="0.5"/>
<path d="M311.256 242.335C382.029 219.879 502.578 157.458 502.578 157.458C502.578 157.458 623.636 222.943 685.491 242.335H311.256Z" fill="#8BBCB8" fill-opacity="0.5"/>
<path d="M685.491 237.862H311.256V253.883H685.491V237.862Z" fill="#8BBCB8" fill-opacity="0.5"/>
<path d="M685.491 240.987L311.256 245.872V237.862H685.491V240.987Z" fill="#A1C9C1" fill-opacity="0.5"/>
<path d="M225.392 376.227C225.592 376.736 225.003 396.999 225.003 396.999L229.365 398.239L232.939 380.41L225.392 376.227Z" fill="#EF745D" fill-opacity="0.5"/>
<path d="M228.692 395.932C228.692 395.932 232.317 399.773 232.317 403.265C232.317 406.757 232.104 407.765 231.573 407.376C231.042 406.989 229.365 402.729 229.365 402.729C229.365 402.729 229.769 409.245 231.052 411.224C232.333 413.203 230.476 413.778 229.494 412.731C228.511 411.683 226.919 407.834 226.919 407.834C226.919 407.834 227.394 409.414 227.774 410.608C228.199 411.945 228.513 412.92 228.063 413.043C227.623 413.164 226.472 412.432 225.653 410.774C224.89 409.229 224.443 406.822 224.341 405.059C224.127 401.403 225.045 395.478 225.045 395.478L228.692 395.932Z" fill="#EF745D" fill-opacity="0.5"/>
<path d="M240.155 354.31L235.964 344.43C235.964 344.43 231.386 346.449 228.52 354.647C225.654 362.844 222.991 387.916 222.991 387.916L233.938 391.661L240.155 354.31Z" fill="#E99944" fill-opacity="0.5"/>
<path d="M235.193 390.333L222.991 384.35L221.985 393.102L235.193 396.794V390.333Z" fill="#F4C06E" fill-opacity="0.5"/>
<path d="M260.96 465.801L260.559 459.009L254.508 459.661L255.644 468.614L260.96 465.801Z" fill="#EF745D" fill-opacity="0.5"/>
<path d="M260.96 465.801C258.902 465.633 248.36 468.12 248.773 470.714C249.184 473.307 251.656 473.554 255.773 473.431C259.89 473.308 262.607 473.988 262.525 471.651C262.442 469.314 260.96 465.801 260.96 465.801Z" fill="#5D515D" fill-opacity="0.5"/>
<path d="M242.408 467.588C242.408 467.215 242.408 458.169 242.408 458.169H235.932L236.869 468.614L242.408 467.588Z" fill="#EF745D" fill-opacity="0.5"/>
<path d="M242.467 465.801C239.65 465.633 225.228 468.12 225.792 470.714C226.355 473.308 229.736 473.555 235.369 473.431C241.003 473.308 244.721 473.988 244.608 471.651C244.495 469.314 242.467 465.801 242.467 465.801Z" fill="#5D515D" fill-opacity="0.5"/>
<path d="M234.414 377.771C234.414 377.771 231.563 391.848 231.822 403.786C232.081 415.725 234.414 461.041 234.414 461.041H243.434L245.041 400.823L253.491 461.44H261.436C261.436 461.44 260.334 416.245 260.076 403.788C259.817 391.331 259.817 380.752 259.817 380.752L234.414 377.771Z" fill="#F1E1C7" fill-opacity="0.5"/>
<path d="M235.964 344.43C238.233 343.278 258.972 345.397 260.988 347.586C263.005 349.776 259.43 388.839 259.43 388.839C259.43 388.839 233.512 389.69 232.526 390.333C229.915 392.037 235.964 344.43 235.964 344.43Z" fill="#E99944" fill-opacity="0.5"/>
<path d="M258.268 321.927C257.767 327.605 253.055 331.753 247.745 331.192C242.435 330.63 238.536 325.573 239.036 319.896C239.537 314.219 244.249 310.07 249.559 310.632C254.869 311.192 258.768 316.25 258.268 321.927Z" fill="#F2B864" fill-opacity="0.5"/>
<path d="M271.598 327.498C270.857 332.173 260.15 334.044 247.686 331.674C235.222 329.303 225.72 323.591 226.463 318.916C227.206 314.24 237.911 312.369 250.375 314.74C262.839 317.11 272.341 322.822 271.598 327.498Z" fill="#E99944" fill-opacity="0.5"/>
<path d="M237.972 329.082C237.626 330.285 238.602 331.691 240.148 332.223C241.695 332.755 243.229 332.209 243.575 331.005C243.92 329.802 242.944 328.395 241.398 327.863C239.851 327.332 238.317 327.879 237.972 329.082Z" fill="#DB5846" fill-opacity="0.5"/>
<path d="M255.847 326.594C255.847 332.654 249.929 338.034 245.756 338.034C241.582 338.034 240.732 332.654 240.732 326.594C240.732 320.534 244.116 315.622 248.289 315.622C252.462 315.622 255.847 320.534 255.847 326.594Z" fill="#EF745D"/>
<path d="M253.31 328.921C252.852 335.635 252.431 342.302 254.586 345.71C254.586 345.71 247.806 351.905 246.202 349.792C244.597 347.68 244.014 344.356 244.014 344.356C246.879 342.4 247.178 337.432 247.3 332.255L253.31 328.921Z" fill="#EF745D"/>
<path d="M246.665 318.968C246.993 318.822 246.998 322.742 250.928 325.822L252.593 331.143L256.377 329.461C256.377 329.461 261.038 314.645 250.2 315.622C250.2 315.622 244.923 312.473 241.624 315.622C238.324 318.771 240.864 324.561 240.864 324.561C240.864 324.561 243.059 320.566 246.665 318.968Z" fill="#291D12"/>
<path d="M252.31 332.344C252.766 333.502 254.343 333.871 255.832 333.169C257.321 332.466 258.159 330.957 257.702 329.799C257.245 328.641 255.668 328.272 254.18 328.973C252.689 329.677 251.853 331.186 252.31 332.344Z" fill="#EF745D"/>
<path d="M247.792 329.925C248.072 329.925 248.299 329.523 248.299 329.026C248.299 328.53 248.072 328.127 247.792 328.127C247.513 328.127 247.286 328.53 247.286 329.026C247.286 329.523 247.513 329.925 247.792 329.925Z" fill="#2C1B14"/>
<path d="M241.434 328.613C241.434 329.11 241.661 329.513 241.94 329.513C242.219 329.513 242.446 329.11 242.446 328.613C242.446 328.117 242.219 327.714 241.94 327.714C241.661 327.713 241.434 328.117 241.434 328.613Z" fill="#2C1B14"/>
<path d="M242.251 325.782C242.88 325.775 243.393 326.306 243.39 326.001C243.388 325.695 242.88 324.99 242.251 324.998C241.622 325.005 241.109 325.721 241.112 326.026C241.114 326.332 241.622 325.79 242.251 325.782Z" fill="#2C1B14"/>
<path d="M248.161 325.782C248.79 325.775 249.303 326.306 249.3 326.001C249.297 325.695 248.79 324.99 248.161 324.998C247.532 325.005 247.019 325.721 247.021 326.026C247.024 326.332 247.532 325.79 248.161 325.782Z" fill="#2C1B14"/>
<path d="M243.837 328.613C243.837 328.613 243.54 331.057 243.837 331.491" stroke="#B52A2A" stroke-width="0.5" stroke-miterlimit="10" stroke-linecap="round" stroke-linejoin="round"/>
<path d="M251.521 327.713C251.521 327.713 251.29 334.054 248.652 334.922C248.652 334.922 249.15 332.798 246.711 332.425C244.271 332.053 242.669 332.356 242.251 332.701C241.833 333.044 241.662 334.533 241.662 334.533C241.662 334.533 240.863 330.949 240.803 329.326C240.803 329.326 237.9 339.932 243.839 340.492C249.778 341.052 251.945 337.849 252.186 336.781C252.426 335.714 253.68 327.654 253.68 327.654L251.521 327.713Z" fill="#291D12"/>
<path d="M237.903 322.533C237.903 322.533 247.961 321.483 259.827 327.656C260.535 326.754 260.585 316.381 250.069 314.643C247.544 314.226 245.299 313.966 243.645 314.369C237.802 315.795 237.114 321.512 237.903 322.533Z" fill="#E99944" fill-opacity="0.5"/>
<path d="M237.564 360.04C239.189 359.037 254.51 359.325 255.477 361.051C256.444 362.776 260.567 372.398 260.565 373.643C260.564 374.887 259.877 390.675 259.877 390.675L232.111 392.958C232.111 392.958 231.056 378.92 233.345 367.243C233.345 367.243 236.897 360.453 237.564 360.04Z" fill="#F1E1C7" fill-opacity="0.5"/>
<path d="M251.836 362.276C251.836 362.276 252.722 351.291 255.059 345.71C256.469 345.845 257.76 346.095 258.81 346.576C258.81 346.576 256.007 360.115 256.319 364.495L251.836 362.276Z" fill="#F1E1C7" fill-opacity="0.5"/>
<path d="M241.583 360.453L243.405 344.046H238.836L236.905 362.276L241.583 360.453Z" fill="#F1E1C7" fill-opacity="0.5"/>
<path d="M239.736 365.044L251.17 365.454C251.17 365.454 250.807 373.941 250.463 374.759C250.119 375.576 244.831 377.701 244.252 377.56C243.672 377.418 239.654 376.161 239.375 375.256C239.096 374.349 239.736 365.044 239.736 365.044Z" stroke="#BCA68E" stroke-opacity="0.5" stroke-width="0.5" stroke-miterlimit="10"/>
<path d="M272.037 377.996C271.838 378.505 272.427 398.769 272.427 398.769L268.065 400.008L264.49 382.18L272.037 377.996Z" fill="#EF745D" fill-opacity="0.5"/>
<path d="M268.737 397.7C268.737 397.7 265.112 401.541 265.112 405.033C265.112 408.525 265.325 409.533 265.856 409.144C266.387 408.757 268.064 404.497 268.064 404.497C268.064 404.497 267.66 411.013 266.377 412.992C265.096 414.971 266.953 415.546 267.934 414.499C268.916 413.451 270.508 409.602 270.508 409.602C270.508 409.602 270.034 411.182 269.654 412.376C269.229 413.713 268.915 414.688 269.365 414.811C269.805 414.932 270.955 414.2 271.774 412.542C272.538 410.997 272.985 408.59 273.087 406.827C273.299 403.171 272.382 397.246 272.382 397.246L268.737 397.7Z" fill="#EF745D" fill-opacity="0.5"/>
<path d="M258.81 353.161L260.989 347.586C260.989 347.586 265.527 351.801 267.277 356.712C269.028 361.623 274.722 386.357 274.722 386.357L263.048 392.787L258.811 363.969L258.81 353.161Z" fill="#E99944" fill-opacity="0.5"/>
<path d="M260.565 389.176C261.212 389.58 263.046 394.453 263.046 394.453L275.562 387.681L274.036 379.085L260.565 389.176Z" fill="#F4C06E" fill-opacity="0.5"/>
<path d="M270.609 421.75H58.7966V425.834H270.609V421.75Z" fill="#8BBCB8" fill-opacity="0.5"/>
<path d="M63.7476 425.831V474.973H265.658V425.831H63.7476ZM258.041 474.905H71.3665H258.041Z" fill="#8BBCB8"/>
<path d="M265.657 425.834H63.7502V429.918H265.657V425.834Z" fill="#74A6AA" fill-opacity="0.5"/>
<path d="M271.777 347.939C272.391 345.096 270.858 342.114 268.711 340.378C266.565 338.641 263.904 337.89 261.315 337.173C260.802 340.079 261.666 343.237 263.556 345.356C265.445 347.476 268.307 348.5 270.975 348.011" fill="#B4D8D3" fill-opacity="0.5"/>
<path d="M273.929 352.809C272.622 348.187 273.917 342.808 277.133 339.489C277.973 341.185 278.784 342.929 279.147 344.817C279.51 346.704 279.386 348.774 278.452 350.411C277.518 352.048 275.673 353.123 273.955 352.685" fill="#B4D8D3" fill-opacity="0.5"/>
<path d="M276.193 359.525C274.275 357.48 271.677 356.214 269.004 356.021C266.332 355.828 263.606 356.711 261.458 358.462C263.593 360.072 265.863 361.609 268.411 362.127C270.96 362.644 273.866 361.939 275.474 359.716" fill="#B4D8D3" fill-opacity="0.5"/>
<path d="M278.419 365.633C277.738 360.725 280.425 355.495 284.611 353.583C284.915 356.337 285.101 359.219 284.178 361.802C283.253 364.385 280.906 366.559 278.389 366.232" fill="#B4D8D3" fill-opacity="0.5"/>
<path d="M279.582 371.28C276.37 369.169 272.273 368.753 268.76 370.184C268.451 370.309 268.114 370.485 268.008 370.827C267.887 371.22 268.132 371.628 268.377 371.946C269.893 373.921 272.033 375.476 274.389 375.588C276.745 375.701 279.232 374.057 279.75 371.539" fill="#B4D8D3" fill-opacity="0.5"/>
<path d="M281.507 377.51C281.605 372.61 284.795 367.967 289.071 366.505C289.086 369.179 288.893 371.968 287.663 374.28C286.433 376.591 283.898 378.263 281.541 377.561" fill="#B4D8D3" fill-opacity="0.5"/>
<path d="M283.065 382.422C279.125 379.94 273.9 380.142 270.13 382.921C271.845 384.541 274.074 385.497 276.337 385.583C278.601 385.669 280.885 384.886 282.699 383.4" fill="#B4D8D3" fill-opacity="0.5"/>
<path d="M284.039 389.23C284.061 386.996 284.827 384.777 286.162 383.086C287.498 381.395 289.391 380.243 291.409 379.897C291.508 382.07 290.867 384.274 289.638 385.985C288.409 387.696 286.604 388.897 284.651 389.306" fill="#B4D8D3" fill-opacity="0.5"/>
<path d="M285.075 395.045C283.242 393.355 280.703 392.775 278.32 393.057C275.938 393.34 273.687 394.411 271.608 395.712C272.579 397.025 274.031 397.844 275.538 398.21C277.046 398.577 278.613 398.525 280.147 398.332C281.14 398.208 282.151 398.016 283.011 397.461C283.871 396.907 284.559 395.919 284.555 394.826" fill="#B4D8D3" fill-opacity="0.5"/>
<path d="M270.615 345.339C270.615 345.339 286.11 379.499 287.761 417.833" stroke="#6FA5A5" stroke-opacity="0.5" stroke-width="0.5" stroke-miterlimit="10" stroke-linecap="round" stroke-linejoin="round"/>
<path d="M300.116 326.401C298.667 323.326 298.663 319.486 300.105 316.407C301.547 313.327 304.398 311.089 307.526 310.58C306.389 312.791 306.419 315.469 305.84 317.925C305.017 321.411 302.878 324.501 300.033 326.311" fill="#B4D8D3" fill-opacity="0.5"/>
<path d="M299.896 331.875C299.868 330.719 300.49 329.63 301.321 328.915C302.151 328.198 303.171 327.8 304.185 327.474C306.728 326.654 309.372 326.209 312.022 326.153C311.739 329.151 309.914 331.917 307.405 333.157C304.893 334.396 301.792 334.06 299.55 332.309" fill="#B4D8D3" fill-opacity="0.5"/>
<path d="M298.342 337.608C299.216 335.059 298.224 332.106 296.523 330.118C294.823 328.13 292.526 326.907 290.283 325.73C289.709 328.473 289.912 331.542 291.417 333.825C292.922 336.108 295.925 337.29 298.213 336.006" fill="#B4D8D3" fill-opacity="0.5"/>
<path d="M298.148 341.917C299.176 339.177 301.745 337.424 304.388 336.792C307.032 336.16 309.777 336.471 312.467 336.786C311.134 339.421 308.904 341.499 306.315 342.52C303.725 343.541 300.797 343.496 298.234 342.395" fill="#B4D8D3" fill-opacity="0.5"/>
<path d="M296.732 349.544C297.184 346.942 295.636 344.312 293.58 342.913C291.524 341.515 289.054 341.09 286.653 340.743C286.533 343.519 287.816 346.318 289.918 347.875C292.021 349.433 294.873 349.693 297.182 348.539" fill="#B4D8D3" fill-opacity="0.5"/>
<path d="M296.156 355.991C296.974 353.339 298.752 351.056 301.017 349.755C303.282 348.452 306.008 348.143 308.468 348.911C307.641 351.356 305.993 353.456 303.91 354.721C301.826 355.986 299.326 356.403 296.994 355.876" fill="#B4D8D3" fill-opacity="0.5"/>
<path d="M295.107 363.635C295.216 361.325 293.617 359.246 291.707 358.253C289.799 357.259 287.624 357.125 285.514 357.006C285.728 359.362 286.974 361.581 288.797 362.856C290.62 364.132 292.983 364.434 295.027 363.657" fill="#B4D8D3" fill-opacity="0.5"/>
<path d="M294.988 367.881C296.234 364.086 300.017 361.498 303.68 361.93C303.303 363.44 302.919 364.967 302.217 366.332C301.515 367.696 300.452 368.902 299.095 369.396C297.738 369.89 296.076 369.536 295.195 368.303" fill="#B4D8D3" fill-opacity="0.5"/>
<path d="M294.361 375.066C293.383 373.199 291.707 371.863 289.902 371.006C288.096 370.149 286.149 369.724 284.22 369.306C284.422 371.833 285.79 374.215 287.783 375.512C289.775 376.807 292.341 376.983 294.466 375.969" fill="#B4D8D3" fill-opacity="0.5"/>
<path d="M293.415 383.287C295.605 379.085 300.134 376.489 304.538 376.912C303.994 378.543 303.348 380.156 302.373 381.525C301.397 382.894 300.057 384.009 298.509 384.383C296.959 384.756 295.201 384.288 294.161 382.978" fill="#B4D8D3" fill-opacity="0.5"/>
<path d="M293.362 393.15C292.727 390.759 290.678 389.071 288.497 388.357C286.316 387.643 283.993 387.739 281.719 387.843C282.774 389.961 284.518 391.659 286.562 392.561C288.607 393.463 290.938 393.564 293.041 392.841" fill="#B4D8D3" fill-opacity="0.5"/>
<path d="M300.694 324.861C300.694 324.861 290.236 382.812 294.364 417.833" stroke="#6FA5A5" stroke-opacity="0.5" stroke-width="0.5" stroke-miterlimit="10" stroke-linecap="round" stroke-linejoin="round"/>
<path d="M325.502 343.8C323.675 341.709 323.684 338.241 324.978 335.717C326.27 333.191 328.583 331.481 330.985 330.271C331.371 333.104 331.752 336.035 331.055 338.795C330.359 341.555 328.283 344.114 325.67 344.258" fill="#B4D8D3" fill-opacity="0.5"/>
<path d="M322.051 348.809C322.826 344.611 320.503 339.985 316.85 338.448C316.298 340.096 315.928 341.843 316.024 343.594C316.12 345.345 316.719 347.104 317.876 348.317C319.033 349.529 320.788 350.109 322.31 349.556" fill="#B4D8D3" fill-opacity="0.5"/>
<path d="M319.812 354.172C321.148 352.517 323.101 351.475 325.116 351.34C327.131 351.208 329.184 351.985 330.693 353.452C329.382 355.244 327.368 356.399 325.275 356.558C323.182 356.718 321.041 355.878 319.516 354.301" fill="#B4D8D3" fill-opacity="0.5"/>
<path d="M316.555 361.635C317.214 357.503 315.19 353.027 311.787 351.095C311.464 350.911 311.065 350.75 310.75 350.95C310.505 351.107 310.399 351.431 310.33 351.732C309.864 353.771 310.23 356.021 311.311 357.759C312.393 359.496 314.17 360.694 316.076 360.965" fill="#B4D8D3" fill-opacity="0.5"/>
<path d="M314.342 366.07C315.639 363.88 318.151 362.823 320.534 362.879C322.918 362.933 325.196 363.945 327.31 365.148C325.229 366.454 323.099 367.779 320.745 368.276C318.389 368.771 315.725 368.295 314.056 366.412" fill="#B4D8D3" fill-opacity="0.5"/>
<path d="M310.743 374.087C310.746 369.298 307.791 364.674 303.681 363.031C303.732 365.487 304.006 368.006 305.064 370.172C306.122 372.339 308.101 374.098 310.344 374.192" fill="#B4D8D3" fill-opacity="0.5"/>
<path d="M309.759 376.897C311.132 375.101 313.474 374.48 315.597 374.762C317.722 375.043 319.688 376.096 321.591 377.168C321.983 377.389 322.438 377.743 322.359 378.218C322.322 378.439 322.171 378.615 322.021 378.769C320.382 380.455 318.018 381.261 315.794 380.892C313.569 380.523 311.531 378.986 310.424 376.843" fill="#B4D8D3" fill-opacity="0.5"/>
<path d="M305.843 386.348C305.846 383.987 305.061 381.635 303.67 379.829C302.279 378.023 300.293 376.78 298.166 376.382C298.121 378.177 298.117 379.993 298.503 381.739C298.889 383.484 299.703 385.172 301.025 386.234C302.348 387.297 304.223 387.621 305.661 386.756" fill="#B4D8D3" fill-opacity="0.5"/>
<path d="M304.474 390.903C306.21 389.322 308.522 388.518 310.774 388.711C313.027 388.905 315.195 390.093 316.684 391.953C315.055 393.703 312.775 394.707 310.492 394.682C308.209 394.656 305.95 393.6 304.353 391.814" fill="#B4D8D3" fill-opacity="0.5"/>
<path d="M301.791 398.969C301.581 394.558 298.7 390.443 294.862 389.074C294.568 391.509 294.635 394.108 295.724 396.257C296.814 398.404 299.147 399.934 301.32 399.318" fill="#B4D8D3" fill-opacity="0.5"/>
<path d="M300.754 401.884C302.106 399.811 304.307 398.549 306.574 397.971C308.84 397.392 311.196 397.431 313.521 397.508C312.369 399.967 310.294 401.89 307.889 402.729C305.482 403.568 302.774 403.31 300.536 402.033" fill="#B4D8D3" fill-opacity="0.5"/>
<path d="M325.461 343.532C325.461 343.532 297.667 392.337 296.566 429.256" stroke="#6FA5A5" stroke-opacity="0.5" stroke-width="0.5" stroke-miterlimit="10" stroke-linecap="round" stroke-linejoin="round"/>
<path d="M315.203 421.509H270.61L277.555 404.298H308.258L315.203 421.509Z" fill="#B4D8D3" fill-opacity="0.5"/>
<path d="M315.211 421.503L314.6 426.161L313.796 432.349L312.859 439.563L312.665 441.012L310.479 457.786L309.392 466.173L308.261 474.853H277.548L276.417 466.173L275.331 457.786L273.144 441.012L272.965 439.563L272.028 432.349L271.224 426.161L270.615 421.503H315.211Z" fill="#A1C9C1" fill-opacity="0.5"/>
<path d="M271.224 426.161H314.6L313.796 432.349H272.028L271.224 426.161Z" fill="#B4D8D3" fill-opacity="0.5"/>
<path d="M272.965 439.563H312.859L312.665 441.012H273.143L272.965 439.563Z" fill="#B4D8D3" fill-opacity="0.5"/>
<path d="M310.479 457.786L309.392 466.173H276.417L275.331 457.786H310.479Z" fill="#B4D8D3" fill-opacity="0.5"/>
<path d="M240.688 396.094C240.85 396.46 244.637 385.377 256.027 382.073C256.027 382.073 249.648 392.908 250.559 401.055L239.021 407.577L229.751 404.47C229.751 404.47 230.207 388.286 221.093 380.618C221.093 380.618 233.853 380.674 240.688 396.094Z" fill="#72AAAA" fill-opacity="0.5"/>
<path d="M225.503 383.043C231.093 388 234.251 396.064 233.677 403.913" stroke="#CCE1E2" stroke-opacity="0.5" stroke-width="0.5" stroke-miterlimit="10" stroke-linecap="round" stroke-linejoin="round"/>
<path d="M252.393 386.231C246.91 390.796 243.4 398.085 243.057 405.617" stroke="#CCE1E2" stroke-opacity="0.5" stroke-width="0.5" stroke-miterlimit="10" stroke-linecap="round" stroke-linejoin="round"/>
<path d="M227.39 412.534C227.39 412.534 227.894 402.047 214.248 389.29C214.248 389.29 227.888 390.056 233.054 402.047C233.054 402.047 233.52 386.033 247.039 379.653C247.039 379.653 240.993 397.106 244.369 402.047C244.369 402.047 250.025 390.181 263.799 387.509C263.799 387.509 249.041 401.134 254.207 411.697L227.39 412.534Z" fill="#A1C9C1" fill-opacity="0.5"/>
<path d="M258.822 390.774C258.822 390.774 246.186 399.833 245.564 411.525" stroke="#CCE1E2" stroke-opacity="0.5" stroke-width="0.5" stroke-miterlimit="10" stroke-linecap="round" stroke-linejoin="round"/>
<path d="M243.946 383.661C243.946 383.661 235.616 397.889 237.623 411.527" stroke="#CCE1E2" stroke-opacity="0.5" stroke-width="0.5" stroke-miterlimit="10" stroke-linecap="round" stroke-linejoin="round"/>
<path d="M218.864 392.018C224.705 395.939 229.36 401.94 231.947 408.885" stroke="#CCE1E2" stroke-opacity="0.5" stroke-width="0.5" stroke-miterlimit="10" stroke-linecap="round" stroke-linejoin="round"/>
<path d="M262.379 406.614V408.311C262.379 408.613 262.369 408.912 262.35 409.203C261.928 415.972 256.783 421.333 250.481 421.333H229.421C223.127 421.333 217.973 415.972 217.552 409.203C217.532 408.912 217.523 408.613 217.523 408.311V406.614H262.379Z" fill="#B4D8D3" fill-opacity="0.5"/>
<path d="M265.657 404.027H214.248V406.614H265.657V404.027Z" fill="#B4D8D3" fill-opacity="0.5"/>
<path d="M262.379 406.614V408.311C262.379 408.613 262.369 408.912 262.35 409.203H217.55C217.531 408.912 217.521 408.613 217.521 408.311V406.614H262.379Z" fill="#95C5C6" fill-opacity="0.5"/>
<path d="M192.291 381.964C192.621 379.706 193.291 377.472 193.176 375.188C193.059 372.879 192.141 370.676 192.097 368.363C192.038 365.265 193.527 362.01 192.342 359.195C191.8 357.908 190.728 356.838 190.625 355.426C190.542 354.298 191.106 353.251 191.406 352.169C192.107 349.654 191.259 346.711 189.368 345.091C193.591 346.062 196.646 351.109 195.816 355.742C195.732 356.214 195.614 356.7 195.72 357.167C195.862 357.783 196.356 358.21 196.804 358.615C198.138 359.825 199.358 361.406 199.503 363.293C199.697 365.836 197.896 368.333 198.545 370.785C198.773 371.649 199.285 372.382 199.69 373.164C200.803 375.32 201.102 377.965 200.499 380.352C199.955 382.506 198.706 384.618 199.152 386.8C199.302 387.53 199.635 388.2 199.843 388.913C200.44 390.964 199.942 393.247 198.952 395.108C197.963 396.969 196.526 398.487 195.108 399.979C196.741 398.261 195.132 392.305 194.376 390.498C193.097 387.44 191.767 385.562 192.291 381.964Z" fill="#72AAAA" fill-opacity="0.5"/>
<path d="M193.729 352.256C194.553 354.819 192.917 357.734 193.684 360.319C194.197 362.049 195.704 363.287 196.115 365.049C196.707 367.58 194.856 370.054 194.844 372.667C194.831 375.387 196.8 377.743 196.857 380.463C196.899 382.522 195.832 384.467 195.895 386.524C195.932 387.744 196.364 388.901 196.616 390.09C197.04 392.09 196.945 394.219 196.345 396.165" stroke="#AFD3CC" stroke-opacity="0.5" stroke-width="0.5" stroke-miterlimit="10" stroke-linecap="round" stroke-linejoin="round"/>
<path d="M188.667 392.846C188.462 390.694 188.496 388.47 187.786 386.45C187.256 384.946 186.333 383.618 185.955 382.059C185.144 378.719 186.945 374.822 185.313 371.864C184.621 370.61 183.383 369.726 182.948 368.339C182.664 367.435 182.766 366.451 182.728 365.497C182.615 362.742 181.21 360.087 179.083 358.608C180.891 358.605 182.744 358.831 184.356 359.728C185.967 360.624 187.304 362.293 187.514 364.258C187.595 365.023 187.508 365.811 187.68 366.558C188.25 369.032 191.205 369.845 192.39 372.043C193.894 374.835 192.027 378.736 193.531 381.528C193.871 382.159 194.365 382.684 194.672 383.335C195.855 385.848 193.857 388.944 194.528 391.674C194.689 392.329 194.998 392.927 195.229 393.557C196.708 397.594 194.824 402.082 192.982 405.935C193.699 404.434 191.5 400.64 190.859 399.339C189.809 397.212 188.901 395.302 188.667 392.846Z" fill="#8ABCB8" fill-opacity="0.5"/>
<path d="M183.468 361.442C184.445 362.671 185.133 364.174 185.447 365.767C185.617 366.633 185.685 367.544 186.058 368.33C186.71 369.705 188.151 370.416 188.975 371.676C190.722 374.346 189.111 378.166 189.986 381.308C190.554 383.345 192.171 385.095 192.019 387.22C191.943 388.28 191.417 389.277 191.461 390.34C191.505 391.418 192.122 392.35 192.583 393.305C193.795 395.816 193.983 398.892 193.089 401.557C192.883 401.615 192.708 401.27 192.861 401.107" stroke="#AFD3CC" stroke-opacity="0.5" stroke-width="0.5" stroke-miterlimit="10" stroke-linecap="round" stroke-linejoin="round"/>
<path d="M204.004 394.84C204.967 392.007 205.238 388.896 204.784 385.914C204.645 385.006 204.441 384.076 204.621 383.175C204.912 381.732 206.102 380.74 206.765 379.453C208.767 375.566 205.55 370.303 207.433 366.345C207.844 365.481 208.471 364.761 208.895 363.904C209.787 362.103 209.686 359.941 209.89 357.905C210.094 355.869 210.837 353.608 212.582 352.866C208.799 353.964 205.549 357.066 204.041 361.017C203.045 363.627 202.714 366.666 200.934 368.715C200.178 369.586 199.182 370.244 198.673 371.306C197.327 374.108 200.126 377.566 199.219 380.571C198.694 382.312 197.053 383.401 196.423 385.1C195.421 387.8 197.3 390.808 196.998 393.704C196.745 396.133 194.984 398.543 195.892 400.774C196.273 401.71 197.06 402.369 197.552 403.241C198.328 404.619 198.278 406.343 198.571 407.929C198.864 409.515 199.821 411.242 201.298 411.275C199.781 405.173 202.123 400.372 204.004 394.84Z" fill="#8ABCB8" fill-opacity="0.5"/>
<path d="M207.828 359.846C205.768 362.091 204.531 365.216 204.444 368.395C204.395 370.181 204.681 372.051 204.049 373.698C203.511 375.1 202.354 376.183 202.014 377.657C201.615 379.394 202.421 381.386 201.623 382.949C201.183 383.811 200.35 384.326 199.724 385.038C198.154 386.824 198.069 389.58 198.161 392.055C198.253 394.531 198.377 397.225 197.066 399.246" stroke="#AFD3CC" stroke-opacity="0.5" stroke-width="0.5" stroke-miterlimit="10" stroke-linecap="round" stroke-linejoin="round"/>
<path d="M197.874 397.873C198.271 396.936 198.857 396.1 199.178 395.129C199.731 393.453 199.427 391.607 199.365 389.827C199.303 388.047 199.611 386.027 200.949 385.009C201.893 384.291 203.141 384.244 204.151 383.642C207.062 381.906 206.611 376.74 209.268 374.567C211.204 372.983 213.965 373.641 216.261 372.817C217.625 372.328 218.779 371.331 220.051 370.602C221.322 369.873 222.878 369.422 224.174 370.095C220.456 370.998 220.132 377.153 216.84 379.251C215.901 379.85 214.747 380.088 213.981 380.933C212.972 382.044 212.948 383.842 212.155 385.146C210.769 387.426 207.208 388.033 206.987 390.76C206.896 391.881 207.477 392.974 207.368 394.094C207.19 395.927 205.388 396.904 204.021 397.981C200.628 400.652 199.131 405.876 200.524 410.189C200.466 410.009 198.508 409.352 198.164 408.604C197.796 407.804 197.908 406.711 197.798 405.831C197.455 403.094 196.74 400.546 197.874 397.873Z" fill="#AFD3CC" fill-opacity="0.5"/>
<path d="M217.711 373.872C216.627 375.487 215.065 376.715 213.319 377.323C212.499 377.609 211.603 377.784 210.959 378.407C209.953 379.383 209.912 381.085 209.201 382.332C208.463 383.624 207.104 384.283 205.875 385C204.646 385.717 203.373 386.72 203.112 388.217C202.878 389.554 203.527 390.897 203.482 392.259C203.439 393.545 202.788 394.694 202.283 395.855C201.777 397.016 201.407 398.404 201.922 399.561" stroke="#72AAAA" stroke-opacity="0.5" stroke-width="0.5" stroke-miterlimit="10" stroke-linecap="round" stroke-linejoin="round"/>
<path d="M190.823 394.115C190.259 392.902 189.525 391.757 189.235 390.432C188.632 387.682 190.019 384.526 188.724 382.077C187.646 380.038 185.129 379.404 183.891 377.478C183.379 376.682 183.127 375.727 182.765 374.837C181.206 370.997 177.342 368.432 173.51 368.694C174.223 371.825 177.246 373.911 177.754 377.09C178.022 378.769 177.551 380.612 178.26 382.129C179.094 383.913 181.331 384.689 181.788 386.63C182.059 387.779 181.6 389.018 181.851 390.173C182.239 391.948 184.094 392.834 184.914 394.423C186.091 396.703 184.868 399.791 186.016 402.088C186.667 403.389 187.944 404.149 188.833 405.27C190.11 406.882 190.486 409.289 189.769 411.275C190.886 410.479 191.999 409.563 192.609 408.266C193.602 406.155 192.13 404.365 192.072 402.303C191.99 399.354 192.098 396.862 190.823 394.115Z" fill="#AFD3CC" fill-opacity="0.5"/>
<path d="M178.256 372.946C179.244 373.83 180.268 374.763 180.774 376.046C181.451 377.758 181.13 379.91 182.198 381.364C183.013 382.472 184.447 382.871 185.236 384C186.733 386.14 185.107 389.352 185.946 391.887C186.45 393.409 187.748 394.411 188.707 395.644C190.084 397.418 190.782 399.803 190.603 402.124" stroke="#72AAAA" stroke-opacity="0.5" stroke-width="0.5" stroke-miterlimit="10" stroke-linecap="round" stroke-linejoin="round"/>
<path d="M210.304 397.69V409.915C210.304 416.22 205.633 421.333 199.871 421.333H191.387C185.626 421.333 180.967 416.22 180.967 409.915V397.69H210.304Z" fill="#B4D8D3" fill-opacity="0.5"/>
<path d="M211.398 394.334H179.87V397.698H211.398V394.334Z" fill="#B4D8D3" fill-opacity="0.5"/>
<path d="M210.304 397.69H180.967V401.055H210.304V397.69Z" fill="#95C5C6" fill-opacity="0.5"/>
<path d="M113.915 398.618C109.531 393.03 106.159 386.497 104.048 379.504C103.374 377.269 102.826 374.835 103.47 372.589C104.113 370.342 106.383 368.506 108.403 369.316C109.556 369.779 110.335 370.935 111.032 372.042C114.406 377.389 117.574 383.142 118.464 389.568C117.449 382.613 117.288 375.385 119.086 368.624C119.503 367.056 120.045 365.479 121.036 364.26C122.027 363.038 123.553 362.228 125.017 362.55C126.225 362.815 127.22 363.806 127.834 364.975C128.447 366.143 128.731 367.481 128.956 368.806C130.114 375.596 129.92 382.833 127.327 389.131C128.215 385.631 129.12 382.086 130.797 378.954C132.409 375.945 134.718 373.388 137.446 371.589C138.623 370.812 140.176 370.191 141.306 371.047C142.056 371.614 142.356 372.662 142.503 373.647C143.118 377.737 141.968 381.919 140.299 385.639C137.913 390.958 134.431 395.685 130.189 399.367L113.915 398.618Z" fill="#72AAAA" fill-opacity="0.5"/>
<path d="M138.184 376.347C134.756 384.052 131.125 391.646 127.294 399.12" stroke="#AFD3CC" stroke-opacity="0.5" stroke-width="0.5" stroke-miterlimit="10" stroke-linecap="round" stroke-linejoin="round"/>
<path d="M131.958 379.186C132.501 381.245 133.109 383.284 133.78 385.295" stroke="#AFD3CC" stroke-opacity="0.5" stroke-width="0.5" stroke-miterlimit="10" stroke-linecap="round" stroke-linejoin="round"/>
<path d="M132.458 388.428C134.313 388.413 136.166 388.145 137.962 387.633" stroke="#AFD3CC" stroke-opacity="0.5" stroke-width="0.5" stroke-miterlimit="10" stroke-linecap="round" stroke-linejoin="round"/>
<path d="M124.439 369.069C124.443 379.367 124.447 389.664 124.451 399.963" stroke="#AFD3CC" stroke-opacity="0.5" stroke-width="0.5" stroke-miterlimit="10" stroke-linecap="round" stroke-linejoin="round"/>
<path d="M120.188 375.539C121.489 377.588 122.788 379.639 124.088 381.689C124.132 381.758 124.189 381.836 124.267 381.836C124.345 381.836 124.391 381.692 124.316 381.671" stroke="#AFD3CC" stroke-opacity="0.5" stroke-width="0.5" stroke-miterlimit="10" stroke-linecap="round" stroke-linejoin="round"/>
<path d="M124.844 377.427C125.615 376.844 126.442 376.347 127.307 375.947" stroke="#AFD3CC" stroke-opacity="0.5" stroke-width="0.5" stroke-miterlimit="10" stroke-linecap="round" stroke-linejoin="round"/>
<path d="M108.686 376.31C112.462 384.097 116.111 391.959 119.631 399.889" stroke="#AFD3CC" stroke-opacity="0.5" stroke-width="0.5" stroke-miterlimit="10" stroke-linecap="round" stroke-linejoin="round"/>
<path d="M115.334 381.934C115.248 384.171 115.191 386.24 114.503 388.029" stroke="#AFD3CC" stroke-opacity="0.5" stroke-width="0.5" stroke-miterlimit="10" stroke-linecap="round" stroke-linejoin="round"/>
<path d="M112.691 384.698C111.152 384.378 108.615 383.988 107.076 383.669" stroke="#AFD3CC" stroke-opacity="0.5" stroke-width="0.5" stroke-miterlimit="10" stroke-linecap="round" stroke-linejoin="round"/>
<path d="M138.252 397.766V409.991C138.252 416.296 133.581 421.408 127.819 421.408H119.335C113.574 421.408 108.915 416.296 108.915 409.991V397.766H138.252Z" fill="#B4D8D3" fill-opacity="0.5"/>
<path d="M139.345 394.408H107.817V397.772H139.345V394.408Z" fill="#B4D8D3" fill-opacity="0.5"/>
<path d="M138.252 397.766H108.915V401.13H138.252V397.766Z" fill="#95C5C6" fill-opacity="0.5"/>
<path d="M160.009 368.645C158.685 365.972 157.664 363.097 155.466 361.239C153.268 359.38 150.7 358.134 148.158 356.905C149.402 359.368 149.909 362.27 149.581 365.062C149.44 366.265 149.288 367.469 149.06 368.657C148.095 373.667 155.085 381.406 156.602 379.547C158.461 380.687 162.009 372.68 160.009 368.645Z" fill="#AFD3CC" fill-opacity="0.5"/>
<path d="M153.632 366.044C153.632 366.044 160.707 391.119 159.413 408.885" stroke="#72AAAA" stroke-opacity="0.5" stroke-width="0.5" stroke-miterlimit="10" stroke-linecap="round" stroke-linejoin="round"/>
<path d="M158.494 379.599C159.311 377.65 160.731 376.079 162.247 374.724C163.211 373.863 164.225 373.069 165.276 372.342C166.523 371.476 167.91 370.595 168.461 369.095C168.775 371.863 168.764 374.676 168.43 377.441C168.325 378.308 168.186 379.175 167.9 379.992C166.951 382.695 164.53 384.432 162.095 385.563C160.705 386.209 158.293 386.231 158.293 386.231C158.293 386.231 157.826 381.189 158.494 379.599Z" fill="#AFD3CC" fill-opacity="0.5"/>
<path d="M153.851 382.597C152.222 381.657 150.499 380.955 148.701 380.525C146.061 379.892 143.257 379.334 140.706 380.309C141.789 381.33 142.7 382.57 143.378 383.948C144.324 385.869 144.849 388.096 146.238 389.662C147.735 391.352 150.023 391.709 152.172 391.807C156.6 392.01 158.132 389.009 158.132 389.009C158.132 389.009 156.844 384.323 153.851 382.597Z" fill="#AFD3CC" fill-opacity="0.5"/>
<path d="M160.376 392.162C160.693 391.171 161.067 390.197 161.593 389.319C162.794 387.312 164.727 385.934 166.777 385.086C168.829 384.238 171.014 383.871 173.183 383.508C172.181 384.645 171.395 386.008 170.89 387.486C170.33 389.128 170.111 390.902 169.439 392.492C168.266 395.258 165.752 397.082 163.08 397.714C162.029 397.963 160.123 398.442 159.593 397.365C159.006 396.171 160.006 393.322 160.376 392.162Z" fill="#AFD3CC" fill-opacity="0.5"/>
<path d="M167.292 372.945C167.292 372.945 164.025 380.65 158.29 386.231" stroke="#72AAAA" stroke-opacity="0.5" stroke-width="0.5" stroke-miterlimit="10" stroke-linecap="round" stroke-linejoin="round"/>
<path d="M144.519 382.272C144.519 382.272 146.58 382.809 149.42 385.39C152.26 387.971 156.05 389.562 158.133 389.009" stroke="#72AAAA" stroke-opacity="0.5" stroke-width="0.5" stroke-miterlimit="10" stroke-linecap="round" stroke-linejoin="round"/>
<path d="M170.314 385.798C170.241 385.955 166.04 387.367 164.493 390.774C162.945 394.18 161.475 395.722 159.594 397.367" stroke="#72AAAA" stroke-opacity="0.5" stroke-width="0.5" stroke-miterlimit="10" stroke-linecap="round" stroke-linejoin="round"/>
<path d="M167.855 421.33H150.97L147.542 399.011H171.282L167.855 421.33Z" fill="#95C5C6" fill-opacity="0.5"/>
<path d="M81.0851 384.222C81.1154 381.773 81.6011 379.32 81.3094 376.892C80.7219 371.997 77.0465 367.58 77.9437 362.742C78.1804 361.469 78.7266 360.285 78.973 359.016C79.7229 355.156 77.6327 351.387 75.6348 348.101C81.7126 349.764 86.7157 355.444 88.0119 362.153C88.5128 364.747 88.5155 367.508 89.5778 369.892C90.4681 371.891 92.0354 373.453 92.9394 375.447C94.8149 379.581 93.4829 384.514 92.1262 388.884C91.196 391.882 89.3411 398.492 85.4182 395.953C82.1378 393.829 81.037 388.024 81.0851 384.222Z" fill="#95C1BF" fill-opacity="0.5"/>
<path d="M82.1956 356.858C83.694 359.627 83.5179 363.055 83.661 366.268C83.8096 369.601 84.3545 372.911 85.2778 376.09C85.7498 377.716 86.3263 379.352 86.3002 381.058C86.2768 382.528 85.8034 383.966 85.8585 385.435C85.9232 387.167 86.7102 388.75 87.306 390.355C87.9019 391.96 88.3064 393.825 87.6253 395.389" stroke="#72AAAA" stroke-opacity="0.5" stroke-width="0.5" stroke-miterlimit="10" stroke-linecap="round" stroke-linejoin="round"/>
<path d="M87.379 391.087C86.9937 390.041 86.6552 388.941 86.6869 387.813C86.7295 386.276 87.4506 384.868 87.7959 383.377C88.8403 378.864 86.4626 373.637 88.6381 369.636C89.8035 367.491 92.0106 366.305 93.4967 364.412C94.9911 362.508 95.6653 360.016 96.7179 357.787C97.772 355.558 99.5057 353.39 101.793 353.205C100.607 355.658 99.386 358.292 99.6268 361.055C99.9254 364.473 102.399 367.267 102.896 370.658C103.681 376.013 99.4135 380.799 99.1658 386.216C99.0833 388.009 99.4466 389.857 98.9815 391.58C98.3031 394.09 95.3419 397.017 93.3495 398.356C90.5108 400.26 88.2885 393.558 87.379 391.087Z" fill="#AFD3CC" fill-opacity="0.5"/>
<path d="M96.605 363.586C94.7736 366.306 95.6377 370.099 95.2483 373.451C94.797 377.341 92.5678 380.867 92.5513 384.786C92.5444 386.49 92.96 388.16 93.0976 389.855C93.3714 393.23 92.5431 396.584 91.7202 399.85" stroke="#72AAAA" stroke-opacity="0.5" stroke-width="0.5" stroke-miterlimit="10" stroke-linecap="round" stroke-linejoin="round"/>
<path d="M84.2968 381.249C83.6101 379.886 82.7845 378.606 82.1763 377.201C81.5062 375.652 81.0576 374 80.499 372.397C78.2382 365.918 62.8242 361.106 62.8242 361.106C62.8242 361.106 64.3929 363.859 64.968 364.692C67.0307 367.682 66.3977 371.928 67.5109 375.471C68.4562 378.481 70.633 380.874 71.6334 383.863C72.1453 385.393 72.3434 387.06 73.0754 388.477C74.3813 391.004 77.0507 392.192 79.2055 393.884C81.7223 395.858 83.6624 398.698 84.6779 401.899C84.3642 400.913 86.0732 397.671 86.2975 396.597C86.5906 395.197 86.6456 393.7 86.6786 392.268C86.7653 388.431 85.9975 384.621 84.2968 381.249Z" fill="#AFD3CC" fill-opacity="0.5"/>
<path d="M69.0933 367.92C71.0265 368.756 72.2388 370.864 73.041 372.962C73.8432 375.061 74.3909 377.317 75.6155 379.154C77.1195 381.409 79.5757 382.931 80.4879 385.538C81.0865 387.247 80.9255 389.211 81.6507 390.86C82.1213 391.93 82.9262 392.774 83.5647 393.734C84.7205 395.469 85.3356 397.629 85.2874 399.774" stroke="#72AAAA" stroke-opacity="0.5" stroke-width="0.5" stroke-miterlimit="10" stroke-linecap="round" stroke-linejoin="round"/>
<path d="M95.9488 421.335H79.0639L75.6362 393.183H99.3764L95.9488 421.335Z" fill="#95C5C6" fill-opacity="0.5"/>
<path d="M140.929 359.992L138.197 357.206C138.197 357.206 132.941 373.199 132.431 377.662C131.92 382.127 134.47 397.941 134.47 397.941L141.948 380.919L140.929 359.992Z" fill="#EF745D"/>
<path d="M155.118 409.203L153.587 465.792L147.911 466.173L145.243 413.245L155.118 409.203Z" fill="#EF745D"/>
<path d="M147.911 466.173C147.911 466.173 145.038 474.853 146.583 474.853C148.128 474.853 165.749 476.318 165.905 475.137C166.059 473.958 153.587 465.792 153.587 465.792L147.911 466.173Z" fill="#2E1A13"/>
<path d="M149.536 417.267C149.536 417.267 144.385 437.046 141.188 442.872C138.29 448.15 126.027 461.071 126.027 461.071L121.496 457.312L133.478 440.223L137.761 413.459L149.536 417.267Z" fill="#EF745D"/>
<path d="M121.494 457.312C121.494 457.312 114.146 461.848 115.319 462.95C116.491 464.052 128.985 477.729 129.805 476.944C130.625 476.16 126.025 461.071 126.025 461.071L121.494 457.312Z" fill="#2E1A13"/>
<path d="M138.197 357.206C140.369 354.828 150.559 348.348 161.511 358.968L155.967 380.189L171.015 437.767C171.015 437.767 143.002 451.463 116.201 433.737L139.772 379.957L138.197 357.206Z" fill="#FFD0A4"/>
<path d="M156.607 380.103L139.273 379.399L139.234 380.556L156.568 381.261L156.607 380.103Z" fill="#F4AF90"/>
<path d="M146.7 338.575C146.7 344.537 152.522 349.83 156.628 349.83C160.734 349.83 161.57 344.537 161.57 338.575C161.57 332.613 158.242 327.781 154.136 327.781C150.03 327.781 146.7 332.613 146.7 338.575Z" fill="#EF745D"/>
<path d="M159.798 334.474C159.798 334.474 160.599 339.236 158.539 341.867C156.478 344.498 155.129 350.115 156.249 352.706C157.369 355.298 158.089 361.413 154.136 364.421C150.182 367.428 142.294 366.936 140.45 364.421C138.606 361.906 137.816 357.406 141.137 352.706C144.457 348.006 143.999 347.13 143.426 344.248C142.854 341.365 143.884 328.711 150.868 326.957C157.851 325.203 159.951 330.089 159.951 330.089C159.951 330.089 162.704 330.475 163.27 333.571C163.835 336.667 161.569 337.801 161.569 337.801L159.798 334.474Z" fill="#5D515D"/>
<path d="M157.199 345.189C158.033 345.189 158.709 344.128 158.709 342.819C158.709 341.51 158.033 340.448 157.199 340.448C156.364 340.448 155.688 341.51 155.688 342.819C155.688 344.128 156.364 345.189 157.199 345.189Z" fill="#EF745D"/>
<path d="M157.199 369.958C157.024 366.582 161.511 358.968 161.511 358.968C161.511 358.968 166.804 374.995 167.726 374.833C168.648 374.671 176.969 366.055 176.969 366.055L180.064 369.783C180.064 369.783 171.415 384.074 167.17 383.508C162.924 382.942 157.448 374.769 157.199 369.958Z" fill="#EF745D"/>
<path d="M176.831 368.496C176.746 368.106 177.162 358.737 178.313 357.351C179.465 355.964 184.581 353.557 184.651 354.402C184.723 355.247 179.925 358.597 179.925 358.597C179.925 358.597 186.422 355.558 186.356 356.259C186.289 356.96 181.32 360.701 181.32 360.701C181.32 360.701 186.068 357.438 186.357 358.057C186.646 358.676 182.143 362.728 182.143 362.728C182.143 362.728 185.953 359.844 186.371 360.858C186.789 361.871 182.616 364.785 182.616 364.785C182.616 364.785 181.874 370.152 179.239 370.726L176.831 368.496Z" fill="#EF745D"/>
<path d="M975.603 474.853H0V494.27H975.603V474.853Z" fill="#2F1B13" fill-opacity="0.5"/>
<defs>
<linearGradient id="paint0_linear_417_1443" x1="492.174" y1="542.905" x2="486.671" y2="55.1408" gradientUnits="userSpaceOnUse">
<stop stop-color="#E7F7F6"/>
<stop offset="1" stop-color="#C5E4EA"/>
</linearGradient>
</defs>
</svg>
