<svg width="80" height="80" viewBox="0 0 40 40" fill="none" xmlns="http://www.w3.org/2000/svg">
<path d="M30.6847 32.4417L30.6848 32.4408C30.8537 30.9377 30.7031 29.4158 30.2431 27.9748C29.7831 26.5338 29.0239 25.2063 28.0153 24.079C27.0066 22.9518 25.7713 22.0502 24.3901 21.4335C23.0089 20.8167 21.5131 20.4986 20.0005 20.5H19.9997C18.1938 20.499 16.4168 20.9533 14.8329 21.8209C13.2847 22.669 11.97 23.8853 11.0043 25.3615L10.9386 25.4649C9.62037 27.5386 9.04783 29.9995 9.31535 32.4422L30.6847 32.4417ZM30.6847 32.4417C30.6717 32.559 30.6313 32.6715 30.5666 32.7702C30.502 32.8689 30.4151 32.9509 30.3128 33.0097C27.1747 34.8103 23.6187 35.7552 20.0007 35.75H20M30.6847 32.4417L20 35.75M20 35.75C16.2479 35.75 12.7251 34.754 9.6873 33.0097M20 35.75L9.6873 33.0097M9.6873 33.0097C9.58499 32.951 9.49799 32.8689 9.43335 32.7702M9.6873 33.0097L9.43335 32.7702M9.43335 32.7702C9.3688 32.6717 9.32838 32.5593 9.31536 32.4422L9.43335 32.7702ZM14.25 11.25C14.25 9.725 14.8558 8.26247 15.9341 7.18414C17.0125 6.1058 18.475 5.5 20 5.5C21.525 5.5 22.9875 6.1058 24.0659 7.18414C25.1442 8.26247 25.75 9.72501 25.75 11.25C25.75 12.775 25.1442 14.2375 24.0659 15.3159C22.9875 16.3942 21.525 17 20 17C18.475 17 17.0125 16.3942 15.9341 15.3159C14.8558 14.2375 14.25 12.775 14.25 11.25ZM26.75 16.25C26.75 15.0565 27.2241 13.9119 28.068 13.068C28.9119 12.2241 30.0565 11.75 31.25 11.75C32.4435 11.75 33.5881 12.2241 34.432 13.068C35.2759 13.9119 35.75 15.0565 35.75 16.25C35.75 17.4435 35.2759 18.5881 34.432 19.432C33.5881 20.2759 32.4435 20.75 31.25 20.75C30.0565 20.75 28.9119 20.2759 28.068 19.432C27.2241 18.5881 26.75 17.4435 26.75 16.25ZM4.25 16.25C4.25 15.0565 4.72411 13.9119 5.56802 13.068C6.41193 12.2241 7.55653 11.75 8.75 11.75C9.94347 11.75 11.0881 12.2241 11.932 13.068C12.7759 13.9119 13.25 15.0565 13.25 16.25C13.25 17.4435 12.7759 18.5881 11.932 19.432C11.0881 20.2759 9.94347 20.75 8.75 20.75C7.55653 20.75 6.41193 20.2759 5.56802 19.432C4.72411 18.5881 4.25 17.4435 4.25 16.25Z" stroke="#0B1215"/>
<path d="M8.47013 23.7567C6.82639 26.294 6.06056 29.3006 6.29013 32.315C5.28931 32.1633 4.30498 31.9178 3.35013 31.5817L3.15847 31.515C2.98746 31.4544 2.83772 31.3454 2.72738 31.2013C2.61704 31.0573 2.55085 30.8843 2.5368 30.7034L2.52013 30.5017C2.45281 29.665 2.55473 28.8233 2.81981 28.0268C3.08489 27.2303 3.5077 26.4954 4.06301 25.8659C4.61832 25.2364 5.29475 24.7252 6.05193 24.3628C6.80912 24.0004 7.63154 23.7943 8.47013 23.7567ZM33.7101 32.315C33.9397 29.3006 33.1739 26.294 31.5301 23.7567C32.3687 23.7943 33.1912 24.0004 33.9483 24.3628C34.7055 24.7252 35.382 25.2364 35.9373 25.8659C36.4926 26.4954 36.9154 27.2303 37.1805 28.0268C37.4455 28.8233 37.5475 29.665 37.4801 30.5017L37.4635 30.7034C37.4491 30.884 37.3828 31.0566 37.2725 31.2003C37.1621 31.3441 37.0126 31.4528 36.8418 31.5134L36.6501 31.58C35.7051 31.9134 34.7235 32.1617 33.7101 32.315Z" fill="#1C76FF"/>
</svg>
